<svg width="265" height="265" viewBox="0 0 265 265" fill="none" xmlns="http://www.w3.org/2000/svg">
<path d="M121.016 263.434C114.474 263.434 107.984 262.956 101.588 261.978C91.9993 260.513 65.7116 256.145 42.4365 235.544C17.0122 213.039 2.92933 178.021 2.10693 141.824C14.9627 230.077 82.2601 242.808 82.2601 242.808C82.3613 242.666 82.4615 242.523 82.5606 242.378C98.6258 254.679 118.76 261.994 140.62 261.994C140.7 261.994 140.784 261.994 140.864 261.994C134.252 262.947 127.613 263.434 121.016 263.434V263.434ZM206.298 235.883C209.167 233.166 211.866 230.269 214.377 227.217C226.582 218.273 236.027 208.402 243.227 198.005C233.42 212.98 220.72 225.731 206.298 235.883ZM259.243 163.342C268.558 128.803 261.365 93.261 253.272 68.7403C266.727 97.2839 268.448 132.216 259.243 163.342V163.342ZM203.502 96.6974C186.735 82.0318 164.724 73.1331 140.62 73.1331C118.747 73.1331 98.598 80.4602 82.528 92.7742C81.7121 90.8748 80.8619 89.0024 79.9816 87.1663C75.2878 77.3783 72.3247 65.2943 70.4747 53.2065C70.7019 53.425 70.9773 53.609 71.299 53.7431L81.6901 58.0957C82.498 58.433 83.0866 59.146 83.2646 59.9988L85.5432 70.9616C85.8204 72.2956 86.981 73.0737 88.1664 73.0737C88.8888 73.0737 89.6206 72.7843 90.1676 72.1557L97.5483 63.694C98.0577 63.1094 98.7944 62.7779 99.5629 62.7779C99.6602 62.7779 99.7593 62.7836 99.8576 62.7951L111.066 64.0313C111.171 64.0428 111.274 64.0485 111.376 64.0485C113.401 64.0485 114.729 61.8234 113.641 60.0372L107.812 50.4543C107.359 49.7087 107.304 48.7888 107.666 47.9953L112.314 37.7972C113.135 35.9976 111.76 34.0599 109.905 34.0599C109.702 34.0599 109.494 34.0829 109.281 34.1308L98.2976 36.6722C98.0971 36.7201 97.894 36.7431 97.6928 36.7431C97.0359 36.7412 96.3946 36.5016 95.8976 36.0531L87.5616 28.5133C87.0339 28.0342 86.4022 27.8195 85.782 27.8195C84.4838 27.8195 83.2395 28.7644 83.1125 30.2421L82.1533 41.3966C82.0792 42.2629 81.5793 43.0391 80.8165 43.4703L71.0169 49.0092C70.5681 49.2622 70.2329 49.611 70.0095 50.0039C68.5592 39.457 67.9179 29.0653 67.6713 20.3545C89.5262 7.14353 114.657 0.000460029 139.245 0.000460029C140.319 0.000460029 141.389 0.0138686 142.461 0.0407006C152.113 0.287939 189.1 1.80396 221.608 28.4079C224.97 31.1601 231.188 36.5802 237.888 44.6931C235.476 44.7947 233.092 45.8833 231.506 48.0375C228.45 52.1888 225.518 56.4915 222.701 60.9322L217.416 56.8288C216.935 56.4551 216.389 56.2864 215.858 56.2864C214.545 56.2864 213.311 57.306 213.295 58.7971L213.187 69.5108C213.18 70.3445 212.759 71.1207 212.063 71.5864L203.112 77.5719C201.356 78.7449 201.719 81.4031 203.724 82.072L209.605 84.0327C207.487 88.2012 205.454 92.4273 203.502 96.6974ZM174.991 31.5607C173.369 31.5607 172.04 33.1361 172.56 34.8342L175.707 45.084C175.951 45.8813 175.784 46.7457 175.263 47.3974L168.539 55.7805C167.223 57.423 168.373 59.8493 170.488 59.8877L181.28 60.087C182.12 60.1004 182.898 60.524 183.362 61.2216L189.315 70.1567C189.828 70.9271 190.634 71.2932 191.435 71.2932C192.455 71.2932 193.466 70.6971 193.854 69.5875L197.378 59.4603C197.653 58.6726 198.3 58.0688 199.109 57.8465L209.511 54.987C211.548 54.4273 212.054 51.7921 210.366 50.5271L201.752 44.0702C201.084 43.568 200.706 42.7727 200.742 41.939L201.217 31.2349C201.285 29.694 200.022 28.5881 198.661 28.5881C198.17 28.5881 197.666 28.7318 197.209 29.05L188.359 35.1849C187.924 35.4878 187.415 35.643 186.897 35.643C186.596 35.643 186.295 35.5893 186.005 35.482L175.895 31.7255C175.589 31.6124 175.284 31.5607 174.991 31.5607V31.5607ZM141.534 7.64759C140.431 7.64759 139.329 8.23024 138.786 9.38018L133.334 20.918C132.91 21.8168 132.068 22.4493 131.083 22.6103L118.416 24.6936C115.936 25.1018 115.003 28.1569 116.839 29.8626L126.21 38.5754C126.938 39.2519 127.285 40.2428 127.135 41.2221L125.218 53.8217C124.923 55.7536 126.475 57.2907 128.219 57.2907C128.703 57.2907 129.203 57.1719 129.683 56.9093L140.926 50.7552C141.381 50.506 141.885 50.3815 142.391 50.3815C142.855 50.3815 143.321 50.4869 143.749 50.6996L155.229 56.4033C155.679 56.6276 156.143 56.7292 156.591 56.7292C158.383 56.7292 159.947 55.1039 159.568 53.1432L157.145 40.628C156.956 39.6544 157.263 38.652 157.964 37.9467L166.977 28.8717C168.742 27.0932 167.688 24.0784 165.193 23.7698L152.453 22.1886C151.462 22.066 150.595 21.4661 150.135 20.5864L144.225 9.27284C143.658 8.18615 142.596 7.64759 141.534 7.64759V7.64759ZM31.1276 90.5394C27.2496 82.7064 23.8876 74.6165 21.0628 67.0537C22.066 65.3518 23.1071 63.6729 24.1923 62.0112C31.2361 51.2267 39.7777 41.6898 49.3658 33.5309C39.8776 54.7397 34.1136 73.6813 31.1276 90.5394" fill="url(#paint0_linear_1927_3971)"/>
<path d="M8.78422 39.1443C9.15816 37.4725 11.5456 37.4101 12.0011 39.0617C16.4041 55.023 29.2701 96.5164 49.3325 118.619C81.9982 154.606 103.52 212.846 82.2601 242.808C82.2601 242.808 -31.9608 221.212 8.78422 39.1443" fill="#BDD0FB"/>
<path d="M29.6053 135.522C28.5866 132.394 27.6 129.255 26.6336 126.112C24.4869 119.104 22.4899 112.054 20.693 104.953C18.8863 97.8549 17.1871 90.7307 15.6833 83.5649C14.9379 79.9812 14.2259 76.3899 13.5588 72.7908C13.2317 70.989 12.9049 69.1887 12.6057 67.3823L12.1757 64.6695L11.9755 63.3093C11.9179 62.8477 11.8453 62.42 11.8078 61.8983C11.7974 61.7475 11.9081 61.6121 12.0614 61.5937C12.0729 61.5937 12.0844 61.5921 12.0957 61.5921C12.2397 61.5921 12.364 61.6998 12.3816 61.8445L12.3892 61.9091C12.4357 62.2984 12.5203 62.7723 12.5919 63.2155L12.8325 64.5618L13.3444 67.2515L14.4237 72.6231C15.1717 76.1991 15.9644 79.7658 16.79 83.3249C18.4297 90.4445 20.1964 97.5348 22.1063 104.587C24.213 112.299 26.4368 119.981 28.8351 127.607C29.0143 130.322 29.2738 132.961 29.6053 135.522" fill="#D9E4FD"/>
<path d="M64.6405 3.30339C65.4428 1.87267 67.649 2.46136 67.6134 4.09973C67.2637 19.9291 67.6578 61.4637 79.9816 87.1652C100.046 129.013 103.776 188.249 76.0438 209.97C76.0438 209.97 -22.7664 159.236 64.6405 3.30339" fill="#91B3FA"/>
<path d="M58.4172 119.991C58.1119 116.3 57.8634 112.603 57.6698 108.904C57.533 106.402 57.4271 103.896 57.3442 101.392C57.9981 101.216 58.5914 100.78 58.9429 100.085L58.9747 100.021C59.0787 102.954 59.2126 105.885 59.3792 108.814C59.5564 111.703 59.7403 114.593 59.9483 117.48C59.4254 118.31 58.915 119.146 58.4172 119.991V119.991ZM57.5215 65.4667C57.8104 58.9394 58.1957 52.4175 58.7475 45.9096C59.0497 42.4192 59.3849 38.9341 59.7634 35.4526C59.9579 33.7127 60.1543 31.9728 60.3769 30.2346L60.7284 27.6318L60.919 26.3296C60.9931 25.8902 61.0443 25.479 61.154 24.9902C61.183 24.8614 61.2986 24.7714 61.4276 24.7714C61.444 24.7714 61.4593 24.7732 61.4756 24.7749C61.6289 24.8014 61.7309 24.9461 61.7048 25.0979L61.6932 25.1596C61.6298 25.5284 61.5768 25.9872 61.521 26.4107L61.3727 27.7112L61.103 30.3176L60.6176 35.5355C60.3211 39.0171 60.0686 42.5022 59.8491 45.989C59.4426 52.2569 59.1365 58.5301 58.944 64.805L58.0511 65.2638C57.8806 65.352 57.7025 65.4191 57.5215 65.4667" fill="#C0D4FC"/>
<path d="M160.581 253.792C160.581 253.792 175.481 124.104 231.507 48.0378C235.272 42.9247 243.513 43.8185 246.022 49.633C262.801 88.5095 300.839 207.855 160.581 253.792" fill="#91B3FA"/>
<path d="M230.316 136.004C229.564 133.898 228.736 131.824 227.841 129.788C232.693 112.13 235.581 97.4467 237.072 88.8619L237.809 88.8896C236.421 105.995 233.78 121.702 230.316 136.004" fill="#C8D9FD"/>
<path d="M128.218 57.2896C126.474 57.2896 124.923 55.7527 125.217 53.8232L127.135 41.2218C127.284 40.2421 126.937 39.253 126.209 38.5743L116.838 29.8636C115.003 28.1566 115.936 25.1035 118.416 24.6941L131.082 22.6113C132.067 22.4486 132.909 21.8166 133.334 20.9192L138.786 9.3816C139.329 8.2299 140.43 7.64843 141.533 7.64843C142.595 7.64843 143.657 8.1869 144.224 9.27317L150.135 20.5864C150.595 21.467 151.461 22.0653 152.452 22.1887L165.193 23.7686C167.687 24.0789 168.742 27.0928 166.977 28.8708L157.964 37.9461C157.261 38.6529 156.956 39.655 157.144 40.6291L159.567 53.1427C159.945 55.1039 158.382 56.7287 156.591 56.7287C156.14 56.7287 155.679 56.6277 155.229 56.4033L143.748 50.699C143.32 50.4878 142.855 50.3812 142.389 50.3812C141.884 50.3812 141.381 50.5065 140.925 50.7551L129.682 56.91C129.202 57.1718 128.703 57.2896 128.218 57.2896V57.2896ZM127.517 26.1486L123.289 26.8442C122.421 26.9881 121.723 27.5958 121.465 28.4334C121.21 29.271 121.451 30.1628 122.094 30.7592L128.214 36.4486C129.648 37.7816 130.329 39.7298 130.035 41.6574L128.784 49.8857C128.651 50.7514 129.019 51.5983 129.742 52.0994C130.138 52.3724 130.595 52.5107 131.054 52.5107C131.435 52.5107 131.816 52.4154 132.166 52.2247L139.509 48.2068C140.096 47.8833 140.73 47.6646 141.392 47.5524L141.283 46.9149C140.549 47.0383 139.846 47.2832 139.193 47.6403L131.851 51.6582C131.596 51.7965 131.323 51.8657 131.051 51.8657C130.726 51.8657 130.402 51.7666 130.115 51.5684C129.59 51.2038 129.332 50.613 129.429 49.983L130.681 41.7546C131.006 39.6157 130.251 37.4563 128.66 35.9774L122.54 30.2881C122.072 29.8524 121.905 29.2298 122.089 28.6203C122.277 28.0164 122.764 27.5864 123.396 27.4817L127.623 26.7881L130.128 26.3749L130.021 25.7373L127.517 26.1486V26.1486ZM147.116 48.3919L146.824 48.9715L152.559 51.8208C152.887 51.9853 153.241 52.0658 153.592 52.0658C154.081 52.0658 154.567 51.9068 154.976 51.6002C155.325 51.3385 155.583 50.9944 155.733 50.6074C155.886 50.2167 155.928 49.7829 155.845 49.351L154.264 41.1788C153.897 39.2867 154.509 37.2749 155.875 35.9026L161.761 29.9758C162.379 29.3532 162.584 28.452 162.294 27.6257C162.006 26.7993 161.283 26.2178 160.409 26.1094L152.089 25.0773C150.139 24.8361 148.434 23.6583 147.532 21.927L143.67 14.5381C143.273 13.7753 142.495 13.3079 141.631 13.3079C141.616 13.3079 141.6 13.3079 141.584 13.3079C140.703 13.3247 139.924 13.8276 139.55 14.6204L135.989 22.1551C135.657 22.8581 135.197 23.4807 134.62 24.006L135.061 24.4828C135.701 23.8995 136.211 23.2095 136.58 22.4318L140.14 14.8952C140.412 14.3193 140.956 13.9679 141.598 13.9548C141.61 13.9548 141.622 13.9548 141.633 13.9548C142.259 13.9548 142.802 14.282 143.092 14.8372L146.954 22.2242C147.956 24.1444 149.845 25.4512 152.008 25.7205L160.328 26.7525C160.964 26.8311 161.469 27.2368 161.68 27.8388C161.889 28.439 161.746 29.0672 161.296 29.5215L155.409 35.4483C153.897 36.9702 153.217 39.2026 153.624 41.3003L155.204 49.4725C155.327 50.097 155.093 50.699 154.583 51.0842C154.285 51.3067 153.942 51.4207 153.595 51.4207C153.345 51.4207 153.093 51.3609 152.851 51.2431L147.116 48.3919" fill="url(#paint1_linear_1927_3971)"/>
<path d="M131.054 52.5103C130.595 52.5103 130.138 52.3715 129.742 52.0976C129.02 51.5988 128.652 50.7506 128.784 49.8866L130.036 41.6572C130.33 39.729 129.649 37.7814 128.215 36.4485L122.095 30.7585C121.451 30.1614 121.211 29.2693 121.466 28.4334C121.723 27.5957 122.421 26.9881 123.29 26.8441L127.517 26.1486L127.623 26.7861L123.397 27.4816C122.764 27.5852 122.278 28.0154 122.09 28.6213C121.905 29.2289 122.073 29.8524 122.541 30.2879L128.661 35.9761C130.251 37.4547 131.007 39.6148 130.681 41.7538L129.429 49.9832C129.333 50.6119 129.59 51.2037 130.116 51.5672C130.403 51.7657 130.726 51.8658 131.053 51.8658C131.323 51.8658 131.596 51.7973 131.851 51.6568L139.193 47.6387C139.846 47.2822 140.549 47.0381 141.283 46.9152L141.393 47.5526C140.731 47.6633 140.096 47.8845 139.508 48.2059L132.166 52.224C131.817 52.4154 131.435 52.5103 131.054 52.5103" fill="url(#paint2_linear_1927_3971)"/>
<path d="M153.592 52.0645C153.24 52.0645 152.889 51.9837 152.56 51.8204L146.823 48.9707L147.115 48.3927L152.852 51.2424C153.092 51.3617 153.344 51.4204 153.595 51.4204C153.943 51.4204 154.285 51.3066 154.582 51.0828C155.093 50.6993 155.327 50.0974 155.205 49.4717L153.625 41.3007C153.216 39.2015 153.897 36.9703 155.411 35.4473L161.297 29.5204C161.746 29.0672 161.889 28.4378 161.68 27.8378C161.469 27.236 160.964 26.8304 160.328 26.7515L152.007 25.7185C149.844 25.4506 147.955 24.1441 146.953 22.2247L143.093 14.8355C142.802 14.2813 142.259 13.9547 141.634 13.9547C141.621 13.9547 141.61 13.9547 141.597 13.9547C140.956 13.9675 140.412 14.318 140.14 14.8942L136.58 22.4303C136.211 23.2101 135.701 23.9 135.062 24.4817L134.621 24.0046C135.197 23.4798 135.658 22.8578 135.989 22.155L139.551 14.6189C139.924 13.8281 140.702 13.3253 141.584 13.307C141.601 13.307 141.616 13.307 141.632 13.307C142.494 13.307 143.272 13.7749 143.669 14.5382L147.531 21.9275C148.435 23.6578 150.138 24.8359 152.089 25.0762L160.41 26.1093C161.282 26.2176 162.007 26.7992 162.295 27.6249C162.584 28.4525 162.378 29.3516 161.761 29.9755L155.875 35.9024C154.509 37.2749 153.897 39.286 154.264 41.1778L155.845 49.3506C155.928 49.7836 155.886 50.2167 155.732 50.6075C155.583 50.9928 155.324 51.3378 154.976 51.5984C154.566 51.9066 154.081 52.0645 153.592 52.0645" fill="url(#paint3_linear_1927_3971)"/>
<path d="M127.623 26.7871L127.517 26.1487L130.022 25.7372L130.129 26.3756L127.623 26.7871Z" fill="url(#paint4_linear_1927_3971)"/>
<path d="M88.1665 73.0725C86.981 73.0725 85.8205 72.2938 85.5431 70.96L83.2647 59.9974C83.0865 59.1454 82.4981 58.4331 81.6902 58.0944L71.2992 53.7436C70.9774 53.6091 70.702 53.4241 70.4747 53.2058C69.6003 52.3695 69.4288 51.0287 70.0096 50.0038C70.233 49.6093 70.5681 49.2618 71.0168 49.0087L80.8167 43.4689C81.5794 43.0377 82.0791 42.2625 82.1533 41.3948L83.1125 30.2419C83.2397 28.7649 84.4839 27.8186 85.782 27.8186C86.4023 27.8186 87.0339 28.0351 87.5618 28.5117L95.8976 36.0523C96.3947 36.501 97.036 36.7419 97.6928 36.7419C97.8941 36.7419 98.0972 36.7192 98.2976 36.6721L109.281 34.1318C109.494 34.0812 109.702 34.0585 109.905 34.0585C111.76 34.0585 113.135 35.9964 112.314 37.7965L107.666 47.996C107.304 48.7887 107.359 49.707 107.812 50.4525L113.641 60.0358C114.729 61.8219 113.401 64.0479 111.376 64.0479C111.274 64.0479 111.171 64.0427 111.066 64.0304L99.8577 62.7943C99.7593 62.7839 99.6603 62.7786 99.563 62.7786C98.7945 62.7786 98.0577 63.1086 97.5483 63.6935L90.1676 72.1559C89.6207 72.7844 88.8888 73.0725 88.1665 73.0725V73.0725ZM78.962 47.46L75.6914 49.309C75.0193 49.6896 74.6302 50.4019 74.6754 51.1684C74.7217 51.9366 75.1926 52.5983 75.9062 52.8968L82.6918 55.7391C84.2816 56.4043 85.4392 57.8028 85.7878 59.4806L87.2767 66.6406C87.4327 67.3913 87.995 67.9797 88.7433 68.1735C88.9157 68.2171 89.0891 68.2398 89.2596 68.2398C89.8364 68.2398 90.3892 67.9937 90.7801 67.5467L95.6002 62.0192C95.9863 61.5775 96.4408 61.2038 96.9521 60.9123L96.6672 60.4199C96.0999 60.7429 95.5952 61.1567 95.1667 61.6473L90.3468 67.1748C90.0636 67.4978 89.6775 67.6724 89.2672 67.6724C89.1421 67.6724 89.016 67.6567 88.8888 67.6235C88.3437 67.4821 87.9518 67.0718 87.8381 66.5254L86.3493 59.3654C85.9621 57.5043 84.6784 55.9539 82.9152 55.2154L76.1287 52.373C75.6096 52.1548 75.2802 51.6921 75.2466 51.1352C75.2167 50.58 75.4854 50.0789 75.9755 49.8031L79.245 47.9541L81.1836 46.8594L80.8995 46.3654L78.962 47.46V47.46ZM101.925 59.8769L101.863 60.4426L107.463 61.0607C107.539 61.0677 107.615 61.0729 107.69 61.0729C108.375 61.0729 109.01 60.7324 109.386 60.1493C109.593 59.8281 109.7 59.4667 109.707 59.1035C109.712 58.7351 109.615 58.3632 109.414 58.0333L105.607 51.7759C104.725 50.3268 104.614 48.4849 105.318 46.9415L108.354 40.2809C108.672 39.5808 108.565 38.7777 108.074 38.184C107.684 37.7109 107.116 37.4508 106.521 37.4508C106.367 37.4508 106.211 37.4682 106.056 37.5031L98.8821 39.1635C98.4883 39.2543 98.0886 39.2997 97.6928 39.2997C96.4003 39.2997 95.1379 38.8248 94.1623 37.9414L88.7173 33.0179C88.3379 32.674 87.8554 32.4941 87.3623 32.4941C87.1139 32.4941 86.8635 32.5395 86.6218 32.6338C85.9015 32.9131 85.4132 33.5644 85.3468 34.3291L84.7208 41.613C84.6629 42.2922 84.4742 42.9434 84.1604 43.551L84.6687 43.8111C85.0174 43.1372 85.2274 42.4144 85.292 41.6619L85.9178 34.3762C85.965 33.821 86.3069 33.3671 86.8308 33.1628C87.0081 33.093 87.1899 33.0598 87.3681 33.0598C87.7176 33.0598 88.0568 33.189 88.3321 33.4387L93.7771 38.3621C94.8596 39.3416 96.2587 39.8671 97.6928 39.8671C98.1319 39.8671 98.5748 39.8182 99.0121 39.7169L106.187 38.0566C106.301 38.0304 106.416 38.0182 106.529 38.0182C106.953 38.0182 107.35 38.2032 107.632 38.5437C107.989 38.9767 108.064 39.5371 107.833 40.0469L104.796 46.7076C104.016 48.4186 104.138 50.463 105.117 52.0692L108.923 58.3266C109.214 58.805 109.207 59.3724 108.903 59.842C108.632 60.2645 108.189 60.5037 107.697 60.5037C107.641 60.5037 107.583 60.502 107.526 60.495L101.925 59.8769" fill="url(#paint5_linear_1927_3971)"/>
<path d="M89.2595 68.2402C89.089 68.2402 88.9157 68.2191 88.7433 68.1736C87.9951 67.9802 87.4326 67.3918 87.2767 66.6408L85.7877 59.4809C85.4391 57.8035 84.2816 56.4057 82.6917 55.7393L75.9061 52.8964C75.1926 52.599 74.7216 51.9358 74.6754 51.1686C74.6302 50.4014 75.0192 49.6895 75.6914 49.3092L78.9619 47.4611L79.245 47.9552L75.9755 49.8033C75.4854 50.0796 75.2167 50.5802 75.2465 51.1361C75.2802 51.6936 75.6095 52.1552 76.1286 52.373L82.915 55.2142C84.6784 55.9538 85.9622 57.5044 86.3493 59.3655L87.838 66.5254C87.9517 67.0716 88.3437 67.4828 88.8887 67.6242C89.0158 67.6567 89.1421 67.673 89.2672 67.673C89.6774 67.673 90.0635 67.499 90.3468 67.174L95.1666 61.6476C95.5952 61.1567 96.0999 60.7439 96.6672 60.4188L96.9521 60.9129C96.4409 61.2039 95.9863 61.5777 95.6001 62.0198L90.7801 67.5462C90.3891 67.9948 89.8364 68.2402 89.2595 68.2402" fill="url(#paint6_linear_1927_3971)"/>
<path d="M107.69 61.0742C107.615 61.0742 107.539 61.0691 107.463 61.0605L101.863 60.4423L101.925 59.8773L107.526 60.4955C107.583 60.5024 107.641 60.5041 107.697 60.5041C108.189 60.5041 108.632 60.2654 108.903 59.843C109.207 59.3724 109.214 58.8058 108.923 58.3267L105.117 52.0691C104.138 50.4635 104.016 48.42 104.796 46.7079L107.832 40.0468C108.063 39.5385 107.988 38.977 107.632 38.5443C107.35 38.2043 106.953 38.0188 106.529 38.0188C106.416 38.0188 106.301 38.0308 106.187 38.0583L99.0121 39.7171C98.5749 39.8184 98.132 39.8683 97.6927 39.8683C96.2588 39.8683 94.8596 39.3428 93.7771 38.3622L88.3321 33.439C88.0566 33.19 87.7177 33.0612 87.3682 33.0612C87.19 33.0612 87.008 33.0938 86.8308 33.1642C86.307 33.3668 85.9651 33.8219 85.9179 34.3783L85.2919 41.6628C85.2274 42.4149 85.0173 43.1378 84.6687 43.811L84.1604 43.5517C84.4742 42.9455 84.663 42.293 84.7208 41.6147L85.3467 34.3302C85.4132 33.5643 85.9014 32.9152 86.6218 32.6336C86.8635 32.5409 87.1139 32.4945 87.3623 32.4945C87.8554 32.4945 88.3379 32.6748 88.7173 33.02L94.1622 37.9432C95.1378 38.8259 96.4005 39.2998 97.6927 39.2998C98.0885 39.2998 98.4882 39.2552 98.8821 39.1642L106.056 37.5036C106.211 37.4676 106.367 37.4504 106.521 37.4504C107.116 37.4504 107.684 37.7131 108.074 38.1836C108.565 38.7778 108.672 39.5815 108.354 40.2821L105.318 46.9415C104.614 48.4853 104.725 50.3278 105.607 51.7755L109.414 58.0347C109.615 58.3644 109.712 58.7354 109.706 59.1029C109.7 59.4669 109.593 59.8275 109.386 60.1486C109.01 60.7325 108.375 61.0742 107.69 61.0742" fill="url(#paint7_linear_1927_3971)"/>
<path d="M79.2449 47.9548L78.9617 47.4603L80.8997 46.3651L81.1839 46.8597L79.2449 47.9548" fill="url(#paint8_linear_1927_3971)"/>
<path d="M56.6624 101.482C55.7475 101.482 54.8337 101.006 54.3685 100.057L49.6489 90.4214C49.2819 89.6717 48.5669 89.1496 47.7368 89.0241L37.0638 87.4224C34.9738 87.108 34.1536 84.5505 35.6761 83.0959L43.4503 75.662C44.0551 75.0842 44.3343 74.2477 44.1974 73.4267L42.4357 62.8559C42.1639 61.2232 43.472 59.9049 44.9522 59.9049C45.3489 59.9049 45.758 59.9994 46.1524 60.2085L55.6773 65.2507C56.0518 65.449 56.4649 65.5481 56.8773 65.5481C57.0939 65.5481 57.3105 65.5218 57.5214 65.466C57.7026 65.4196 57.8806 65.353 58.0511 65.2647L58.9438 64.8062L67.6351 60.3356C68.0223 60.1357 68.4219 60.0459 68.8091 60.0459C70.3017 60.0459 71.6135 61.3858 71.3197 63.0263L69.4321 73.5738C69.2848 74.3948 69.5544 75.2344 70.1516 75.82L77.8364 83.3437C79.3417 84.8169 78.4913 87.3636 76.3976 87.6532L65.7061 89.131C64.8741 89.2457 64.1538 89.76 63.7772 90.5051L58.9747 100.021L58.9428 100.084C58.5914 100.78 57.9982 101.215 57.3442 101.392C57.1218 101.452 56.8926 101.482 56.6624 101.482V101.482ZM42.6786 79.7995L40.0841 82.2795C39.5511 82.7892 39.3595 83.542 39.5834 84.2422C39.8085 84.9439 40.4029 85.4474 41.1352 85.5574L48.1059 86.6045C49.739 86.8508 51.1452 87.8763 51.8675 89.351L54.9492 95.6448C55.2737 96.3047 55.9343 96.7183 56.675 96.723C56.6797 96.723 56.6836 96.723 56.6875 96.723C57.4241 96.723 58.0848 96.3187 58.4152 95.6634L61.5729 89.4083C61.8251 88.908 62.1583 88.4557 62.5638 88.0653L62.1814 87.6749C61.7327 88.1071 61.363 88.609 61.0827 89.1651L57.925 95.4202C57.6842 95.8958 57.223 96.1777 56.6884 96.1777C56.6855 96.1777 56.6827 96.1777 56.6788 96.1777C56.1405 96.1762 55.6782 95.8865 55.4432 95.4063L52.3606 89.1124C51.5594 87.4782 49.9998 86.3396 48.188 86.067L41.2175 85.0198C40.6846 84.9393 40.2695 84.5876 40.1058 84.078C39.9453 83.5699 40.0761 83.0432 40.4646 82.6715L43.0586 80.1914L44.596 78.7214L44.2159 78.3294L42.6786 79.7995V79.7995ZM66.339 64.5444C66.6249 64.5444 66.907 64.6342 67.1546 64.8154C67.587 65.133 67.7902 65.6349 67.6968 66.1616L66.4641 73.0518C66.1464 74.8224 66.7463 76.689 68.0357 77.9499L73.053 82.8635C73.4373 83.2384 73.5654 83.7651 73.3959 84.2747C73.2264 84.7813 72.8066 85.1283 72.273 85.2026L66.9312 85.94L67.0072 86.479L72.3482 85.7417C73.0821 85.6395 73.6829 85.1438 73.916 84.4451C74.0314 84.0981 74.045 83.7388 73.9642 83.4011C73.8832 83.0572 73.7042 82.7365 73.4393 82.4763L68.4209 77.5627C67.2576 76.4257 66.7174 74.7434 67.0033 73.1463L68.2371 66.2576C68.3661 65.5327 68.0752 64.8139 67.479 64.3771C67.1382 64.1277 66.7385 64.0022 66.336 64.0022C66.0326 64.0022 65.7273 64.0734 65.4451 64.2191L59.1846 67.4396C58.4614 67.8113 57.6689 67.9972 56.8773 67.9972C56.0654 67.9972 55.2545 67.8005 54.5169 67.4101L48.2953 64.1184C48.0077 63.965 47.6954 63.8906 47.3845 63.8906C46.9895 63.8906 46.5965 64.0115 46.2597 64.2516C45.6578 64.6807 45.3594 65.3979 45.4803 66.1229L46.6309 73.027C46.7384 73.6699 46.7181 74.3189 46.5706 74.954L47.1045 75.0764C47.2683 74.3716 47.2907 73.6513 47.172 72.9372L46.0211 66.0346C45.9329 65.5079 46.1416 65.006 46.5795 64.6931C46.8239 64.5196 47.1016 64.4313 47.382 64.4313C47.604 64.4313 47.8276 64.487 48.0378 64.5986L54.2587 67.8903C55.0773 68.3241 55.9768 68.5409 56.8773 68.5409C57.7555 68.5409 58.6337 68.3349 59.437 67.9213L65.6975 64.7024C65.9035 64.5955 66.1222 64.5444 66.339 64.5444" fill="url(#paint9_linear_1927_3971)"/>
<path d="M56.6883 96.7224C56.6845 96.7224 56.6806 96.7224 56.6759 96.7224C55.9352 96.7181 55.2745 96.3043 54.95 95.6436L51.8684 89.3504C51.1461 87.8763 49.7398 86.8489 48.1067 86.6034L41.136 85.556C40.4038 85.4461 39.8093 84.9424 39.5841 84.2417C39.3603 83.5411 39.5519 82.789 40.0849 82.2781L42.6793 79.798L43.0594 80.1904L40.4653 82.6706C40.0769 83.0416 39.9462 83.5682 40.1065 84.0776C40.2702 84.5871 40.6853 84.9381 41.2183 85.0194L48.1888 86.0654C50.0007 86.338 51.5602 87.4768 52.3614 89.1121L55.444 95.4053C55.6791 95.8862 56.1413 96.1744 56.6796 96.1773C56.6835 96.1773 56.6864 96.1773 56.6893 96.1773C57.2238 96.1773 57.685 95.8962 57.9259 95.4195L61.0835 89.1635C61.3638 88.6084 61.7337 88.1061 62.1824 87.6737L62.5647 88.0647C62.1593 88.4543 61.8261 88.9066 61.5738 89.4075L58.416 95.6636C58.0857 96.3171 57.4251 96.7224 56.6883 96.7224" fill="url(#paint10_linear_1927_3971)"/>
<path d="M67.0074 86.479L66.9314 85.9393L72.2733 85.2014C72.8068 85.1282 73.2266 84.7821 73.3962 84.2744C73.5656 83.7652 73.4375 83.2392 73.0533 82.8626L68.0359 77.9503C66.7464 76.688 66.1464 74.8219 66.4642 73.0518L67.6969 66.1621C67.7903 65.6345 67.5871 65.1314 67.1547 64.8143C66.9072 64.6344 66.6251 64.5429 66.3391 64.5429C66.1225 64.5429 65.9037 64.5963 65.6978 64.7015L59.4371 67.9215C58.6339 68.3346 57.7556 68.5405 56.8774 68.5405C55.977 68.5405 55.0775 68.324 54.2589 67.8894L48.0379 64.5978C47.8278 64.4865 47.6041 64.4316 47.3821 64.4316C47.1017 64.4316 46.8241 64.5201 46.5797 64.6939C46.1418 65.0064 45.9332 65.5065 46.0212 66.034L47.172 72.9374C47.2909 73.651 47.2685 74.3706 47.1046 75.0765L46.5708 74.9545C46.7183 74.3187 46.7387 73.6692 46.631 73.0259L45.4804 66.1224C45.3595 65.3967 45.6579 64.6801 46.2599 64.2517C46.5968 64.0124 46.9897 63.8904 47.3848 63.8904C47.6955 63.8904 48.0079 63.9651 48.2955 64.1176L54.517 67.4092C55.2547 67.801 56.0655 67.9962 56.8774 67.9962C57.6689 67.9962 58.4615 67.8102 59.1847 67.4382L65.4454 64.2182C65.7276 64.0733 66.0328 64.0017 66.3361 64.0017C66.7387 64.0017 67.1384 64.1267 67.4793 64.3752C68.0754 64.8128 68.3662 65.5324 68.2372 66.2566L67.0036 73.1463C66.7175 74.7426 67.2578 76.4257 68.4212 77.5616L73.4395 82.4754C73.7043 82.7361 73.8834 83.0563 73.9643 83.4008C74.0451 83.7378 74.0318 84.0976 73.9161 84.4452C73.6831 85.1435 73.0822 85.639 72.3484 85.7411L67.0074 86.479" fill="url(#paint11_linear_1927_3971)"/>
<path d="M43.0591 80.1897L42.679 79.7977L44.2166 78.3286L44.5971 78.7207L43.0591 80.1897" fill="url(#paint12_linear_1927_3971)"/>
<path d="M191.436 71.2915C190.634 71.2915 189.829 70.9259 189.315 70.1563L183.361 61.2204C182.898 60.524 182.119 60.0991 181.28 60.0852L170.488 59.8884C168.374 59.8484 167.223 57.4212 168.539 55.7792L175.263 47.3971C175.784 46.7459 175.951 45.8805 175.707 45.083L172.56 34.8344C172.039 33.135 173.37 31.5592 174.991 31.5592C175.284 31.5592 175.589 31.6114 175.894 31.7246L186.004 35.4804C186.294 35.5883 186.597 35.6423 186.897 35.6423C187.415 35.6423 187.925 35.4856 188.359 35.1844L197.209 29.0484C197.667 28.7297 198.17 28.587 198.66 28.587C200.023 28.587 201.284 29.6944 201.216 31.2353L200.742 41.9384C200.705 42.7707 201.084 43.5682 201.752 44.0697L210.368 50.526C212.053 51.7919 211.548 54.4263 209.512 54.987L199.109 57.846C198.3 58.0689 197.653 58.6713 197.377 59.4601L193.855 69.5869C193.467 70.6978 192.455 71.2915 191.436 71.2915V71.2915ZM186.788 60.9401L186.332 61.2413L189.308 65.7058C189.669 66.249 190.269 66.5659 190.915 66.5659C190.995 66.5659 191.078 66.5607 191.162 66.5502C191.527 66.505 191.86 66.3605 192.132 66.1428C192.409 65.9217 192.623 65.6239 192.744 65.2739L195.048 58.6609C195.579 57.1286 196.876 55.9202 198.451 55.4867L205.243 53.6201C205.957 53.4234 206.487 52.8522 206.626 52.1297C206.766 51.4071 206.484 50.6845 205.892 50.2405L200.267 46.0233C198.949 45.036 198.205 43.4689 198.279 41.8305L198.588 34.8396C198.619 34.1065 198.237 33.4292 197.588 33.0758C197.295 32.9156 196.976 32.8355 196.656 32.8355C196.269 32.8355 195.884 32.9521 195.551 33.1837L189.772 37.1919C189.234 37.5663 188.634 37.8275 187.994 37.9703L188.113 38.5013C188.823 38.3429 189.488 38.0521 190.087 37.6377L195.865 33.6295C196.107 33.4623 196.379 33.377 196.654 33.377C196.883 33.377 197.111 33.4362 197.325 33.5511C197.797 33.8088 198.063 34.2824 198.04 34.817L197.732 41.8079C197.649 43.6239 198.474 45.3616 199.937 46.4586L205.563 50.6758C205.992 50.9979 206.189 51.5028 206.089 52.0287C205.985 52.5528 205.617 52.9515 205.098 53.096L198.304 54.9626C196.558 55.4414 195.12 56.7856 194.528 58.4833L192.227 65.0963C192.051 65.6013 191.627 65.9443 191.093 66.0105C191.03 66.0192 190.969 66.0227 190.908 66.0227C190.446 66.0227 190.027 65.7998 189.765 65.4063L186.788 60.9401V60.9401ZM177.856 35.1983C177.375 35.1983 176.903 35.3776 176.537 35.7189C175.996 36.2221 175.794 36.9726 176.012 37.676L178.066 44.3692C178.547 45.938 178.221 47.6391 177.191 48.9224L172.802 54.3967C172.34 54.9713 172.249 55.7426 172.565 56.4078C172.881 57.0729 173.537 57.4943 174.277 57.5082L181.326 57.6371C181.891 57.6475 182.445 57.752 182.975 57.947L183.164 57.4351C182.576 57.2192 181.961 57.1043 181.336 57.0938L174.288 56.965C173.749 56.9545 173.291 56.6602 173.061 56.1762C172.832 55.6921 172.895 55.1541 173.231 54.7362L177.621 49.2602C178.761 47.8376 179.124 45.9502 178.591 44.2107L176.537 37.5176C176.379 37.0056 176.519 36.4815 176.912 36.1159C177.179 35.8704 177.51 35.7398 177.852 35.7398C178.015 35.7398 178.182 35.7694 178.345 35.8303L181.719 37.084L181.91 36.5738L178.536 35.3202C178.315 35.2383 178.084 35.1983 177.856 35.1983ZM181.91 36.5738L181.719 37.084L183.717 37.8257L183.91 37.3173L181.91 36.5738" fill="url(#paint13_linear_1927_3971)"/>
<path d="M182.976 57.947C182.444 57.7514 181.891 57.6477 181.326 57.6375L174.278 57.5083C173.536 57.4947 172.88 57.0729 172.565 56.4079C172.25 55.7413 172.34 54.9709 172.801 54.3961L177.191 48.9217C178.221 47.6395 178.548 45.9371 178.067 44.3691L176.012 37.6754C175.795 36.9731 175.997 36.2231 176.537 35.7197C176.903 35.3779 177.374 35.1976 177.856 35.1976C178.084 35.1976 178.315 35.2384 178.538 35.32L181.91 36.5734L181.72 37.0836L178.346 35.8302C178.183 35.769 178.017 35.7401 177.852 35.7401C177.51 35.7401 177.179 35.8693 176.912 36.1159C176.519 36.4816 176.379 37.0054 176.537 37.5173L178.591 44.211C179.124 45.9507 178.762 47.8384 177.621 49.2602L173.231 54.7362C172.896 55.1546 172.832 55.692 173.062 56.1766C173.291 56.6596 173.749 56.9539 174.287 56.9641L181.336 57.0933C181.961 57.1052 182.576 57.2191 183.164 57.4351L182.976 57.947" fill="url(#paint14_linear_1927_3971)"/>
<path d="M190.912 66.5667C190.269 66.5667 189.668 66.2511 189.307 65.7074L186.331 61.2412L186.787 60.9411L189.765 65.4072C190.026 65.8 190.446 66.023 190.907 66.023C190.968 66.023 191.03 66.0195 191.092 66.011C191.626 65.9441 192.051 65.6028 192.226 65.0968L194.529 58.485C195.118 56.7853 196.556 55.4424 198.303 54.9639L205.096 53.0961C205.616 52.9538 205.986 52.5541 206.088 52.0293C206.188 51.5045 205.991 50.9985 205.562 50.6761L199.936 46.4586C198.472 45.3626 197.648 43.6235 197.731 41.8089L198.04 34.8181C198.063 34.283 197.797 33.8113 197.323 33.5523C197.109 33.4357 196.881 33.3791 196.654 33.3791C196.378 33.3791 196.105 33.4631 195.865 33.6312L190.085 37.6395C189.487 38.0545 188.823 38.3444 188.111 38.5022L187.992 37.9705C188.633 37.8281 189.233 37.5674 189.77 37.1935L195.55 33.1853C195.884 32.9537 196.269 32.8371 196.656 32.8371C196.974 32.8371 197.294 32.916 197.587 33.0755C198.235 33.4306 198.619 34.1063 198.586 34.8421L198.277 41.8329C198.204 43.4691 198.947 45.0368 200.264 46.0247L205.892 50.2421C206.483 50.6846 206.765 51.4084 206.625 52.1305C206.487 52.8543 205.956 53.4237 205.243 53.6209L198.45 55.487C196.874 55.9209 195.578 57.1301 195.046 58.6617L192.744 65.2752C192.623 65.6251 192.407 65.9235 192.13 66.143C191.859 66.3608 191.526 66.5066 191.161 66.5512C191.078 66.5615 190.995 66.5667 190.912 66.5667" fill="url(#paint15_linear_1927_3971)"/>
<path d="M183.716 37.8271L181.718 37.0843L181.91 36.5749L183.909 37.3178L183.716 37.8271Z" fill="url(#paint16_linear_1927_3971)"/>
<path d="M221.027 99.3235C219.959 99.3235 218.904 98.6691 218.565 97.4864L215.594 87.187C215.363 86.3855 214.751 85.7489 213.954 85.4829L209.605 84.0341L203.722 82.0728C201.717 81.4043 201.355 78.7443 203.109 77.5722L212.062 71.5873C212.757 71.1209 213.178 70.3442 213.186 69.5125L213.293 58.7982C213.309 57.3069 214.543 56.2872 215.855 56.2872C216.389 56.2872 216.934 56.4557 217.414 56.8298L222.699 60.9333L225.917 63.4301C226.373 63.783 226.926 63.9692 227.489 63.9692C227.745 63.9692 228.002 63.9301 228.254 63.8521L238.552 60.6424C238.816 60.5591 239.077 60.5219 239.331 60.5219C241.012 60.5219 242.341 62.2101 241.712 63.9248L238.014 73.9901C237.726 74.7739 237.846 75.6464 238.332 76.3238L244.591 85.0537C245.798 86.7384 244.575 89.0543 242.518 89.0543C242.488 89.0543 242.454 89.0543 242.422 89.0525L237.807 88.8894L237.071 88.8628L231.634 88.673C231.606 88.6713 231.573 88.6695 231.545 88.6695C230.739 88.6695 229.978 89.049 229.496 89.6945L223.066 98.3003C222.542 98.9972 221.783 99.3235 221.027 99.3235V99.3235ZM218.949 87.9442L218.42 88.0932L219.905 93.2411C220.109 93.9468 220.688 94.4682 221.418 94.6012C221.534 94.6207 221.652 94.6313 221.768 94.6313C222.01 94.6313 222.245 94.587 222.467 94.5019C222.798 94.3724 223.092 94.1525 223.316 93.8564L227.514 88.2368C228.452 86.9795 229.976 86.2241 231.548 86.2241C231.607 86.2241 231.664 86.2241 231.722 86.2259L238.766 86.4741C238.79 86.4741 238.813 86.4759 238.836 86.4759C239.551 86.4759 240.197 86.0929 240.537 85.4669C240.889 84.8197 240.839 84.0447 240.41 83.4453L236.322 77.7442C235.366 76.4089 235.132 74.6906 235.697 73.1513L238.112 66.5777C238.366 65.8861 238.205 65.1271 237.693 64.5951C237.321 64.2086 236.819 64.0011 236.303 64.0011C236.108 64.0011 235.911 64.0312 235.718 64.0915L228.992 66.1876C228.502 66.3401 228.002 66.4163 227.493 66.4163C227.35 66.4163 227.205 66.411 227.059 66.3986L227.012 66.9395C227.173 66.9536 227.334 66.9607 227.495 66.9607C228.057 66.9607 228.615 66.8756 229.156 66.7071L235.883 64.6093C236.026 64.565 236.169 64.5437 236.31 64.5437C236.678 64.5437 237.028 64.6927 237.298 64.9711C237.669 65.3577 237.782 65.8879 237.596 66.3915L235.182 72.9651C234.555 74.6728 234.814 76.5773 235.876 78.0598L239.963 83.761C240.276 84.1972 240.31 84.7381 240.054 85.2098C239.806 85.6637 239.356 85.9315 238.838 85.9315C238.822 85.9315 238.804 85.9315 238.786 85.9315L231.741 85.6815C231.677 85.6797 231.613 85.6797 231.55 85.6797C229.806 85.6797 228.114 86.5202 227.075 87.9123L222.874 93.5301C222.606 93.8901 222.208 94.0887 221.776 94.0887C221.69 94.0887 221.602 94.0798 221.515 94.0656C220.986 93.9699 220.58 93.6046 220.432 93.0903L218.949 87.9442V87.9442ZM217.657 60.6389C217.372 60.6389 217.086 60.7027 216.816 60.8304C216.15 61.1496 215.73 61.804 215.723 62.5399L215.653 69.5356C215.637 71.1759 214.81 72.7009 213.439 73.6159L207.593 77.5261C206.979 77.9375 206.657 78.645 206.757 79.3738C206.857 80.1027 207.356 80.7003 208.058 80.9361L214.74 83.1634C215.274 83.3407 215.773 83.6067 216.219 83.949L216.553 83.5198C216.06 83.1386 215.506 82.846 214.913 82.6474L208.231 80.4201C207.72 80.2481 207.372 79.8314 207.3 79.3011C207.229 78.7709 207.452 78.2762 207.899 77.9783L213.745 74.0681C215.265 73.052 216.183 71.3603 216.201 69.5427L216.271 62.5452C216.276 62.0097 216.569 61.5522 217.055 61.3198C217.252 61.2276 217.457 61.1815 217.661 61.1815C217.961 61.1815 218.256 61.2808 218.508 61.4759L221.345 63.6783L221.683 63.251L218.846 61.0468C218.497 60.7772 218.079 60.6389 217.657 60.6389V60.6389ZM221.683 63.251L221.345 63.6783L223.026 64.9853L223.364 64.5561L221.683 63.251Z" fill="url(#paint17_linear_1927_3971)"/>
<path d="M216.218 83.9487C215.771 83.6063 215.275 83.3421 214.739 83.1643L208.057 80.9349C207.355 80.7001 206.857 80.1032 206.759 79.3742C206.658 78.6452 206.979 77.9374 207.593 77.5264L213.439 73.6173C214.808 72.7007 215.636 71.1759 215.653 69.5369L215.723 62.5389C215.73 61.805 216.149 61.1494 216.816 60.8298C217.085 60.7026 217.373 60.6389 217.657 60.6389C218.08 60.6389 218.497 60.7776 218.845 61.0467L221.683 63.2499L221.344 63.6789L218.508 61.4772C218.255 61.2799 217.961 61.1804 217.661 61.1804C217.457 61.1804 217.251 61.2277 217.054 61.3206C216.57 61.5522 216.277 62.0105 216.27 62.5454L216.201 69.5418C216.183 71.3602 215.265 73.053 213.745 74.0674L207.899 77.9782C207.452 78.2766 207.229 78.7708 207.301 79.3008C207.373 79.8308 207.721 80.2483 208.231 80.4196L214.913 82.6473C215.506 82.8446 216.06 83.1382 216.553 83.5198L216.218 83.9487Z" fill="url(#paint18_linear_1927_3971)"/>
<path d="M221.77 94.6318C221.653 94.6318 221.535 94.6214 221.419 94.6004C220.689 94.4676 220.11 93.947 219.905 93.2412L218.422 88.0942L218.95 87.944L220.434 93.0909C220.581 93.6045 220.986 93.9697 221.516 94.064C221.604 94.0798 221.692 94.0885 221.777 94.0885C222.21 94.0885 222.607 93.8893 222.875 93.5312L227.075 87.9125C228.115 86.5201 229.807 85.6797 231.551 85.6797C231.614 85.6797 231.678 85.6797 231.743 85.6815L238.787 85.9313C238.805 85.9313 238.822 85.9313 238.838 85.9313C239.356 85.9313 239.808 85.6623 240.055 85.208C240.31 84.7381 240.276 84.1964 239.965 83.7614L235.878 78.0589C234.816 76.5774 234.556 74.673 235.184 72.9661L237.597 66.3918C237.782 65.8887 237.671 65.3575 237.298 64.9714C237.029 64.6919 236.679 64.5434 236.311 64.5434C236.17 64.5434 236.025 64.5661 235.883 64.6098L229.157 66.7063C228.615 66.874 228.059 66.9596 227.496 66.9596C227.335 66.9596 227.173 66.9526 227.013 66.9404L227.061 66.3971C227.205 66.4093 227.349 66.4163 227.494 66.4163C228.002 66.4163 228.504 66.3394 228.992 66.1874L235.719 64.0909C235.911 64.0297 236.108 64 236.304 64C236.821 64 237.323 64.2079 237.694 64.5958C238.206 65.1269 238.367 65.8869 238.113 66.577L235.698 73.1513C235.133 74.6905 235.367 76.4079 236.323 77.7444L240.41 83.4452C240.84 84.0444 240.889 84.8184 240.539 85.4666C240.197 86.0938 239.551 86.4747 238.837 86.4747C238.814 86.4747 238.791 86.4747 238.768 86.4747L231.724 86.2266C231.665 86.2231 231.607 86.2231 231.549 86.2231C229.977 86.2231 228.453 86.9796 227.515 88.2357L223.317 93.8561C223.093 94.1531 222.799 94.3733 222.468 94.5008C222.247 94.5864 222.011 94.6318 221.77 94.6318" fill="url(#paint19_linear_1927_3971)"/>
<path d="M223.028 64.9827L221.346 63.678L221.685 63.2497L223.365 64.5543L223.028 64.9827Z" fill="url(#paint20_linear_1927_3971)"/>
<path d="M140.62 261.994C118.76 261.994 98.6258 254.679 82.5606 242.378C63.5542 227.825 50.2442 206.291 46.5311 181.649C45.8384 177.053 45.4797 172.35 45.4797 167.563C45.4797 150.215 50.1923 133.96 58.4174 119.99C58.9153 119.144 59.4257 118.308 59.9487 117.479C65.9512 107.974 73.6122 99.6062 82.5279 92.7743C98.5979 80.4596 118.747 73.1333 140.62 73.1333C164.724 73.1333 186.734 82.0303 203.501 96.6966C213.871 105.769 222.231 117.043 227.842 129.788C228.738 131.823 229.564 133.898 230.317 136.004C233.841 145.873 235.759 156.495 235.759 167.563C235.759 190.189 227.743 210.953 214.376 227.216C211.867 230.268 209.165 233.165 206.298 235.883C189.275 252.01 166.24 261.932 140.864 261.994C140.785 261.994 140.7 261.994 140.62 261.994ZM140.62 76.2729C89.8227 76.2729 48.6432 117.144 48.6432 167.563C48.6432 217.982 89.8227 258.854 140.62 258.854C191.416 258.854 232.596 217.982 232.596 167.563C232.596 117.144 191.416 76.2729 140.62 76.2729" fill="url(#paint21_linear_1927_3971)"/>
<path d="M140.619 258.854C89.8222 258.854 48.6428 217.982 48.6428 167.564C48.6428 117.145 89.8222 76.2744 140.619 76.2744C191.415 76.2744 232.595 117.145 232.595 167.564C232.595 217.982 191.415 258.854 140.619 258.854V258.854ZM142.623 92.2867C99.6298 92.2867 64.7769 126.881 64.7769 169.553C64.7769 212.226 99.6298 246.819 142.623 246.819C185.616 246.819 220.469 212.226 220.469 169.553C220.469 126.881 185.616 92.2867 142.623 92.2867V92.2867ZM57.0649 151.643C56.6499 151.643 56.285 151.935 56.2089 152.353C55.5704 155.867 55.1514 159.465 54.9628 163.048C54.9376 163.524 55.3065 163.93 55.787 163.956C55.8024 163.957 55.8178 163.957 55.8332 163.957C56.2935 163.957 56.6778 163.598 56.7019 163.137C56.8867 159.628 57.297 156.102 57.923 152.66C58.0078 152.19 57.6939 151.741 57.22 151.656C57.168 151.646 57.1161 151.643 57.0649 151.643ZM140.619 82.4288C108.047 82.4288 78.6878 100.369 63.9988 129.252C63.7821 129.678 63.9545 130.197 64.3839 130.413C64.5101 130.476 64.644 130.506 64.776 130.506C65.0937 130.506 65.4008 130.331 65.5541 130.031C79.9445 101.735 108.707 84.1566 140.619 84.1566C145.711 84.1566 150.812 84.6115 155.78 85.5111C155.834 85.5212 155.889 85.5263 155.944 85.5263C156.356 85.5263 156.717 85.231 156.794 84.8152C156.879 84.345 156.566 83.8952 156.093 83.8104C151.022 82.8938 145.815 82.4288 140.619 82.4288" fill="url(#paint22_linear_1927_3971)"/>
<path d="M55.8343 163.956C55.8184 163.956 55.8025 163.956 55.7876 163.955C55.3065 163.929 54.9378 163.523 54.9626 163.047C55.1515 159.465 55.5709 155.867 56.209 152.352C56.2855 151.935 56.6503 151.642 57.0657 151.642C57.1164 151.642 57.1691 151.646 57.2208 151.656C57.6949 151.74 58.009 152.189 57.9245 152.66C57.2983 156.102 56.8878 159.626 56.703 163.136C56.6781 163.597 56.2945 163.956 55.8343 163.956Z" fill="url(#paint23_linear_1927_3971)"/>
<path d="M64.7763 130.505C64.6444 130.505 64.5105 130.476 64.3844 130.412C63.9548 130.198 63.7824 129.677 63.9991 129.252C78.6882 100.369 108.048 82.4279 140.619 82.4279C145.816 82.4279 151.022 82.8921 156.092 83.8106C156.567 83.8952 156.879 84.3439 156.794 84.8137C156.717 85.2299 156.356 85.5248 155.944 85.5248C155.89 85.5248 155.835 85.5205 155.781 85.5093C150.813 84.6105 145.711 84.1562 140.619 84.1562C108.707 84.1562 79.945 101.734 65.5544 130.03C65.4013 130.332 65.0941 130.505 64.7763 130.505Z" fill="url(#paint24_linear_1927_3971)"/>
<path d="M142.624 246.819C99.6303 246.819 64.7773 212.226 64.7773 169.553C64.7773 126.879 99.6303 92.2861 142.624 92.2861C185.618 92.2861 220.47 126.879 220.47 169.553C220.47 212.226 185.618 246.819 142.624 246.819" fill="url(#paint25_linear_1927_3971)"/>
<path d="M166.457 140.357C166.457 153.439 155.771 167.564 142.59 167.564C129.409 167.564 118.723 153.439 118.723 140.357C118.723 127.274 129.409 117.992 142.59 117.992C155.771 117.992 166.457 127.274 166.457 140.357Z" fill="url(#paint26_linear_1927_3971)"/>
<path d="M112.971 217.935H171.233C177.366 217.935 182.797 214.001 184.666 208.203L187.801 198.477C190.096 191.355 186.364 183.645 179.289 181.078C155.578 172.473 131.061 173.577 105.945 181.872C98.9077 184.196 95.0039 191.666 96.9453 198.77L99.3596 207.602C101.026 213.701 106.604 217.935 112.971 217.935" fill="url(#paint27_linear_1927_3971)"/>
<path d="M33.4831 191.139C32.2174 192.479 30.354 193.638 29.0427 194.361C31.001 196.763 33.6509 199.169 37.1589 201.524L38.1629 203.761L41.3798 199.934C41.3798 199.934 35.6077 197.082 33.4831 191.139" fill="url(#paint28_linear_1927_3971)"/>
<path d="M50.6976 263.717C50.6986 263.649 50.6947 263.58 50.6764 263.51C49.6349 259.41 44.4636 256.856 44.4636 256.856L42.4143 257.016C41.2361 260.629 41.3875 262.846 41.5767 263.833C41.5819 263.861 41.5904 263.887 41.5978 263.913C43.2882 264.063 46.7675 264.161 50.6976 263.717" fill="url(#paint29_linear_1927_3971)"/>
<path d="M41.5977 263.913C41.689 264.243 41.9341 264.5 42.248 264.565C44.6526 265.067 48.4745 264.664 50.0791 264.455C50.4336 264.409 50.6917 264.084 50.6975 263.717C46.7674 264.161 43.2881 264.063 41.5977 263.913Z" fill="url(#paint30_linear_1927_3971)"/>
<path d="M41.5903 253.986L42.4585 258.133C42.5221 258.437 42.7574 258.665 43.0425 258.691C43.3913 258.724 43.8879 258.743 44.3874 258.669C44.8353 258.604 45.1471 258.153 45.0677 257.669L44.4643 253.986H41.5903" fill="url(#paint31_linear_1927_3971)"/>
<path d="M59.5728 263.872C57.3097 263.809 56.1387 263.544 55.5339 263.299C55.532 263.523 55.5339 263.75 55.5406 263.985C55.5483 264.237 55.7361 264.438 55.9673 264.436L68.3942 264.357C68.79 264.354 69.022 263.897 68.8506 263.537C67.2212 263.671 63.0715 263.969 59.5728 263.872Z" fill="url(#paint32_linear_1927_3971)"/>
<path d="M68.8507 263.537C68.8353 263.505 68.8227 263.474 68.8016 263.444C67.7037 261.921 64.909 258.891 59.3851 257.576L56.7358 257.494C56.7358 257.494 55.5561 259.529 55.5339 263.299C56.1387 263.544 57.3098 263.809 59.5729 263.872C63.0715 263.969 67.2212 263.671 68.8507 263.537Z" fill="url(#paint33_linear_1927_3971)"/>
<path d="M56.2446 253.508C56.2745 253.704 56.6376 256.683 56.7783 257.839C56.811 258.113 57.0114 258.326 57.2647 258.355C57.7155 258.409 58.4457 258.457 59.0844 258.327C59.4292 258.258 59.6787 257.929 59.6787 257.547V252.871L56.2446 253.508" fill="url(#paint34_linear_1927_3971)"/>
<path d="M54.1193 199.136C54.1193 199.136 60.51 223.242 60.3944 253.577C60.3915 254.13 60.0005 254.607 59.4555 254.721C58.6523 254.889 57.4707 255.089 56.4932 255.061C55.9712 255.047 55.535 254.663 55.4474 254.151C54.5508 248.936 49.4086 219.553 46.4787 214.784C46.4787 214.784 44.551 240.953 45.1672 254.53C45.1824 254.867 44.9334 255.16 44.5952 255.199C44.0822 255.258 43.2614 255.302 42.2168 255.192C41.8204 255.15 41.5005 254.853 41.4439 254.461C40.8056 250.047 37.1319 223.772 37.288 204.845C37.2969 203.777 40.1319 199.136 40.1319 199.136H54.1193Z" fill="url(#paint35_linear_1927_3971)"/>
<path d="M63.007 169.963C61.9698 168.673 61.0607 167.289 60.3009 165.864C59.2396 163.873 60.2152 167.153 59.9253 164.905C51.9765 159.211 40.0061 162.092 35.3759 162.672C33.8577 162.862 32.4692 163.605 31.4687 164.754C27.5012 169.311 18.7947 181.788 29.0425 194.361C30.3537 193.638 32.2172 192.479 33.4829 191.139C32.3492 187.966 32.2563 183.913 34.6324 178.942C34.7136 179.336 34.8139 179.726 34.9358 180.11C38.2107 190.408 38.3854 198.977 38.3782 200.952C38.3771 201.219 38.5393 201.461 38.7902 201.56C43.1002 203.275 51.3967 202.254 54.1818 201.842C54.6922 201.767 55.036 201.296 54.9657 200.788C53.5982 190.959 60.6139 174.79 62.4667 170.74C62.5996 170.449 62.7836 170.187 63.007 169.963" fill="url(#paint36_linear_1927_3971)"/>
<path d="M42.8258 154.395L41.9951 162.818C41.9951 162.818 46.7694 164.245 50.2415 161.814L47.8008 154.158L42.8258 154.395Z" fill="url(#paint37_linear_1927_3971)"/>
<path d="M48.3656 144.794C48.4806 144.902 53.2155 154.129 53.2155 154.129L47.8488 156.7L42.0522 148.617C42.0522 148.617 46.442 142.997 48.3656 144.794Z" fill="url(#paint38_linear_1927_3971)"/>
<path d="M44.4264 148.841C44.3306 149.086 44.3542 149.36 44.4908 149.587L47.1671 154.014C47.2078 154.082 47.2561 154.143 47.3139 154.195C47.6325 154.491 48.7226 155.346 49.5652 154.181C50.2837 153.187 50.9579 152.284 51.6792 151.912C52.101 151.695 52.62 151.868 52.8339 152.289C53.275 153.156 54.1291 154.925 54.6655 156.602C54.8004 157.021 54.5818 157.473 54.1705 157.639C53.0833 158.076 50.9357 158.866 49.0303 159.127C48.7172 159.17 48.4073 159.038 48.2211 158.785C47.4011 157.67 45.0902 154.555 44.3016 153.775C43.5688 153.051 42.2165 153.324 41.6071 153.498C41.3759 153.564 41.1295 153.531 40.9234 153.408C40.305 153.039 39.2262 152.118 40.2132 150.559C40.4587 150.173 40.3335 149.656 39.9483 149.405C39.258 148.954 38.5089 148.108 39.2226 146.738C39.945 145.351 41.2351 145.227 42.1137 145.334C42.5025 145.381 42.8971 145.178 43.0463 144.819C43.1126 144.659 43.2437 144.523 43.4879 144.474C43.9483 144.382 44.2508 143.963 44.1604 143.506C44.0055 142.721 44.1221 141.7 45.3844 141.012C47.6998 139.749 49.728 141.808 50.2433 143.546C50.7595 145.284 48.1707 146.511 46.5422 146.716C45.3461 146.868 44.6903 148.163 44.4264 148.841" fill="url(#paint39_linear_1927_3971)"/>
<path d="M45.3072 155.401C45.3072 155.401 44.2776 152.411 42.9599 152.521C41.6419 152.631 40.6047 153.933 42.238 155.399C44.2695 157.22 45.3072 155.401 45.3072 155.401Z" fill="url(#paint40_linear_1927_3971)"/>
<path d="M34.1979 178.172C32.4603 173.453 33.0906 167.755 33.0973 167.698L33.5759 167.753C33.5697 167.808 32.9527 173.397 34.6507 178.007L34.1979 178.172Z" fill="url(#paint41_linear_1927_3971)"/>
<path d="M46.2436 214.169C46.1365 214.169 46.0385 214.097 46.0106 213.989C45.4806 211.961 41.5122 209.731 41.4723 209.709C41.3562 209.644 41.3148 209.499 41.38 209.383C41.4452 209.268 41.5913 209.227 41.708 209.292C41.8787 209.387 45.8957 211.644 46.477 213.87C46.5103 213.997 46.433 214.128 46.3043 214.161C46.284 214.166 46.2636 214.169 46.2436 214.169" fill="url(#paint42_linear_1927_3971)"/>
<path d="M79.1425 172.612C70.1517 173.951 64.2917 168.32 59.9253 164.905C54.1606 160.395 49.6741 162.589 49.6741 162.589L55.8218 174.236C65.0033 182.828 74.4169 180.92 80.3521 178.136C80.4436 175.885 79.8378 174.003 79.1425 172.612" fill="url(#paint43_linear_1927_3971)"/>
<path d="M91.7794 167.287L88.7979 168.881C85.2222 171.041 82.022 172.183 79.1426 172.611C79.8379 174.003 80.4436 175.885 80.3521 178.135C84.1301 176.362 86.4982 174.235 86.4982 174.235C93.2528 170.238 91.7794 167.287 91.7794 167.287Z" fill="url(#paint44_linear_1927_3971)"/>
<path d="M100.562 171.458C100.37 170.823 99.8967 170.309 99.2765 170.061L93.2258 167.647C93.2258 167.647 93.1343 166.876 94.5047 166.353C95.8741 165.83 95.5544 164.307 95.5544 164.307C95.5544 164.307 93.6823 165.154 90.9425 166.498C89.3756 167.266 88.4973 168.624 88.0303 169.645L89.5884 171.678C93.3173 172.79 97.0914 173.002 100.897 172.562L100.562 171.458" fill="url(#paint45_linear_1927_3971)"/>
<path d="M84.0432 119.579C93.2719 121.586 102.851 128.341 102.962 138.516C103.057 147.169 93.5299 150.946 87.6704 152.609C86.0357 153.074 84.6311 154.115 83.7158 155.537C81.5273 158.942 76.6464 164.771 70.1182 162.143C69.6425 161.951 69.7523 161.25 70.2637 161.206C71.8903 161.062 74.1562 160.536 75.5227 158.827C77.384 156.499 76.1498 153.033 73.2549 152.274C67.7762 150.839 57.2089 146.374 56.7947 133.24C56.2343 115.48 84.0432 119.579 84.0432 119.579" fill="#91B3FA"/>
<path d="M80.4878 134.256C80.4878 134.256 79.2922 128.448 73.5281 130.171C68.0692 131.804 70.8401 139.151 79.3265 142.967C80.2473 143.38 81.3124 143.322 82.1839 142.815C85.4456 140.916 92.9425 135.715 87.7568 130.489C84.4057 127.115 80.4878 134.256 80.4878 134.256" fill="white"/>
<path d="M98.6396 131.697C98.7144 131.688 98.7868 131.663 98.8556 131.623C99.1273 131.465 99.2187 131.119 99.0585 130.848C94.7868 123.612 86.5079 121.209 80.3151 120.466C80.0018 120.428 79.7182 120.651 79.6802 120.962C79.6423 121.272 79.8653 121.554 80.1786 121.592C86.1151 122.303 94.038 124.586 98.0748 131.422C98.1935 131.623 98.4201 131.724 98.6396 131.697" fill="white"/>
<path d="M100.951 139.345C101.227 139.31 101.443 139.078 101.447 138.792C101.448 138.746 101.463 137.631 101.086 135.958C101.018 135.652 100.714 135.459 100.406 135.527C100.097 135.595 99.9035 135.898 99.9713 136.203C100.318 137.747 100.306 138.764 100.306 138.774C100.302 139.087 100.552 139.344 100.867 139.349C100.896 139.35 100.923 139.348 100.951 139.345" fill="white"/>
<path d="M226.236 142.676C226.236 142.676 213.339 159.067 228.054 175.737L233.586 175.226C233.586 175.226 222.936 158.253 227.679 144.723L235.516 145.292L239.85 142.487L226.236 142.676Z" fill="url(#paint46_linear_1927_3971)"/>
<path d="M188.198 105.826L249.441 102.688C250.643 102.626 251.655 103.346 251.69 104.286L253.074 141.097C253.109 142.043 252.143 142.844 250.933 142.869C239.846 143.1 190.615 144.135 188.447 144.302C186.305 144.466 186.145 114.854 186.138 107.546C186.136 106.642 187.045 105.884 188.198 105.826" fill="url(#paint47_linear_1927_3971)"/>
<path d="M249.543 104.381H249.536L188.292 107.519C188.261 107.52 188.245 107.531 188.243 107.535C188.265 125.293 188.851 138.963 189.742 142.552C198.257 142.276 242.149 141.357 250.918 141.174L250.925 141.173L249.58 104.37C249.58 104.384 249.567 104.381 249.543 104.381V104.381ZM189.431 142.967L189.389 142.812C188.466 139.448 187.858 125.592 187.842 107.513C187.842 107.301 188.03 107.127 188.27 107.115L249.516 103.977C249.662 103.97 249.766 104.02 249.826 104.064C249.925 104.134 249.983 104.238 249.989 104.355L251.37 141.164C251.38 141.382 251.186 141.567 250.94 141.577L250.929 141.578C242.105 141.762 197.689 142.693 189.592 142.961L189.431 142.967" fill="#91B3FA"/>
<path d="M228.228 110.085C228.271 111.016 228.616 111.756 229.002 111.74L246.026 110.986C246.411 110.97 246.689 110.201 246.646 109.271C246.605 108.34 246.26 107.6 245.873 107.616L228.852 108.37C228.465 108.386 228.187 109.155 228.228 110.085Z" fill="#BDD0FB"/>
<path d="M228.303 114.669C228.325 115.135 228.654 115.497 229.038 115.481L246.061 114.728C246.446 114.71 246.742 114.32 246.721 113.854C246.699 113.389 246.372 113.025 245.986 113.043L228.963 113.796C228.578 113.813 228.282 114.204 228.303 114.669Z" fill="#BDD0FB"/>
<path d="M228.303 118.179C228.325 118.645 228.654 119.007 229.038 118.991L246.061 118.238C246.446 118.22 246.742 117.83 246.721 117.364C246.699 116.899 246.372 116.535 245.986 116.553L228.963 117.306C228.578 117.323 228.282 117.714 228.303 118.179Z" fill="#BDD0FB"/>
<path d="M203.713 125.757L205.025 136.981C207.877 136.98 218.315 136.932 220.905 136.34C222.745 135.919 223.69 134.956 223.702 134.535C223.707 134.373 223.399 134.175 222.94 134.043C222.563 133.935 222.317 133.575 222.354 133.187C222.393 132.801 222.701 132.495 223.092 132.46C223.653 132.408 224.246 131.775 224.386 131.076C224.49 130.57 224.403 129.859 223.413 129.339C223.162 129.208 222.999 128.958 222.979 128.677C222.96 128.399 223.089 128.129 223.319 127.966C223.323 127.961 224.174 127.32 224.151 126.544C224.128 125.792 223.293 125.104 222.596 124.66C222.356 124.507 222.214 124.24 222.221 123.959C222.229 123.677 222.382 123.418 222.631 123.277C222.671 123.252 223.742 122.606 223.57 121.539C223.44 120.733 223.291 119.82 220.313 120.163C219.736 120.229 219.136 120.32 218.552 120.411C216.374 120.746 214.654 121.012 213.749 120.201C213.497 119.976 213.203 119.566 213.236 118.898C213.261 118.383 213.412 117.748 213.585 117.012C214.023 115.159 214.621 112.621 213.395 110.937C212.919 110.283 212.45 109.93 212.168 110.019C211.872 110.112 211.64 110.591 211.636 110.76C211.688 111.188 212.076 115.184 209.653 117.93C208.637 119.081 208.061 120.592 207.555 121.926C207.042 123.274 206.637 124.336 205.86 124.847C205.11 125.341 204.297 125.611 203.713 125.757V125.757ZM204.982 138.601C204.601 138.601 204.362 138.601 204.295 138.599C203.883 138.599 203.537 138.291 203.489 137.883L202.006 125.2C201.981 124.986 202.043 124.769 202.18 124.602C202.315 124.433 202.51 124.326 202.727 124.302C202.739 124.3 203.955 124.157 204.962 123.498C205.297 123.276 205.686 122.255 206.029 121.355C206.558 119.966 207.216 118.235 208.425 116.864C210.384 114.642 210.06 111.302 210.017 110.927C209.92 110.109 210.558 108.902 211.556 108.519C212.166 108.282 213.387 108.161 214.716 109.989C216.379 112.272 215.654 115.346 215.173 117.382C215.023 118.013 214.883 118.61 214.864 118.979C214.863 119.023 214.866 119.041 214.866 119.041C215.198 119.289 217.141 118.991 218.301 118.812C218.907 118.719 219.527 118.623 220.126 118.555C222.236 118.311 224.715 118.403 225.18 121.283C225.372 122.473 224.861 123.362 224.345 123.932C225.276 124.724 225.757 125.588 225.781 126.511C225.803 127.346 225.428 128.036 225.048 128.517C225.863 129.271 226.208 130.293 225.986 131.394C225.833 132.157 225.418 132.843 224.866 133.33C225.287 133.804 225.34 134.308 225.332 134.58C225.293 135.985 223.585 137.389 221.27 137.918C218.468 138.558 207.827 138.601 204.982 138.601Z" fill="url(#paint48_linear_1927_3971)"/>
<path d="M233.301 222.925C233.301 222.925 243.751 245.531 249.233 254.895C249.233 254.895 250.323 260.787 249.233 262.64L248.305 263.049L252.636 262.921C252.636 262.921 253.021 254.996 252.72 254.554C252.421 254.111 251.82 254.14 251.82 254.14C251.82 254.14 249.962 239.535 244.584 236.419L239.371 218.599L233.301 222.925" fill="url(#paint49_linear_1927_3971)"/>
<path d="M246.457 264.159C246.45 264.263 249.838 264.215 251.679 264.182C252.36 264.169 252.939 263.695 253.083 263.036L254.473 255.788C254.606 255.098 254.165 254.429 253.475 254.273L252.701 254.098C252.701 254.098 251.594 255.604 251.943 257.023C252.291 258.442 252.601 262.118 251.72 262.546C250.84 262.975 248.307 263.049 248.307 263.049C248.307 263.049 246.514 263.226 246.457 264.159Z" fill="url(#paint50_linear_1927_3971)"/>
<path d="M223.396 264.291C223.052 264.485 223.195 265.004 223.589 265C226.669 264.969 233.572 264.872 234.185 264.62C234.977 264.293 233.896 261.468 232.76 260.512L226.481 262.546L223.396 264.291" fill="url(#paint51_linear_1927_3971)"/>
<path d="M221.448 221.483C221.448 221.483 228.201 253.909 230.111 260.234L225.592 263.049C225.592 263.049 227.857 262.667 229.536 262.546C231.214 262.425 232.759 260.512 232.759 260.512L232.219 259.655C232.219 259.655 230.525 227.405 230.937 223.743L221.448 221.483Z" fill="url(#paint52_linear_1927_3971)"/>
<path d="M204.682 145.849C204.682 145.849 203.751 162.717 219.224 171.336L215.499 179.769C215.499 179.769 201.49 171.359 202.009 148.421C202.024 147.764 201.784 147.125 201.351 146.626L198.374 143.199C197.239 141.891 196.816 140.12 197.237 138.448L197.63 136.892C197.76 136.372 198.357 136.121 198.826 136.391L199.137 136.57C200.127 137.142 200.912 138.009 201.381 139.048L202.843 142.291C203.388 143.501 204.648 144.238 205.98 144.123L206.885 144.045L204.682 145.849" fill="url(#paint53_linear_1927_3971)"/>
<path d="M218.685 170.072C221.274 170.785 230.043 173.074 235.517 172.981L232.157 191.808L232.423 194.879L221.464 194.83C221.464 194.83 218.379 187.719 215.945 184.173C215.241 183.149 215.765 181.927 216.164 180.754L215.616 180.391C215.058 180.023 214.818 179.332 215.025 178.7L217.695 170.596C217.833 170.188 218.267 169.957 218.685 170.072" fill="url(#paint54_linear_1927_3971)"/>
<path d="M220.587 193.223L220.801 195.083C220.801 195.083 217.704 204.289 222.35 225.791C222.35 225.791 232.411 228.62 240.682 221.85C240.682 221.85 238.349 201.556 237.712 200.61C234.539 195.902 232.424 194.879 232.424 194.879L232.329 192.846C232.329 192.846 223.485 194.433 220.587 193.223" fill="url(#paint55_linear_1927_3971)"/>
<path d="M224.876 171.589C224.839 171.539 227.164 164.617 227.164 164.617L230.496 164.917L231.799 172.77C231.799 172.77 226.576 173.816 224.876 171.589" fill="url(#paint56_linear_1927_3971)"/>
<path d="M229.699 153.704C229.475 153.841 222.577 156.671 224.059 163.779C224.148 164.199 224.429 164.556 224.824 164.731C225.837 165.178 228.017 165.945 230.623 165.683C234.237 165.318 236.606 159.058 236.503 157.238C236.404 155.416 231.901 152.343 229.699 153.704Z" fill="url(#paint57_linear_1927_3971)"/>
<path d="M231.799 150.939C231.619 150.963 227.813 152.278 229.701 155.016C231.588 157.752 232.296 159.363 231.403 160.566C230.589 161.66 228.788 161.036 228.944 163.314C228.977 163.771 228.777 164.213 228.397 164.469C226.699 165.61 222.557 169.119 226.661 174.126C226.993 174.533 227.064 175.094 226.804 175.552C225.604 177.692 223.08 183.96 232.218 187.436C241.25 190.872 244.511 185.012 245.421 182.671C245.617 182.164 246.121 181.854 246.667 181.88C247.659 181.926 249.066 181.762 249.001 180.446C248.961 179.646 248.459 178.93 247.864 178.356C247.276 177.787 247.394 176.792 248.107 176.39C248.646 176.086 249.122 175.611 249.324 174.871C249.871 172.858 248.78 166.839 242.966 165.819C242.482 165.734 241.974 165.283 241.903 164.799L241.901 164.777C241.823 164.31 241.981 163.832 242.367 163.551C243.296 162.875 244.486 161.515 243.519 159.332C242.661 157.398 241.016 156.745 239.796 156.537C239.078 156.415 238.606 155.741 238.757 155.035C239.17 153.11 238.809 150.027 231.799 150.939" fill="url(#paint58_linear_1927_3971)"/>
<defs>
<linearGradient id="paint0_linear_1927_3971" x1="622.892" y1="221.365" x2="229.687" y2="-125.273" gradientUnits="userSpaceOnUse">
<stop stop-color="#DAE3FE"/>
<stop offset="1" stop-color="#E9EFFD"/>
</linearGradient>
<linearGradient id="paint1_linear_1927_3971" x1="285.128" y1="-272.738" x2="421.846" y2="-110.354" gradientUnits="userSpaceOnUse">
<stop stop-color="#FF928E"/>
<stop offset="1" stop-color="#FE7062"/>
</linearGradient>
<linearGradient id="paint2_linear_1927_3971" x1="265.018" y1="-237.217" x2="393.437" y2="-84.6903" gradientUnits="userSpaceOnUse">
<stop stop-color="#FFDAD8"/>
<stop offset="1" stop-color="#FFCEC9"/>
</linearGradient>
<linearGradient id="paint3_linear_1927_3971" x1="278.977" y1="-261.873" x2="413.156" y2="-102.504" gradientUnits="userSpaceOnUse">
<stop stop-color="#FFDAD8"/>
<stop offset="1" stop-color="#FFCEC9"/>
</linearGradient>
<linearGradient id="paint4_linear_1927_3971" x1="265.502" y1="-238.006" x2="394.1" y2="-85.2274" gradientUnits="userSpaceOnUse">
<stop stop-color="#FFDAD8"/>
<stop offset="1" stop-color="#FFCEC9"/>
</linearGradient>
<linearGradient id="paint5_linear_1927_3971" x1="168.68" y1="-188.571" x2="320.413" y2="-102.274" gradientUnits="userSpaceOnUse">
<stop stop-color="#FF928E"/>
<stop offset="1" stop-color="#FE7062"/>
</linearGradient>
<linearGradient id="paint6_linear_1927_3971" x1="153.853" y1="-153.993" x2="295.114" y2="-73.6521" gradientUnits="userSpaceOnUse">
<stop stop-color="#FFDAD8"/>
<stop offset="1" stop-color="#FFCEC9"/>
</linearGradient>
<linearGradient id="paint7_linear_1927_3971" x1="165.151" y1="-180.34" x2="314.391" y2="-95.4603" gradientUnits="userSpaceOnUse">
<stop stop-color="#FFDAD8"/>
<stop offset="1" stop-color="#FFCEC9"/>
</linearGradient>
<linearGradient id="paint8_linear_1927_3971" x1="154.699" y1="-155.924" x2="296.562" y2="-75.2209" gradientUnits="userSpaceOnUse">
<stop stop-color="#FFDAD8"/>
<stop offset="1" stop-color="#FFCEC9"/>
</linearGradient>
<linearGradient id="paint9_linear_1927_3971" x1="82.9425" y1="-75.7401" x2="226.128" y2="-36.616" gradientUnits="userSpaceOnUse">
<stop stop-color="#FF928E"/>
<stop offset="1" stop-color="#FE7062"/>
</linearGradient>
<linearGradient id="paint10_linear_1927_3971" x1="72.773" y1="-45.1603" x2="204.678" y2="-9.11866" gradientUnits="userSpaceOnUse">
<stop stop-color="#FFDAD8"/>
<stop offset="1" stop-color="#FFCEC9"/>
</linearGradient>
<linearGradient id="paint11_linear_1927_3971" x1="80.905" y1="-69.6135" x2="221.83" y2="-31.1071" gradientUnits="userSpaceOnUse">
<stop stop-color="#FFDAD8"/>
<stop offset="1" stop-color="#FFCEC9"/>
</linearGradient>
<linearGradient id="paint12_linear_1927_3971" x1="73.5317" y1="-47.4172" x2="206.299" y2="-11.13" gradientUnits="userSpaceOnUse">
<stop stop-color="#FFDAD8"/>
<stop offset="1" stop-color="#FFCEC9"/>
</linearGradient>
<linearGradient id="paint13_linear_1927_3971" x1="373.504" y1="-210.429" x2="403.141" y2="-47.3726" gradientUnits="userSpaceOnUse">
<stop stop-color="#FF928E"/>
<stop offset="1" stop-color="#FE7062"/>
</linearGradient>
<linearGradient id="paint14_linear_1927_3971" x1="363.73" y1="-198.251" x2="392.676" y2="-38.9927" gradientUnits="userSpaceOnUse">
<stop stop-color="#FFDAD8"/>
<stop offset="1" stop-color="#FFCEC9"/>
</linearGradient>
<linearGradient id="paint15_linear_1927_3971" x1="367.22" y1="-202.599" x2="396.413" y2="-41.9849" gradientUnits="userSpaceOnUse">
<stop stop-color="#FFDAD8"/>
<stop offset="1" stop-color="#FFCEC9"/>
</linearGradient>
<linearGradient id="paint16_linear_1927_3971" x1="361.738" y1="-195.714" x2="390.534" y2="-37.2444" gradientUnits="userSpaceOnUse">
<stop stop-color="#FFDAD8"/>
<stop offset="1" stop-color="#FFCEC9"/>
</linearGradient>
<linearGradient id="paint17_linear_1927_3971" x1="461.121" y1="-168.335" x2="440.322" y2="-0.858821" gradientUnits="userSpaceOnUse">
<stop stop-color="#FF928E"/>
<stop offset="1" stop-color="#FE7062"/>
</linearGradient>
<linearGradient id="paint18_linear_1927_3971" x1="420.372" y1="-129.717" x2="401.244" y2="24.3055" gradientUnits="userSpaceOnUse">
<stop stop-color="#FFDAD8"/>
<stop offset="1" stop-color="#FFCEC9"/>
</linearGradient>
<linearGradient id="paint19_linear_1927_3971" x1="453.624" y1="-161.23" x2="433.133" y2="3.77109" gradientUnits="userSpaceOnUse">
<stop stop-color="#FFDAD8"/>
<stop offset="1" stop-color="#FFCEC9"/>
</linearGradient>
<linearGradient id="paint20_linear_1927_3971" x1="423.354" y1="-132.492" x2="404.11" y2="22.4982" gradientUnits="userSpaceOnUse">
<stop stop-color="#FFDAD8"/>
<stop offset="1" stop-color="#FFCEC9"/>
</linearGradient>
<linearGradient id="paint21_linear_1927_3971" x1="55.4514" y1="321.647" x2="282.657" y2="55.9451" gradientUnits="userSpaceOnUse">
<stop stop-color="#E1473D"/>
<stop offset="1" stop-color="#E9605A"/>
</linearGradient>
<linearGradient id="paint22_linear_1927_3971" x1="408.19" y1="-238.95" x2="188.721" y2="295.131" gradientUnits="userSpaceOnUse">
<stop stop-color="#FF928E"/>
<stop offset="1" stop-color="#FE7062"/>
</linearGradient>
<linearGradient id="paint23_linear_1927_3971" x1="217.902" y1="-7.97536" x2="90.398" y2="302.389" gradientUnits="userSpaceOnUse">
<stop stop-color="#FFE7E6"/>
<stop offset="1" stop-color="#FFE0DD"/>
</linearGradient>
<linearGradient id="paint24_linear_1927_3971" x1="331.523" y1="-145.912" x2="149.089" y2="298.046" gradientUnits="userSpaceOnUse">
<stop stop-color="#FFE7E6"/>
<stop offset="1" stop-color="#FFE0DD"/>
</linearGradient>
<linearGradient id="paint25_linear_1927_3971" x1="388.427" y1="-214.967" x2="178.505" y2="295.883" gradientUnits="userSpaceOnUse">
<stop stop-color="#FFE7E6"/>
<stop offset="1" stop-color="#FFE0DD"/>
</linearGradient>
<linearGradient id="paint26_linear_1927_3971" x1="246.303" y1="-34.4212" x2="156.882" y2="246.874" gradientUnits="userSpaceOnUse">
<stop stop-color="#FF928E"/>
<stop offset="1" stop-color="#FE7062"/>
</linearGradient>
<linearGradient id="paint27_linear_1927_3971" x1="300.059" y1="-62.8903" x2="201.375" y2="247.545" gradientUnits="userSpaceOnUse">
<stop stop-color="#FF928E"/>
<stop offset="1" stop-color="#FE7062"/>
</linearGradient>
<linearGradient id="paint28_linear_1927_3971" x1="29.0426" y1="197.449" x2="41.3797" y2="197.449" gradientUnits="userSpaceOnUse">
<stop stop-color="#FEBBBA"/>
<stop offset="1" stop-color="#FF928E"/>
</linearGradient>
<linearGradient id="paint29_linear_1927_3971" x1="177.129" y1="-218.213" x2="164.784" y2="-172.286" gradientUnits="userSpaceOnUse">
<stop stop-color="#09005D"/>
<stop offset="1" stop-color="#1A0F91"/>
</linearGradient>
<linearGradient id="paint30_linear_1927_3971" x1="64.6065" y1="249.616" x2="31.1438" y2="276.088" gradientUnits="userSpaceOnUse">
<stop stop-color="#4F52FF"/>
<stop offset="1" stop-color="#4042E2"/>
</linearGradient>
<linearGradient id="paint31_linear_1927_3971" x1="44.0205" y1="249.995" x2="42.2797" y2="265.305" gradientUnits="userSpaceOnUse">
<stop stop-color="#FEBBBA"/>
<stop offset="1" stop-color="#FF928E"/>
</linearGradient>
<linearGradient id="paint32_linear_1927_3971" x1="70.585" y1="257.174" x2="37.1233" y2="283.646" gradientUnits="userSpaceOnUse">
<stop stop-color="#4F52FF"/>
<stop offset="1" stop-color="#4042E2"/>
</linearGradient>
<linearGradient id="paint33_linear_1927_3971" x1="192.22" y1="-214.156" x2="179.874" y2="-168.228" gradientUnits="userSpaceOnUse">
<stop stop-color="#09005D"/>
<stop offset="1" stop-color="#1A0F91"/>
</linearGradient>
<linearGradient id="paint34_linear_1927_3971" x1="58.4149" y1="251.632" x2="56.6742" y2="266.942" gradientUnits="userSpaceOnUse">
<stop stop-color="#FEBBBA"/>
<stop offset="1" stop-color="#FF928E"/>
</linearGradient>
<linearGradient id="paint35_linear_1927_3971" x1="79.4104" y1="181.637" x2="23.4883" y2="269.064" gradientUnits="userSpaceOnUse">
<stop stop-color="#09005D"/>
<stop offset="1" stop-color="#1A0F91"/>
</linearGradient>
<linearGradient id="paint36_linear_1927_3971" x1="44.7332" y1="164.527" x2="35.7908" y2="252.745" gradientUnits="userSpaceOnUse">
<stop stop-color="#4F52FF"/>
<stop offset="1" stop-color="#4042E2"/>
</linearGradient>
<linearGradient id="paint37_linear_1927_3971" x1="49.3968" y1="149.633" x2="42.6407" y2="179.047" gradientUnits="userSpaceOnUse">
<stop stop-color="#FEBBBA"/>
<stop offset="1" stop-color="#FF928E"/>
</linearGradient>
<linearGradient id="paint38_linear_1927_3971" x1="54.0593" y1="133.596" x2="57.5926" y2="154.544" gradientUnits="userSpaceOnUse">
<stop stop-color="#FEBBBA"/>
<stop offset="1" stop-color="#FF928E"/>
</linearGradient>
<linearGradient id="paint39_linear_1927_3971" x1="52.4843" y1="139.662" x2="63.2041" y2="128.189" gradientUnits="userSpaceOnUse">
<stop stop-color="#09005D"/>
<stop offset="1" stop-color="#1A0F91"/>
</linearGradient>
<linearGradient id="paint40_linear_1927_3971" x1="46.2801" y1="163.95" x2="45.6821" y2="149.953" gradientUnits="userSpaceOnUse">
<stop stop-color="#FEBBBA"/>
<stop offset="1" stop-color="#FF928E"/>
</linearGradient>
<linearGradient id="paint41_linear_1927_3971" x1="52.4831" y1="140.942" x2="36.1378" y2="169.409" gradientUnits="userSpaceOnUse">
<stop stop-color="#4F52FF"/>
<stop offset="1" stop-color="#4042E2"/>
</linearGradient>
<linearGradient id="paint42_linear_1927_3971" x1="47.7134" y1="205.009" x2="43.028" y2="213.41" gradientUnits="userSpaceOnUse">
<stop stop-color="#09005D"/>
<stop offset="1" stop-color="#1A0F91"/>
</linearGradient>
<linearGradient id="paint43_linear_1927_3971" x1="65.4117" y1="166.486" x2="55.8395" y2="260.916" gradientUnits="userSpaceOnUse">
<stop stop-color="#4F52FF"/>
<stop offset="1" stop-color="#4042E2"/>
</linearGradient>
<linearGradient id="paint44_linear_1927_3971" x1="100.914" y1="151.434" x2="60.0079" y2="204.162" gradientUnits="userSpaceOnUse">
<stop stop-color="#FEBBBA"/>
<stop offset="1" stop-color="#FF928E"/>
</linearGradient>
<linearGradient id="paint45_linear_1927_3971" x1="106.439" y1="155.722" x2="65.5337" y2="208.45" gradientUnits="userSpaceOnUse">
<stop stop-color="#FEBBBA"/>
<stop offset="1" stop-color="#FF928E"/>
</linearGradient>
<linearGradient id="paint46_linear_1927_3971" x1="466.553" y1="-0.624593" x2="449.889" y2="50.8394" gradientUnits="userSpaceOnUse">
<stop stop-color="#FEBBBA"/>
<stop offset="1" stop-color="#FF928E"/>
</linearGradient>
<linearGradient id="paint47_linear_1927_3971" x1="489.878" y1="-105.728" x2="366.314" y2="148.323" gradientUnits="userSpaceOnUse">
<stop stop-color="#4F52FF"/>
<stop offset="1" stop-color="#4042E2"/>
</linearGradient>
<linearGradient id="paint48_linear_1927_3971" x1="384.149" y1="-15.1747" x2="425.855" y2="-15.1747" gradientUnits="userSpaceOnUse">
<stop stop-color="#DAE3FE"/>
<stop offset="1" stop-color="#E9EFFD"/>
</linearGradient>
<linearGradient id="paint49_linear_1927_3971" x1="486.102" y1="176.072" x2="523.31" y2="176.072" gradientUnits="userSpaceOnUse">
<stop stop-color="#FEBBBA"/>
<stop offset="1" stop-color="#FF928E"/>
</linearGradient>
<linearGradient id="paint50_linear_1927_3971" x1="540.497" y1="92.2606" x2="522.237" y2="211.845" gradientUnits="userSpaceOnUse">
<stop stop-color="#09005D"/>
<stop offset="1" stop-color="#1A0F91"/>
</linearGradient>
<linearGradient id="paint51_linear_1927_3971" x1="464.8" y1="101.348" x2="447.757" y2="212.961" gradientUnits="userSpaceOnUse">
<stop stop-color="#09005D"/>
<stop offset="1" stop-color="#1A0F91"/>
</linearGradient>
<linearGradient id="paint52_linear_1927_3971" x1="429.293" y1="187.789" x2="449.393" y2="187.789" gradientUnits="userSpaceOnUse">
<stop stop-color="#FEBBBA"/>
<stop offset="1" stop-color="#FF928E"/>
</linearGradient>
<linearGradient id="paint53_linear_1927_3971" x1="365.023" y1="51.4269" x2="402.462" y2="51.4269" gradientUnits="userSpaceOnUse">
<stop stop-color="#FEBBBA"/>
<stop offset="1" stop-color="#FF928E"/>
</linearGradient>
<linearGradient id="paint54_linear_1927_3971" x1="386.628" y1="122.05" x2="451.91" y2="69.8017" gradientUnits="userSpaceOnUse">
<stop stop-color="#4F52FF"/>
<stop offset="1" stop-color="#4042E2"/>
</linearGradient>
<linearGradient id="paint55_linear_1927_3971" x1="424.548" y1="91.5659" x2="490.283" y2="166.257" gradientUnits="userSpaceOnUse">
<stop stop-color="#09005D"/>
<stop offset="1" stop-color="#1A0F91"/>
</linearGradient>
<linearGradient id="paint56_linear_1927_3971" x1="433.728" y1="58.1667" x2="445.985" y2="58.1667" gradientUnits="userSpaceOnUse">
<stop stop-color="#FEBBBA"/>
<stop offset="1" stop-color="#FF928E"/>
</linearGradient>
<linearGradient id="paint57_linear_1927_3971" x1="461.683" y1="37.8627" x2="552.408" y2="44.0784" gradientUnits="userSpaceOnUse">
<stop stop-color="#FEBBBA"/>
<stop offset="1" stop-color="#FF928E"/>
</linearGradient>
<linearGradient id="paint58_linear_1927_3971" x1="500.517" y1="19.6246" x2="467.516" y2="86.122" gradientUnits="userSpaceOnUse">
<stop stop-color="#09005D"/>
<stop offset="1" stop-color="#1A0F91"/>
</linearGradient>
</defs>
</svg>
