<svg width="164" height="164" viewBox="0 0 164 164" fill="none" xmlns="http://www.w3.org/2000/svg">
<mask id="mask0_1464_7200" style="mask-type:alpha" maskUnits="userSpaceOnUse" x="0" y="0" width="164" height="164">
<rect width="164" height="164" fill="#C4C4C4"/>
</mask>
<g mask="url(#mask0_1464_7200)">
<g clip-path="url(#clip0_1464_7200)">
<path d="M83.6928 161.264C74.1924 161.264 66.9349 159.936 64.0399 159.348C62.6953 159.075 61.1894 158.769 59.5553 158.407L126.989 146.474C127.846 146.322 128.429 145.517 128.304 144.655L114.468 48.9093C114.324 47.9092 113.872 46.9786 113.175 46.2478L99.3679 31.7505C98.7696 31.1231 97.9446 30.7728 97.0858 30.7728C96.9803 30.7728 96.8748 30.7773 96.7693 30.7885L57.4704 34.7589C53.2286 27.2751 45.6147 21.9532 37.8013 18.2309C46.1021 11.8966 56.9713 6.3188 70.6504 4.53062C74.0062 4.09285 77.456 3.87059 80.9501 3.87059C98.7606 3.87059 117.795 9.62349 132.235 21.722C168.491 52.0973 165.911 113.461 141.533 139.125C138.316 142.512 135.272 144.696 132.867 146.422C116.108 158.446 97.5259 161.264 83.6928 161.264ZM56.9538 157.805C45.8963 155.128 30.4105 149.754 18.5802 135.842C-2.03286 111.602 -0.522288 74.4073 13.5884 47.4837C14.574 56.4493 17.3476 62.64 20.9173 67.1379C15.3548 67.5992 10.1471 68.4591 7.33959 68.9721C6.49591 69.127 6.2118 70.1923 6.86869 70.7434C10.1068 73.4633 17.0337 79.8778 18.8385 86.3427C20.5665 92.5321 25.3141 97.0854 30.5621 99.6756C28.4132 100.502 26.1614 101.836 23.7837 103.691C16.0117 109.753 11.1637 112.812 8.32055 113.381C7.61651 113.522 7.25731 114.317 7.59979 114.947C9.3618 118.192 14.2357 125.504 22.371 125.504C22.6556 125.504 22.9429 125.495 23.2356 125.476C31.0717 124.985 40.0874 121.227 46.1189 121.227C48.5872 121.227 50.5541 121.855 51.7385 123.594C51.8407 123.743 51.9397 123.891 52.0358 124.038L56.8717 157.499C56.8869 157.607 56.9151 157.709 56.9538 157.805Z" fill="url(#paint0_linear_1464_7200)"/>
<path d="M51.2748 107.901C51.2748 107.901 51.7763 86.8285 42.0707 81.1887C32.3651 75.5494 13.9113 72.0225 13.2196 41.765C12.8146 24.0514 12.3763 16.3064 12.0825 12.9287C11.9679 11.6114 13.1386 10.5482 14.4381 10.7926C23.63 12.5242 53.4907 19.6516 59.7516 40.0335C67.1733 64.1953 51.2748 107.901 51.2748 107.901Z" fill="#91B3FA"/>
<path d="M44.4944 53.9272C40.3577 45.1767 34.8556 36.8459 29.2298 29.4001L28.3581 28.297C21.7959 19.8695 20.4145 19.8077 21.0278 19.2202C21.1017 19.1492 21.1969 19.1142 21.2919 19.1142C21.3834 19.1142 21.4747 19.1461 21.547 19.2109C29.8438 26.6105 39.207 38.694 45.731 51.6099L44.4944 53.9272Z" fill="#C8D9FD"/>
<path d="M66.8725 148.415C68.1853 149.059 54.4404 131.775 50.1353 104.629C48.1066 91.8373 48.0802 75.8106 40.7934 69.6347C34.7287 64.4939 14.0921 67.7394 7.33971 68.9727C6.49597 69.1265 6.21187 70.1924 6.86871 70.7441C10.1068 73.4635 17.0338 79.8781 18.8386 86.343C21.2175 94.8637 29.3186 100.284 36.5708 101.75C43.8232 103.217 47.8575 104.64 51.391 116.239C54.9238 127.837 63.1413 146.585 66.8725 148.415Z" fill="#BDD0FB"/>
<path d="M16.8368 72.5721C25.4517 72.9324 34.6993 76.8626 39.3919 84.2342L39.8348 84.9381C40.8579 86.587 46.6556 98.3123 49.8762 108.032C49.9161 108.153 49.8502 108.283 49.7296 108.324C49.5228 108.392 49.4205 108.166 49.4401 108.186C47.1967 102.695 43.9744 95.7338 41.4076 90.527C38.6555 84.847 36.7297 80.9995 30.4523 77.3148C23.4652 73.3468 16.7902 72.938 16.8102 72.9415C16.7083 72.9317 16.6341 72.8406 16.6445 72.7382C16.6545 72.6401 16.7397 72.5679 16.8368 72.5721Z" fill="#91B3FA"/>
<path d="M60.9803 150.688C61.7594 151.099 56.5907 142.203 56.1944 134.365C55.7975 126.528 54.0297 113.15 47.2707 105.148C40.5118 97.1462 33.1101 96.416 23.7837 103.691C16.0117 109.753 11.1637 112.812 8.32065 113.381C7.61659 113.522 7.25734 114.317 7.5999 114.947C9.42352 118.306 14.5791 126.019 23.2356 125.476C34.2779 124.784 47.6597 117.606 51.7385 123.594C55.8172 129.581 55.2933 132.932 55.4187 135.77C55.544 138.608 55.8234 147.97 60.9803 150.688Z" fill="#91B3FA"/>
<path d="M50.8533 115.851C47.3765 110.303 42.978 109.382 42.7627 109.211C42.7565 109.212 42.7503 109.212 42.7441 109.212C42.5884 109.212 42.2444 109.048 41.68 108.883C41.1162 108.718 40.3321 108.554 39.2966 108.554C37.477 108.554 34.8801 109.062 31.3338 110.97C29.9024 111.749 28.5091 112.638 27.201 113.619L27.1937 113.625C27.1552 113.653 27.1101 113.668 27.0654 113.668C27.0002 113.668 26.9359 113.638 26.8939 113.582C26.8282 113.494 26.8398 113.372 26.917 113.299C30.0226 110.321 34.9211 107.391 39.4287 107.391C39.8306 107.391 40.2292 107.415 40.6238 107.463C44.8543 108.145 48.1309 110.274 50.5137 113.502L50.8533 115.851Z" fill="#C8D9FD"/>
<path d="M58.1768 158.631C57.6377 158.631 57.1537 158.299 56.9542 157.805C56.9154 157.709 56.8872 157.606 56.8721 157.499L52.0362 124.038L50.8534 115.851L50.5139 113.502L49.836 108.812L45.1024 76.0558L42.6279 58.9323C42.5167 58.1615 42.6538 57.3754 43.0203 56.6889L44.4941 53.9266L45.7308 51.6095L54.2239 35.6924C54.437 35.2922 54.8356 35.025 55.2869 34.9791L57.4707 34.7589L96.7696 30.7882C96.8759 30.7777 96.9812 30.7719 97.0865 30.7719C97.9444 30.7719 98.7707 31.1223 99.3682 31.7495L113.175 46.2476C113.872 46.9782 114.324 47.9088 114.469 48.9084L128.305 144.655C128.43 145.516 127.847 146.322 126.989 146.474L59.5556 158.407L58.4084 158.61C58.3303 158.624 58.2527 158.631 58.1768 158.631ZM95.9165 34.5674C95.8188 34.5674 95.7202 34.5721 95.6225 34.5817L58.2617 38.3015C57.7562 38.3513 57.3133 38.6567 57.0773 39.1163L47.0748 58.6115C46.7173 59.3086 46.5881 60.0899 46.7016 60.8731L59.9699 152.687C60.0295 153.099 60.255 153.474 60.5883 153.715C60.8424 153.899 61.1386 153.995 61.4416 153.995C61.527 153.995 61.6125 153.987 61.6973 153.972L123.441 142.976C124.373 142.81 124.994 141.925 124.855 140.961L111.967 51.7742C111.823 50.7794 111.39 49.8669 110.715 49.1363L98.2106 35.5813C97.6141 34.9341 96.7734 34.5674 95.9165 34.5674ZM61.4438 153.414C61.2611 153.414 61.0824 153.356 60.9284 153.244C60.7187 153.093 60.5826 152.865 60.5444 152.603L47.2767 60.7898C47.1805 60.1272 47.2896 59.4656 47.5915 58.8767L57.5939 39.3815C57.74 39.0972 58.0109 38.9095 58.319 38.8789L95.68 35.16C95.7633 35.1514 95.8466 35.1476 95.9299 35.1476C96.626 35.1476 97.2924 35.4415 97.7836 35.9748L110.288 49.5298C110.883 50.1752 111.264 50.9795 111.392 51.8575L124.28 141.044C124.374 141.696 123.961 142.293 123.339 142.404L61.5956 153.4C61.545 153.409 61.4944 153.414 61.4438 153.414Z" fill="url(#paint1_linear_1464_7200)"/>
<path d="M61.4413 153.995C61.1383 153.995 60.8421 153.899 60.588 153.715C60.2547 153.474 60.0292 153.099 59.9696 152.687L46.7014 60.8738C46.5879 60.09 46.7172 59.3091 47.0747 58.6122L57.077 39.1166C57.3131 38.657 57.7561 38.3515 58.2614 38.302L95.6224 34.582C95.7195 34.5727 95.8185 34.568 95.9157 34.568C96.7733 34.568 97.614 34.9342 98.2101 35.5816L110.715 49.1367C111.39 49.8682 111.822 50.7799 111.966 51.7748L124.855 140.961C124.993 141.925 124.372 142.81 123.441 142.976L61.697 153.972C61.6122 153.987 61.5267 153.995 61.4413 153.995ZM95.6793 35.1603L58.3187 38.8793C58.0106 38.9101 57.7397 39.0979 57.5936 39.3819L47.5913 58.8775C47.2893 59.466 47.1803 60.1274 47.2764 60.7907L60.5442 152.604C60.5824 152.866 60.7184 153.093 60.9281 153.244C61.0822 153.356 61.2609 153.414 61.4435 153.414C61.4941 153.414 61.5448 153.409 61.5953 153.4L123.339 142.404C123.96 142.293 124.374 141.696 124.28 141.044L111.391 51.858C111.263 50.9798 110.882 50.1755 110.288 49.5309L97.7831 35.9759C97.2917 35.4424 96.6257 35.1482 95.9288 35.1482C95.8466 35.1482 95.7634 35.1519 95.6793 35.1603ZM95.6504 34.8716L95.6793 35.1603L95.6504 34.8716Z" fill="url(#paint2_linear_1464_7200)"/>
<path d="M86.6301 128.36L85.861 123.74C81.0131 124.349 76.0601 124.006 72.4303 123.088C71.1344 122.761 70.2931 121.508 70.4278 120.178L70.8849 115.679C71.0526 114.029 72.6332 112.927 74.2476 113.308C77.838 114.156 82.1671 114.579 86.6357 113.834C91.2735 113.062 94.4709 110.914 93.9336 107.69C93.4492 104.781 90.4883 103.497 83.7542 102.841C74.1369 101.857 66.8647 98.9477 65.5157 90.8502C64.2983 83.5387 68.7148 77.066 77.7434 74.0274L76.9735 69.4072C76.7265 67.9212 77.7306 66.5154 79.2166 66.2675L81.9313 65.8152C83.4174 65.5682 84.824 66.5723 85.071 68.0591L85.7615 72.2069C90.2478 71.6431 93.6184 71.8653 96.3435 72.3408C97.7398 72.5846 98.6973 73.8854 98.5554 75.2953L98.1392 79.4543C97.9788 81.059 96.4783 82.1721 94.8976 81.8578C92.3786 81.3565 88.8724 80.9804 84.5161 81.7062C79.0129 82.6228 77.8204 85.1643 78.1604 87.2085C78.5799 89.7242 82.1695 90.9039 89.6904 91.9136C100.422 93.2778 105.374 96.816 106.644 104.443C107.809 111.439 103.668 118.593 93.8671 121.841L94.7284 127.011C94.9754 128.498 93.9713 129.904 92.4845 130.151L89.7706 130.603C88.2837 130.851 86.8779 129.846 86.6301 128.36Z" fill="white"/>
<path d="M86.0769 47.3052C86.0769 51.1208 82.9835 54.2141 79.1678 54.2141C75.3521 54.2141 72.2588 51.1208 72.2588 47.3052C72.2588 43.4886 75.3521 40.3962 79.1678 40.3962C82.9835 40.3962 86.0769 43.4886 86.0769 47.3052Z" fill="url(#paint3_linear_1464_7200)"/>
<path d="M84.8015 47.3048C84.8015 50.4166 82.2793 52.9397 79.1676 52.9397C76.055 52.9397 73.532 50.4166 73.532 47.3048C73.532 44.1929 76.055 41.6698 79.1676 41.6698C82.2793 41.6698 84.8015 44.1929 84.8015 47.3048Z" fill="white"/>
<path d="M73.766 48.9141C73.499 48.0345 73.4636 47.1068 73.6548 46.1332L74.0241 45.8489C86.2204 36.4767 85.7589 24.4243 81.2608 16.2697C77.5581 9.55748 71.3253 5.52659 67.0728 7.09328C61.8114 9.03152 60.6303 19.2039 63.6855 34.1311L61.2486 34.3773L61.2722 34.4926C56.6787 12.0497 62.4314 6.32561 66.269 4.91222C71.6614 2.92476 78.9815 7.32494 83.2957 15.1472C88.2604 24.1468 88.8039 37.4234 75.44 47.692L73.766 48.9141Z" fill="url(#paint4_linear_1464_7200)"/>
<path d="M120.065 50.6246C120.065 50.6246 117.525 44.4015 127.106 45.6564C136.686 46.9112 134.358 50.5277 135.115 53.3536C135.872 56.1807 139.891 59.3841 151.075 63.7454C162.26 68.1057 158.944 79.9947 153.92 83.9407C148.896 87.8868 146.157 85.264 144.988 92.0746C143.82 98.8853 139.159 104.417 133.343 98.643C127.527 92.8694 120.918 86.0425 122.766 77.0902C124.614 68.138 122.521 69.8315 118.912 65.7251C115.304 61.6176 122.953 57.6426 120.065 50.6246Z" fill="url(#paint5_linear_1464_7200)"/>
<path d="M122.203 67.29C120.682 65.747 119.202 69.4551 118.808 70.3841C117.81 72.7309 116.773 74.8378 114.668 76.4462C113.365 77.4405 111.606 78.0778 109.958 77.6008C104.023 75.8787 103.995 71.1109 103.862 67.5406C104 66.5275 103.392 65.5232 102.657 65.2109C101.802 64.8466 101.475 63.9623 101.475 63.9623C101.475 63.9623 100.894 65.2502 101.608 65.8535C101.857 66.0647 101.931 66.3135 101.923 66.5498C101.839 66.5364 101.753 66.523 101.664 66.5122C99.8802 66.2885 101.67 68.842 101.67 68.842C101.67 68.842 99.9438 78.1897 107.854 81.9041C111.769 83.7424 114.772 83.3066 116.813 82.3972C117.844 82.0365 118.733 81.3903 119.493 80.566C119.8 80.2599 119.956 80.0531 119.956 80.0531L119.957 80.0236C123.114 76.0094 123.661 68.7695 122.203 67.29Z" fill="url(#paint6_linear_1464_7200)"/>
<path d="M122.269 66.6965C123.823 66.2311 128.349 65.3702 132.654 69.3434C133.385 70.0171 133.682 71.0411 133.422 71.9999C132.266 76.2572 129.216 88.8342 131.891 94.2763C131.891 94.2763 127.177 99.4725 122.034 95.2841C122.034 95.2841 119.725 85.2276 116.704 80.812C114.617 77.7649 120.031 69.3664 121.4 67.3376C121.607 67.0305 121.914 66.8031 122.269 66.6965Z" fill="url(#paint7_linear_1464_7200)"/>
<path d="M126.561 58.2387C126.561 58.2387 128.86 64.7416 129.033 67.6109C129.033 67.6109 126.492 68.7658 124.097 66.8157C124.097 66.8157 123.848 60.3203 123.484 59.1569L126.561 58.2387Z" fill="url(#paint8_linear_1464_7200)"/>
<path d="M123.368 49.3724C123.368 49.3724 117.354 57.7877 120.95 60.2317C124.543 62.6757 128.824 56.6961 128.824 56.6961C128.824 56.6961 130.219 52.0903 128.761 50.5276C127.302 48.9649 123.368 49.3724 123.368 49.3724Z" fill="url(#paint9_linear_1464_7200)"/>
<path d="M130.831 49.2907C129.694 46.5507 126.151 47.3623 126.151 47.3623C126.151 47.3623 123.389 48.0162 123.001 49.2662C122.827 49.8284 123.602 50.3717 124.618 50.8053C126.88 51.771 128.524 53.8043 128.989 56.2193L129.096 56.7749C129.096 56.7749 131.97 52.0308 130.831 49.2907Z" fill="url(#paint10_linear_1464_7200)"/>
<path d="M127.658 56.077C127.658 56.077 129.998 53.366 130.929 55.1339C131.86 56.9009 128.823 58.2276 127.771 57.3601L127.658 56.077Z" fill="url(#paint11_linear_1464_7200)"/>
<path d="M116.03 116.4C116.047 116.856 115.246 120.478 114.809 122.409C114.634 123.186 114.756 124 115.152 124.691L130.26 150.119C130.442 150.427 130.575 150.76 130.657 151.108C130.933 152.302 131.508 155.226 131.208 157.886L130.426 159.51L133.807 158.742L134.542 149.665L133.585 149.081C132.758 148.578 132.114 147.824 131.746 146.928C130.379 143.61 126.988 135.163 126.113 131.046C125.119 126.368 119.924 122.568 119.924 122.568L120.837 120.41L116.03 116.4Z" fill="url(#paint12_linear_1464_7200)"/>
<path d="M137.564 155.619C137.564 155.619 135.738 152.725 135.523 151.599C135.308 150.472 134.711 148.483 133.585 149.082C133.585 149.082 133.055 154.554 133.238 156.692C133.421 158.83 130.821 158.761 130.821 158.761C130.821 158.761 130.104 158.862 129.579 159.387C129.217 159.749 129.476 160.378 129.988 160.41C130.839 160.465 132.19 160.479 133.609 160.206C134.104 160.109 134.472 159.687 134.503 159.183L134.877 152.885L137.18 155.793L137.564 155.619Z" fill="url(#paint13_linear_1464_7200)"/>
<path d="M125.055 120.45C125.055 120.45 125.588 143.195 125.66 146.425C125.732 149.656 125.15 156.814 121.912 158.954L123.321 159.998C123.321 159.998 125.082 158.501 126.802 155.62C128.735 152.384 129.32 151.793 129.32 151.793L128.678 150.48C128.397 149.905 128.315 149.254 128.444 148.628C129.143 145.241 131.477 133.975 132.114 131.549C132.866 128.685 132.919 124.861 130.304 121.659C127.689 118.458 125.055 120.45 125.055 120.45Z" fill="url(#paint14_linear_1464_7200)"/>
<path d="M128.045 161.023C128.146 161.024 128.231 160.952 128.245 160.852C128.353 160.094 128.802 157.054 129.168 156.267C129.589 155.365 130.963 151.57 129.168 151.248C129.168 151.248 124.706 157.768 123.849 158.647C122.993 159.527 121.912 158.954 121.912 158.954C121.912 158.954 121.077 159.201 120.448 160.006C120.147 160.388 120.427 160.95 120.913 160.955L123.918 160.984C124.791 160.992 125.577 160.461 125.902 159.651C126.43 158.329 127.339 156.391 128.399 155.531L127.848 160.802C127.836 160.919 127.928 161.022 128.045 161.023Z" fill="url(#paint15_linear_1464_7200)"/>
<path d="M121.322 92.8321C121.322 92.8321 121.999 94.9907 120.958 98.5467L114.504 121.088C114.403 121.442 114.594 121.812 114.94 121.937C116.871 122.63 123.218 124.589 131.882 123.991C132.319 123.961 132.685 123.652 132.779 123.226C133.35 120.656 135.298 111.888 135.699 110.087C137.227 103.222 138.935 95.8193 131.427 91.3431C127.967 92.8249 124.741 93.6984 121.322 92.8321Z" fill="url(#paint16_linear_1464_7200)"/>
<path d="M108.175 72.6427C108.384 72.1823 108.331 71.5798 108.284 71.1031C108.176 69.9988 108.184 68.8968 108.167 67.7876C108.119 64.913 108.145 62.0311 107.917 59.163C107.869 58.5442 107.935 57.923 107.886 57.3067C107.764 55.7419 106.846 55.2806 105.32 54.9542C104.028 54.6781 102.621 54.2981 101.287 54.5815C100.762 54.6927 100.256 54.9802 100.191 55.5291C99.926 57.7427 99.9918 72.253 102.664 72.6525C103.566 72.7873 104.462 72.9448 105.359 73.1064C105.998 73.2217 106.85 73.4629 107.493 73.2477C107.843 73.1292 108.054 72.9099 108.175 72.6427Z" fill="url(#paint17_linear_1464_7200)"/>
<path d="M107.115 72.6427C107.323 72.1823 107.272 71.5798 107.224 71.1031C107.115 69.9988 107.125 68.8968 107.106 67.7876C107.06 64.913 107.086 62.0311 106.857 59.163C106.809 58.5442 106.874 57.923 106.826 57.3067C106.704 55.7419 105.785 55.2806 104.26 54.9542C102.968 54.6781 101.561 54.2981 100.227 54.5815C99.7014 54.6927 99.1954 54.9802 99.1297 55.5291C98.8649 57.7427 98.9307 72.253 101.604 72.6525C102.506 72.7873 103.402 72.9448 104.299 73.1064C104.937 73.2217 105.789 73.4629 106.432 73.2477C106.783 73.1292 106.993 72.9099 107.115 72.6427Z" fill="url(#paint18_linear_1464_7200)"/>
<path d="M99.4079 68.5798C99.4079 68.5798 98.9227 68.2499 98.5244 66.2814C98.1253 64.3129 97.7301 63.1211 98.5244 62.2076C99.3187 61.2949 100.55 61.2549 100.55 62.2076C100.55 63.1611 100.343 64.9166 100.486 66.2814C100.629 67.6478 100.291 70.8773 99.4079 68.5798Z" fill="url(#paint19_linear_1464_7200)"/>
<path d="M129.934 48.6246C130.851 48.8199 131.737 49.2548 132.416 49.9357C132.748 50.2818 133.008 50.6993 133.177 51.1518L133.29 51.4979L133.355 51.8544C133.4 52.0951 133.422 52.3172 133.46 52.5487C133.797 54.3723 134.598 56.1132 135.789 57.5338C136.376 58.2499 137.06 58.8873 137.817 59.4205C138.571 59.9629 139.412 60.3607 140.26 60.7667C141.108 61.1686 141.967 61.5437 142.839 61.8888C143.709 62.2411 144.593 62.5603 145.498 62.8135C143.654 62.4219 141.887 61.7358 140.159 60.9888C139.298 60.62 138.434 60.2016 137.651 59.6571C136.866 59.1167 136.156 58.4689 135.544 57.7363C134.339 56.2578 133.514 54.4704 133.22 52.5869C133.188 52.3534 133.171 52.1065 133.135 51.8843L133.085 51.5454L132.989 51.2179C132.843 50.7871 132.609 50.3852 132.303 50.0411C131.686 49.3499 130.832 48.887 129.934 48.6246Z" fill="#91B3FA"/>
<path d="M154.256 68.3459C155.022 69.4699 155.561 70.7435 155.91 72.0654C156.255 73.3907 156.354 74.7852 156.187 76.1523C155.986 77.5158 155.502 78.8373 154.753 79.9891C154.555 80.269 154.37 80.5579 154.145 80.8177C154.038 80.9498 153.934 81.0864 153.821 81.2139L153.472 81.5883C153.243 81.8436 152.975 82.0561 152.729 82.291C152.474 82.5153 152.201 82.7188 151.935 82.929C152.945 82.0239 153.848 81.0054 154.546 79.8598C154.872 79.2763 155.189 78.685 155.405 78.0515C155.625 77.4213 155.783 76.7714 155.872 76.1094C156.06 74.7863 155.961 73.4336 155.673 72.1226C155.531 71.466 155.334 70.8205 155.097 70.1892C154.866 69.5557 154.585 68.9398 154.256 68.3459Z" fill="#91B3FA"/>
<path d="M142.658 110.252C142.582 110.252 142.517 110.198 142.506 110.123C142.498 110.073 141.698 105.107 140.174 104.238C139.927 104.098 139.683 104.08 139.424 104.183C137.373 104.999 138.42 109.677 138.431 109.724C138.449 109.807 138.398 109.889 138.316 109.907C138.232 109.926 138.151 109.875 138.132 109.793C138.086 109.59 137.019 104.81 139.311 103.899C139.656 103.761 139.997 103.786 140.324 103.972C141.977 104.913 142.776 109.865 142.808 110.076C142.821 110.159 142.765 110.237 142.681 110.251C142.672 110.252 142.665 110.252 142.658 110.252Z" fill="white"/>
<path d="M144.771 109.75L136.854 109.018L135.091 109.995L136.601 111.885L143.833 111.148L144.771 109.75Z" fill="url(#paint20_linear_1464_7200)"/>
<path d="M148.592 128.683L151.307 127.123L144.771 109.75L143.202 110.809L148.592 128.683Z" fill="url(#paint21_linear_1464_7200)"/>
<path d="M141.223 112.142L141.212 112.141C141.127 112.135 141.064 112.061 141.07 111.977C141.074 111.927 141.426 106.894 139.995 105.257C139.726 104.95 139.422 104.791 139.063 104.771C138.711 104.748 138.404 104.871 138.118 105.138C136.576 106.574 136.485 111.56 136.484 111.61C136.483 111.693 136.416 111.76 136.332 111.76H136.33C136.245 111.759 136.178 111.689 136.179 111.605C136.181 111.395 136.273 106.439 137.909 104.914C138.254 104.592 138.651 104.441 139.08 104.465C139.519 104.49 139.905 104.689 140.226 105.056C141.763 106.815 141.38 111.949 141.376 112.001C141.37 112.081 141.303 112.142 141.223 112.142Z" fill="white"/>
<path d="M135.086 110.052L143.203 110.808L148.592 128.683L136.941 128.988L135.086 110.052Z" fill="url(#paint22_linear_1464_7200)"/>
<path d="M148.755 128.404C148.747 128.404 148.737 128.403 148.728 128.401C148.671 128.386 148.636 128.326 148.651 128.269L149.172 126.282L145.061 113.529C145.043 113.473 145.074 113.411 145.131 113.393C145.189 113.376 145.249 113.406 145.266 113.462L149.387 126.246C149.394 126.266 149.394 126.287 149.388 126.307L148.86 128.324C148.847 128.372 148.804 128.404 148.755 128.404Z" fill="url(#paint23_linear_1464_7200)"/>
<path d="M151.11 127.158C151.094 127.158 151.078 127.155 151.064 127.148L149.659 126.476C149.605 126.451 149.582 126.386 149.607 126.333C149.634 126.279 149.699 126.257 149.752 126.282L151.156 126.953C151.211 126.979 151.233 127.044 151.207 127.097C151.188 127.136 151.15 127.158 151.11 127.158Z" fill="url(#paint24_linear_1464_7200)"/>
<path d="M129.933 75.5422C129.85 76.1811 135.58 82.4065 137.265 90.2169C138.95 98.027 138.383 103.242 138.383 103.242C138.383 103.242 136.672 104.519 137.287 105.424C137.902 106.329 137.74 106.946 138.526 107.121C139.314 107.297 140.289 107.545 140.17 105.992C140.05 104.439 141.905 104.126 141.596 103.188C141.29 102.254 143.388 77.0473 133.24 70.2102C133.192 70.1779 133.144 70.1456 133.095 70.1143C129.933 72.1039 130.051 74.6417 129.933 75.5422Z" fill="url(#paint25_linear_1464_7200)"/>
</g>
</g>
<defs>
<linearGradient id="paint0_linear_1464_7200" x1="382.413" y1="228.532" x2="102.741" y2="-118.802" gradientUnits="userSpaceOnUse">
<stop stop-color="#DAE3FE"/>
<stop offset="1" stop-color="#E9EFFD"/>
</linearGradient>
<linearGradient id="paint1_linear_1464_7200" x1="203.746" y1="-282.971" x2="187.212" y2="-60.7713" gradientUnits="userSpaceOnUse">
<stop stop-color="#FF928E"/>
<stop offset="1" stop-color="#FE7062"/>
</linearGradient>
<linearGradient id="paint2_linear_1464_7200" x1="198.233" y1="-271.544" x2="182.101" y2="-54.7486" gradientUnits="userSpaceOnUse">
<stop stop-color="#FFCDCB"/>
<stop offset="1" stop-color="#FFBDB7"/>
</linearGradient>
<linearGradient id="paint3_linear_1464_7200" x1="165.735" y1="-133.731" x2="130.911" y2="-0.47069" gradientUnits="userSpaceOnUse">
<stop stop-color="#FDF53F"/>
<stop offset="1" stop-color="#D93C65"/>
</linearGradient>
<linearGradient id="paint4_linear_1464_7200" x1="141.296" y1="-132.015" x2="194.955" y2="-132.015" gradientUnits="userSpaceOnUse">
<stop stop-color="#09005D"/>
<stop offset="1" stop-color="#1A0F91"/>
</linearGradient>
<linearGradient id="paint5_linear_1464_7200" x1="199.06" y1="-77.789" x2="290.724" y2="-35.9531" gradientUnits="userSpaceOnUse">
<stop stop-color="#09005D"/>
<stop offset="1" stop-color="#1A0F91"/>
</linearGradient>
<linearGradient id="paint6_linear_1464_7200" x1="182.761" y1="12.5858" x2="206.199" y2="-15.7853" gradientUnits="userSpaceOnUse">
<stop stop-color="#FEBBBA"/>
<stop offset="1" stop-color="#FF928E"/>
</linearGradient>
<linearGradient id="paint7_linear_1464_7200" x1="216.021" y1="117.598" x2="201.925" y2="237.629" gradientUnits="userSpaceOnUse">
<stop stop-color="#4F52FF"/>
<stop offset="1" stop-color="#4042E2"/>
</linearGradient>
<linearGradient id="paint8_linear_1464_7200" x1="218.897" y1="-5.53659" x2="224.971" y2="-19.0263" gradientUnits="userSpaceOnUse">
<stop stop-color="#FEBBBA"/>
<stop offset="1" stop-color="#FF928E"/>
</linearGradient>
<linearGradient id="paint9_linear_1464_7200" x1="219.217" y1="-38.9058" x2="231.576" y2="-12.1476" gradientUnits="userSpaceOnUse">
<stop stop-color="#FEBBBA"/>
<stop offset="1" stop-color="#FF928E"/>
</linearGradient>
<linearGradient id="paint10_linear_1464_7200" x1="180.841" y1="-64.0902" x2="258.083" y2="-27.4278" gradientUnits="userSpaceOnUse">
<stop stop-color="#09005D"/>
<stop offset="1" stop-color="#1A0F91"/>
</linearGradient>
<linearGradient id="paint11_linear_1464_7200" x1="227.756" y1="-44.1101" x2="240.252" y2="-17.0583" gradientUnits="userSpaceOnUse">
<stop stop-color="#FEBBBA"/>
<stop offset="1" stop-color="#FF928E"/>
</linearGradient>
<linearGradient id="paint12_linear_1464_7200" x1="262.983" y1="161.569" x2="216.087" y2="76.9251" gradientUnits="userSpaceOnUse">
<stop stop-color="#FEBBBA"/>
<stop offset="1" stop-color="#FF928E"/>
</linearGradient>
<linearGradient id="paint13_linear_1464_7200" x1="258.16" y1="130.647" x2="243.952" y2="130.512" gradientUnits="userSpaceOnUse">
<stop stop-color="#09005D"/>
<stop offset="1" stop-color="#1A0F91"/>
</linearGradient>
<linearGradient id="paint14_linear_1464_7200" x1="219.64" y1="104.183" x2="289.86" y2="127.374" gradientUnits="userSpaceOnUse">
<stop stop-color="#FEBBBA"/>
<stop offset="1" stop-color="#FF928E"/>
</linearGradient>
<linearGradient id="paint15_linear_1464_7200" x1="232.453" y1="135.596" x2="216.306" y2="135.443" gradientUnits="userSpaceOnUse">
<stop stop-color="#09005D"/>
<stop offset="1" stop-color="#1A0F91"/>
</linearGradient>
<linearGradient id="paint16_linear_1464_7200" x1="237.299" y1="57.0878" x2="259.936" y2="165.364" gradientUnits="userSpaceOnUse">
<stop stop-color="#09005D"/>
<stop offset="1" stop-color="#1A0F91"/>
</linearGradient>
<linearGradient id="paint17_linear_1464_7200" x1="160.855" y1="12.4596" x2="161.792" y2="34.6994" gradientUnits="userSpaceOnUse">
<stop stop-color="#09005D"/>
<stop offset="1" stop-color="#1A0F91"/>
</linearGradient>
<linearGradient id="paint18_linear_1464_7200" x1="170.959" y1="-5.11285" x2="151.556" y2="18.7418" gradientUnits="userSpaceOnUse">
<stop stop-color="#09005D"/>
<stop offset="1" stop-color="#1A0F91"/>
</linearGradient>
<linearGradient id="paint19_linear_1464_7200" x1="149.129" y1="15.2596" x2="141.993" y2="24.0335" gradientUnits="userSpaceOnUse">
<stop stop-color="#FEBBBA"/>
<stop offset="1" stop-color="#FF928E"/>
</linearGradient>
<linearGradient id="paint20_linear_1464_7200" x1="287.844" y1="2.02102" x2="270.473" y2="61.927" gradientUnits="userSpaceOnUse">
<stop stop-color="#FF928E"/>
<stop offset="1" stop-color="#FE7062"/>
</linearGradient>
<linearGradient id="paint21_linear_1464_7200" x1="354.534" y1="-4.89923" x2="275.726" y2="86.8066" gradientUnits="userSpaceOnUse">
<stop stop-color="#FF928E"/>
<stop offset="1" stop-color="#FE7062"/>
</linearGradient>
<linearGradient id="paint22_linear_1464_7200" x1="279.401" y1="72.2381" x2="339.581" y2="-43.7725" gradientUnits="userSpaceOnUse">
<stop stop-color="#FF928E"/>
<stop offset="1" stop-color="#FE7062"/>
</linearGradient>
<linearGradient id="paint23_linear_1464_7200" x1="296.393" y1="63.1204" x2="333.177" y2="-2.44419" gradientUnits="userSpaceOnUse">
<stop stop-color="#FF928E"/>
<stop offset="1" stop-color="#FE7062"/>
</linearGradient>
<linearGradient id="paint24_linear_1464_7200" x1="309.436" y1="67.268" x2="346.602" y2="1.02677" gradientUnits="userSpaceOnUse">
<stop stop-color="#FF928E"/>
<stop offset="1" stop-color="#FE7062"/>
</linearGradient>
<linearGradient id="paint25_linear_1464_7200" x1="262.243" y1="17.4414" x2="261.042" y2="-45.2967" gradientUnits="userSpaceOnUse">
<stop stop-color="#FEBBBA"/>
<stop offset="1" stop-color="#FF928E"/>
</linearGradient>
<clipPath id="clip0_1464_7200">
<rect width="208.547" height="208.547" fill="white" transform="translate(-22.9121 -21.7061)"/>
</clipPath>
</defs>
</svg>
