<svg width="164" height="164" viewBox="0 0 164 164" fill="none" xmlns="http://www.w3.org/2000/svg">
<mask id="mask0_1464_7037" style="mask-type:alpha" maskUnits="userSpaceOnUse" x="0" y="0" width="164" height="164">
<rect width="164" height="164" fill="#C4C4C4"/>
</mask>
<g mask="url(#mask0_1464_7037)">
<path d="M66.8257 162.533C64.3594 162.533 61.9308 162.434 59.5465 162.236C50.6159 161.497 32.6955 160.015 18.6243 146.871C39.9663 137.892 60.9259 133.264 81.492 133.264C97.1397 133.264 112.567 135.945 127.752 141.424C110.2 155.679 87.3244 162.533 66.8257 162.533ZM0.912214 110.834C-2.93754 85.6326 4.73951 56.2548 21.4153 35.982C24.7322 31.9496 47.562 5.0854 83.1688 5.0854C83.4072 5.0854 83.6456 5.08652 83.8852 5.08878C101.851 5.27068 116.17 12.2439 124.183 17.2565C115.116 21.8997 106.646 28.7348 103.609 38.6219C103.22 39.8863 102.895 41.2012 102.626 42.5621C89.9408 32.2629 78.9037 30.9188 75.5809 30.7571C75.5528 30.756 75.5247 30.7549 75.4966 30.7549C74.9 30.7549 74.3455 31.0637 74.0228 31.5701C60.7915 52.3426 64.9431 76.5574 65.9497 81.3703C65.4228 81.4288 64.8975 81.4907 64.3701 81.5564C59.6776 70.9703 55.5755 58.1132 47.9696 54.6827C46.9429 54.2189 45.6637 54.0168 44.2123 54.0168C36.1499 54.0168 22.7777 60.2568 17.937 62.6542C17.2233 63.0079 17.2425 64.032 17.97 64.3565C21.5566 65.9555 29.3821 69.9081 32.6478 75.2171C36.2628 81.0936 42.9212 83.9845 49.0183 84.436C34.5022 88.0707 19.891 94.3023 5.22348 103.118C2.54884 104.725 0.912214 107.618 0.912214 110.738V110.834ZM152.945 104.693C152.449 104.193 151.898 103.743 151.295 103.354C147.155 100.682 142.997 98.2458 138.823 96.0454C141.851 93.4431 144.286 90.0501 145.429 85.9571C147.076 80.0562 152.897 74.1964 156.482 71.031C157.573 82.2952 156.364 93.9244 152.945 104.693ZM156.134 68.0137C153.121 67.486 148.355 66.7449 143.303 66.3272C146.728 62.0119 149.437 56.1694 150.589 47.8925C153.353 54.2156 155.195 61.0215 156.134 68.0137Z" fill="url(#paint0_linear_1464_7037)"/>
<path d="M112.273 107.992C112.273 107.992 111.761 86.4531 121.681 80.6884C131.602 74.923 150.465 71.3193 151.172 40.3912C151.586 22.2844 152.033 14.3672 152.334 10.9156C152.451 9.56889 151.255 8.48227 149.926 8.73244C140.531 10.5023 110.008 17.788 103.609 38.6213C96.0223 63.3195 112.273 107.992 112.273 107.992Z" fill="#91B3FA"/>
<path d="M142.66 17.3386C132.346 26.5365 120.42 42.8152 114.064 59.0949C113.248 61.7782 110.862 67.4833 109.825 77.6207C108.899 86.0753 109.359 95.0092 110.482 100.923C110.552 101.297 110.913 101.543 111.287 101.471C111.93 101.35 111.844 100.658 111.839 100.68C110.557 90.5759 111.089 78.0003 114.026 66.6529C117.779 52.7198 126.149 39.2113 134.807 27.7538L135.697 26.6256C142.406 18.0118 143.817 17.9478 143.19 17.3481C143.042 17.2055 142.811 17.2044 142.66 17.3386Z" fill="#BDD0FB"/>
<path d="M110.824 117.751C110.062 117.245 111.849 112.691 112.002 112.031C112.566 109.588 113.046 107.125 113.438 104.649C115.513 91.5732 115.54 75.191 122.987 68.8779C129.187 63.6239 150.28 66.941 157.183 68.2007C158.045 68.3585 158.335 69.448 157.664 70.0125C154.355 72.7922 147.273 79.3485 145.429 85.9569C142.997 94.6665 134.717 100.206 127.304 101.705C122.621 102.652 118.554 104.022 115.767 108.142C114.276 110.347 113.738 115.592 112.077 117.124C111.419 117.73 111.029 117.887 110.824 117.751Z" fill="#BDD0FB"/>
<path d="M123.022 88.8738C122.657 88.7343 122.289 88.5955 121.923 88.46C122.907 86.4474 123.654 85.0253 123.967 84.5215L124.419 83.8023C129.216 76.267 138.669 72.2509 147.475 71.8815C147.477 71.8815 147.48 71.8815 147.482 71.8815C147.578 71.8815 147.66 71.9547 147.671 72.0513C147.682 72.1564 147.605 72.2487 147.501 72.2594C147.455 72.2594 140.664 72.6934 133.557 76.7298C127.655 80.194 125.517 83.7989 123.022 88.8738Z" fill="url(#paint1_linear_1464_7037)"/>
<path d="M65.8931 87.1699C65.8931 87.1699 60.9465 68.2314 50.839 65.6808C40.7315 63.1313 23.3557 64.7063 14.9932 37.8739C10.0975 22.1641 7.72387 15.3628 6.59711 12.424C6.15766 11.277 6.93048 10.0282 8.15314 9.91427C16.8017 9.10683 45.2816 7.82598 56.0876 24.4172C68.8975 44.0867 65.8931 87.1699 65.8931 87.1699Z" fill="#91B3FA"/>
<path d="M16.6536 15.61C27.964 21.0597 42.4559 32.2906 52.0836 44.9159C53.468 47.0537 56.9814 51.4393 60.4249 60.0326C63.3506 67.1839 65.186 75.1017 65.6865 80.5472C65.7179 80.8913 65.4649 81.1962 65.1202 81.228C64.5287 81.2831 64.4302 80.6573 64.4404 80.6753C63.0301 71.5303 59.4162 60.6806 54.009 51.507C47.2427 40.2783 36.5499 30.5774 26.1199 22.739L25.0593 21.9767C17.0443 16.1341 15.7952 16.4316 16.1925 15.7508C16.2863 15.5899 16.4885 15.5306 16.6536 15.61Z" fill="#BDD0FB"/>
<path d="M91.415 118.331C92.752 118.57 76.0581 106.66 65.2659 83.5294C60.1813 72.6301 56.0551 58.3308 47.9696 54.6829C41.2399 51.6462 23.6489 59.8253 17.937 62.6543C17.2232 63.0085 17.2425 64.0325 17.97 64.3565C21.5568 65.9556 29.3821 69.9082 32.6477 75.2172C36.9528 82.2141 45.5714 84.9795 52.4208 84.4319C59.2704 83.8852 63.2364 84.123 69.3593 93.5722C75.4821 103.021 87.6163 117.653 91.415 118.331Z" fill="#BDD0FB"/>
<path d="M27.3361 63.4374C35.1186 61.5538 44.3798 62.6951 50.4556 68.0742L51.0308 68.5886C52.366 69.7992 60.5436 78.7815 65.9058 86.6334C65.9728 86.7319 65.9473 86.8652 65.8495 86.9322C65.6832 87.0461 65.533 86.8698 65.5561 86.8829C62.1477 82.5557 57.4895 77.1659 53.8662 73.176C49.9551 68.8096 47.251 65.8678 40.704 64.186C33.4513 62.4309 27.388 63.7755 27.407 63.774C27.3134 63.7909 27.2239 63.7285 27.2071 63.6354C27.1909 63.5445 27.2484 63.4582 27.3361 63.4374Z" fill="url(#paint2_linear_1464_7037)"/>
<path d="M125.949 62.1091L118.884 58.6156C121.067 59.5127 123.501 60.168 126.201 60.4544L125.949 62.1091Z" fill="url(#paint3_linear_1464_7037)"/>
<path d="M65.9497 81.3696C64.9432 76.557 60.7916 52.3415 74.0225 31.5696C74.3459 31.0628 74.9 30.7548 75.4967 30.7548C75.5247 30.7548 75.5527 30.7558 75.5807 30.7567C78.9036 30.9189 89.9413 32.2618 102.626 42.5618C102.885 42.7713 103.143 42.9847 103.403 43.2019L97.431 49.3188C96.8161 49.9482 95.9791 50.2948 95.115 50.2948C94.9325 50.2948 94.7481 50.2794 94.5657 50.2475L81.0662 47.9218C80.8721 47.889 80.681 47.8726 80.4937 47.8726C78.1439 47.8726 76.4968 50.4145 77.6505 52.6157L84.0155 64.7442C84.5108 65.6874 84.5098 66.8141 84.0136 67.7563L77.6303 79.8761C77.497 80.1281 77.4014 80.3849 77.3387 80.6417C73.5513 80.7035 69.7538 80.9458 65.9497 81.3696Z" fill="url(#paint4_linear_1464_7037)"/>
<path d="M94.0734 25.7797L87.0842 33.5072C86.4269 34.2332 86.4379 35.2999 87.1111 36.0149C88.2773 37.2549 90.3418 38.8564 93.0426 38.5506C93.926 38.45 94.7018 37.9491 95.134 37.22L99.3685 30.0821L94.0734 25.7797Z" fill="url(#paint5_linear_1464_7037)"/>
<path d="M105.879 20.8159C105.879 20.8159 105.17 33.8019 99.4687 34.4903C93.7684 35.1776 93.4595 22.4196 93.4595 22.4196C93.4595 22.4196 98.9328 10.9794 105.879 20.8159Z" fill="url(#paint6_linear_1464_7037)"/>
<path d="M95.9346 26.4271C95.9346 26.4271 96.134 22.4106 93.843 23.1902C90.8929 24.1946 94.6033 27.3687 94.6033 27.3687L95.9346 26.4271Z" fill="url(#paint7_linear_1464_7037)"/>
<path d="M95.4245 23.7167C95.4245 23.7167 94.5397 26.3841 95.4245 25.7795C96.3104 25.1738 97.0196 18.6168 100.974 20.6246C104.928 22.6325 112.316 23.8481 110.694 16.2242C109.072 8.60028 104.486 15.1745 97.9669 13.407C91.4488 11.6395 92.3099 17.8268 92.9846 18.9315C91.063 19.8691 91.2052 22.2402 92.9846 23.707C93.5073 23.3276 94.5397 22.3695 95.4245 23.7167Z" fill="url(#paint8_linear_1464_7037)"/>
<path d="M107.455 21.5842C107.416 21.5842 107.382 21.5557 107.373 21.5154C107.366 21.471 107.396 21.4276 107.44 21.4191C107.454 21.417 108.785 21.1588 109.545 19.9237C110.184 18.8854 110.249 17.4715 109.738 15.7231C109.725 15.6797 109.75 15.6331 109.794 15.6204C109.837 15.6077 109.884 15.6331 109.896 15.6765C110.422 17.4736 110.351 18.932 109.685 20.0126C108.885 21.3112 107.528 21.5715 107.471 21.5821L107.455 21.5842Z" fill="#91B3FA"/>
<path d="M73.4876 31.2276C73.4876 31.2276 50.7357 53.4117 56.3813 59.9121C62.0264 66.4135 80.828 74.3845 80.828 74.3845L80.2301 70.0239C80.2301 70.0239 64.1513 57.834 66.2185 55.9092C67.2958 54.9054 70.6731 51.6441 73.6583 48.753C77.5782 44.9565 79.0237 39.2227 77.2166 34.0733C76.4172 31.7966 75.233 30.2729 73.4876 31.2276Z" fill="url(#paint9_linear_1464_7037)"/>
<path d="M4.04035 153.282C2.4001 153.282 0.912598 151.96 0.912598 150.148V110.834V110.738C0.912598 107.618 2.54917 104.725 5.22371 103.117C19.8912 94.3022 34.5026 88.0706 49.0187 84.4357C54.1453 83.152 59.2696 82.191 64.3703 81.5562C64.8977 81.4904 65.423 81.4285 65.9499 81.37C69.754 80.946 73.5513 80.7037 77.339 80.6419C77.1776 81.3077 77.2423 81.9745 77.4784 82.5672C54.2802 83.0221 30.7464 90.2305 7.07563 104.129C4.44843 105.672 2.84083 108.448 2.84083 111.443V149.265C2.84083 151.003 4.30204 152.273 5.91332 152.272C6.36697 152.272 6.83277 152.171 7.28096 151.953C32.7352 139.511 57.6439 133.061 81.9955 133.061C104.62 133.061 126.766 138.633 148.399 150.143C149.14 150.537 149.918 150.717 150.676 150.717C153.193 150.717 155.484 148.729 155.448 145.992L154.99 112.195C154.946 109.025 153.291 106.076 150.563 104.357C138.211 96.5665 125.7 90.8697 113.061 87.2552L113.305 85.5897C114.149 85.8388 114.989 86.0952 115.832 86.3629C117.866 87.0072 119.899 87.7068 121.924 88.4597C122.289 88.5952 122.658 88.7341 123.023 88.8735C128.315 90.8928 133.579 93.2816 138.823 96.0454C142.997 98.2456 147.156 100.682 151.295 103.354C151.898 103.743 152.45 104.193 152.944 104.693C154.726 106.491 155.767 108.936 155.802 111.522L156.267 146.738C156.305 149.59 153.971 151.662 151.41 151.662C150.638 151.662 149.846 151.474 149.092 151.064C142.031 147.218 134.919 144.009 127.753 141.424C112.568 135.945 97.1405 133.264 81.4923 133.264C60.9262 133.264 39.9665 137.891 18.6246 146.871C14.2417 148.714 9.84766 150.74 5.43271 152.949C4.97639 153.177 4.50224 153.282 4.04035 153.282ZM98.1476 83.9657C95.5206 83.5569 92.8814 83.2352 90.2444 83.0031L94.5402 82.2692C94.7218 82.2382 94.9045 82.2231 95.0861 82.2231C95.9518 82.2231 96.7895 82.5711 97.4045 83.202L98.1476 83.9657Z" fill="url(#paint10_linear_1464_7037)"/>
<path d="M5.91304 152.272C4.30184 152.272 2.84058 151.003 2.84058 149.264V111.443C2.84058 108.448 4.44823 105.672 7.07541 104.129C30.746 90.2305 54.2799 83.0223 77.478 82.5673C77.9459 83.7415 79.0857 84.6231 80.4707 84.6231C80.6557 84.6231 80.8451 84.6074 81.038 84.5742L90.2438 83.0032C92.8811 83.2354 95.5195 83.557 98.1479 83.9658L106.958 93.0185C107.615 93.6932 108.443 94.0008 109.259 94.0008C110.765 94.0008 112.228 92.9509 112.48 91.2292L113.06 87.2553C125.7 90.8698 138.211 96.5666 150.563 104.357C153.29 106.076 154.946 109.025 154.989 112.195L155.447 145.992C155.484 148.729 153.192 150.717 150.675 150.717C149.917 150.717 149.14 150.537 148.398 150.143C126.765 138.632 104.62 133.061 81.9951 133.061C57.6437 133.061 32.7348 139.511 7.28069 151.952C6.83253 152.171 6.36674 152.272 5.91304 152.272ZM15.4381 105.706C14.658 105.706 13.8993 106.243 13.7569 107.133L12.6262 114.209C12.5383 114.76 12.1852 115.231 11.682 115.471L5.21246 118.551C3.9455 119.153 3.92 120.948 5.16943 121.586L11.5491 124.848C12.0454 125.102 12.3849 125.583 12.4572 126.136L13.387 133.24C13.5065 134.153 14.2779 134.716 15.0751 134.716C15.4935 134.716 15.9192 134.561 16.2612 134.22L21.3349 129.16C21.6551 128.841 22.0863 128.666 22.5303 128.666C22.6333 128.666 22.737 128.676 22.8402 128.695L29.8844 130.005C29.9937 130.026 30.1013 130.036 30.2062 130.036C31.4236 130.036 32.2884 128.727 31.7037 127.575L28.4596 121.186C28.2072 120.689 28.2156 120.1 28.4819 119.611L31.9061 113.316C32.5313 112.166 31.6738 110.813 30.4303 110.813C30.3409 110.813 30.2492 110.82 30.1561 110.835L23.0775 111.946C22.9899 111.959 22.9021 111.966 22.8148 111.966C22.3539 111.966 21.9082 111.778 21.586 111.438L16.6577 106.237C16.3126 105.872 15.8721 105.706 15.4381 105.706ZM45.9295 96.3557C45.149 96.3557 44.3905 96.8927 44.2482 97.7834L43.1175 104.859C43.0297 105.409 42.6765 105.881 42.1732 106.12L35.7039 109.2C34.437 109.803 34.4111 111.597 35.6606 112.236L42.0406 115.498C42.5366 115.751 42.8761 116.233 42.9488 116.786L43.8783 123.89C43.9975 124.803 44.7689 125.366 45.5663 125.366C45.9846 125.365 46.4103 125.211 46.7522 124.869L51.8259 119.81C52.1464 119.49 52.5777 119.315 53.0214 119.315C53.1249 119.315 53.2284 119.325 53.3312 119.344L60.3753 120.655C60.485 120.676 60.5923 120.685 60.6975 120.685C61.915 120.685 62.7798 119.376 62.195 118.224L58.951 111.835C58.6985 111.339 58.707 110.75 58.9729 110.26L62.3969 103.966C63.0227 102.816 62.1646 101.463 60.9213 101.463C60.8319 101.463 60.7403 101.47 60.6475 101.485L53.5685 102.595C53.4808 102.609 53.3931 102.616 53.3059 102.616C52.8454 102.616 52.3995 102.428 52.0773 102.087L47.1491 96.886C46.8039 96.5222 46.3636 96.3557 45.9295 96.3557ZM106.801 118.463C107.222 118.463 107.635 118.621 107.951 118.914L113.207 123.783C113.545 124.094 113.95 124.236 114.349 124.236C115.168 124.236 115.956 123.638 116.043 122.698L116.71 115.564C116.762 115.009 117.083 114.515 117.569 114.243L123.824 110.748C125.05 110.063 124.958 108.272 123.669 107.715L117.09 104.877C116.579 104.657 116.208 104.198 116.1 103.652L114.708 96.6228C114.538 95.762 113.796 95.257 113.039 95.257C112.584 95.257 112.124 95.4386 111.777 95.8334L107.043 101.213C106.721 101.581 106.256 101.788 105.772 101.788C105.706 101.788 105.639 101.784 105.572 101.776L98.4573 100.928C98.3863 100.919 98.3154 100.915 98.2466 100.915C96.9679 100.915 96.1217 102.327 96.8004 103.472L100.455 109.636C100.74 110.115 100.769 110.704 100.536 111.209L97.5291 117.714C96.9967 118.866 97.8695 120.119 99.0551 120.119C99.1793 120.119 99.3079 120.105 99.4377 120.076L106.429 118.504C106.552 118.477 106.676 118.463 106.801 118.463ZM79.0767 90.8569C78.4615 90.8569 77.8469 91.1836 77.5432 91.8308L74.5006 98.3182C74.2639 98.8225 73.7944 99.1785 73.2444 99.2696L66.1755 100.441C64.7917 100.67 64.271 102.388 65.295 103.347L70.5251 108.245C70.9316 108.626 71.1245 109.182 71.0419 109.734L69.9712 116.819C69.807 117.904 70.673 118.768 71.6457 118.768C71.9168 118.768 72.1957 118.701 72.4627 118.554L78.7376 115.094C78.9912 114.954 79.273 114.883 79.5547 114.883C79.8144 114.883 80.0737 114.943 80.3127 115.063L86.7205 118.269C86.9711 118.395 87.2295 118.453 87.479 118.453C88.4794 118.453 89.3522 117.538 89.1404 116.436L87.7884 109.4C87.6831 108.852 87.8539 108.289 88.2454 107.892L93.2759 102.789C94.2607 101.79 93.673 100.095 92.28 99.9208L85.1705 99.0317C84.6172 98.9626 84.1341 98.6258 83.8771 98.1315L80.5786 91.7707C80.262 91.1594 79.6693 90.8569 79.0767 90.8569Z" fill="url(#paint11_linear_1464_7037)"/>
<path d="M71.6459 118.768C70.6734 118.768 69.8077 117.904 69.9713 116.819L71.0424 109.734C71.125 109.182 70.9321 108.626 70.5251 108.245L65.2953 103.347C64.2717 102.387 64.7919 100.67 66.1757 100.441L73.2445 99.2699C73.7947 99.1786 74.2645 98.8227 74.5012 98.3179L77.5435 91.8307C77.8475 91.1834 78.4619 90.8568 79.0771 90.8568C79.6697 90.8568 80.2622 91.1593 80.5793 91.7708L83.8774 98.1316C84.1345 98.6255 84.6175 98.9623 85.1706 99.0317L92.2811 99.9209C93.6729 100.095 94.2611 101.79 93.2769 102.789L88.2458 107.892C87.8549 108.289 87.6839 108.853 87.7891 109.399L89.1408 116.436C89.3527 117.538 88.4796 118.453 87.4794 118.453C87.2295 118.453 86.9716 118.395 86.7202 118.269L80.3134 115.063C80.0737 114.942 79.8151 114.883 79.555 114.883C79.2729 114.883 78.9917 114.953 78.7381 115.094L72.4628 118.554C72.1961 118.701 71.917 118.768 71.6459 118.768ZM71.255 101.259L68.8966 101.65C68.4114 101.73 68.0213 102.073 67.8781 102.543C67.7356 103.014 67.87 103.515 68.2288 103.851L71.6445 107.05C72.4445 107.8 72.8244 108.894 72.6608 109.978L71.9615 114.606C71.8885 115.091 72.0931 115.568 72.4971 115.849C72.7177 116.003 72.9735 116.081 73.2299 116.081C73.4418 116.081 73.6544 116.027 73.8495 115.92L77.9476 113.661C78.2749 113.48 78.6285 113.356 78.9982 113.293L78.9376 112.934C78.5277 113.004 78.1354 113.141 77.7715 113.342L73.6741 115.601C73.5317 115.68 73.379 115.719 73.2277 115.719C73.0458 115.719 72.8653 115.662 72.7046 115.551C72.4116 115.347 72.2684 115.013 72.3217 114.66L73.0202 110.033C73.2022 108.831 72.7806 107.616 71.8929 106.785L68.4772 103.586C68.2164 103.341 68.1228 102.991 68.2258 102.649C68.3311 102.309 68.6021 102.067 68.9557 102.008L71.3142 101.618L72.7119 101.386L72.6527 101.027L71.255 101.259ZM82.1925 113.765L82.0289 114.09L85.2305 115.693C85.4146 115.785 85.6104 115.83 85.8062 115.83C86.0795 115.83 86.3505 115.742 86.5792 115.569C86.7736 115.421 86.9175 115.228 87.0015 115.011C87.087 114.791 87.1111 114.547 87.0644 114.304L86.1818 109.709C85.9765 108.645 86.3184 107.515 87.0804 106.743L90.3653 103.41C90.7102 103.06 90.8249 102.554 90.6634 102.089C90.502 101.625 90.0987 101.298 89.6106 101.237L84.9675 100.656C83.8796 100.521 82.929 99.858 82.4241 98.8848L80.2695 94.7305C80.0474 94.3024 79.6127 94.0386 79.1319 94.0386C79.1232 94.0386 79.1144 94.0386 79.1056 94.0386C78.6139 94.0489 78.1792 94.3316 77.9702 94.7766L75.9829 99.0134C75.7981 99.4087 75.5409 99.7587 75.2194 100.053L75.4656 100.322C75.8222 99.9947 76.1071 99.6067 76.3124 99.1683L78.2997 94.9307C78.451 94.6078 78.7557 94.4098 79.1129 94.4025C79.1195 94.4025 79.1268 94.4025 79.1334 94.4025C79.4826 94.4025 79.7851 94.5866 79.9466 94.8979L82.1019 99.0522C82.6609 100.132 83.7159 100.866 84.9222 101.018L89.566 101.598C89.9204 101.642 90.2031 101.871 90.32 102.208C90.4362 102.546 90.3573 102.9 90.106 103.155L86.8211 106.488C85.9765 107.344 85.5973 108.598 85.8245 109.778L86.7064 114.373C86.7743 114.724 86.645 115.063 86.3593 115.278C86.1935 115.404 86.0028 115.468 85.8084 115.468C85.6681 115.468 85.5271 115.435 85.3934 115.368L82.1925 113.765Z" fill="url(#paint12_linear_1464_7037)"/>
<path d="M73.2291 116.081C72.9731 116.081 72.7177 116.003 72.4969 115.85C72.0931 115.568 71.8883 115.091 71.9612 114.605L72.6601 109.978C72.8239 108.895 72.4444 107.8 71.6444 107.05L68.2287 103.851C67.8703 103.515 67.7359 103.014 67.878 102.543C68.0213 102.073 68.4111 101.73 68.8962 101.65L71.2546 101.259L71.3142 101.618L68.9551 102.009C68.6018 102.067 68.3311 102.308 68.2261 102.649C68.1224 102.991 68.2165 103.341 68.477 103.586L71.8927 106.785C72.7804 107.616 73.2016 108.831 73.0204 110.033L72.3215 114.66C72.2684 115.013 72.4111 115.347 72.7049 115.551C72.8649 115.663 73.0454 115.719 73.2278 115.719C73.3788 115.719 73.5312 115.68 73.6739 115.601L77.7712 113.342C78.1347 113.141 78.5277 113.004 78.9373 112.934L78.9981 113.293C78.6288 113.356 78.2749 113.48 77.9472 113.661L73.8492 115.92C73.654 116.028 73.4416 116.081 73.2291 116.081Z" fill="url(#paint13_linear_1464_7037)"/>
<path d="M85.8062 115.83C85.6104 115.83 85.4145 115.785 85.2301 115.693L82.0288 114.091L82.1925 113.765L85.3932 115.368C85.527 115.435 85.6687 115.468 85.8083 115.468C86.0027 115.468 86.1935 115.404 86.3594 115.278C86.6449 115.062 86.7745 114.724 86.7062 114.373L85.824 109.778C85.5968 108.598 85.9763 107.344 86.8215 106.487L90.1062 103.154C90.3568 102.899 90.4366 102.546 90.3198 102.208C90.203 101.87 89.9211 101.643 89.5658 101.598L84.9225 101.017C83.7156 100.866 82.6611 100.132 82.1014 99.0521L79.9467 94.898C79.7851 94.5862 79.4825 94.4017 79.1329 94.4017C79.1265 94.4017 79.1194 94.4025 79.1129 94.4025C78.7555 94.4089 78.4507 94.6068 78.2998 94.9301L76.3125 99.1682C76.1067 99.6061 75.8219 99.9942 75.4651 100.321L75.2195 100.053C75.5413 99.7585 75.7977 99.4081 75.9828 99.0137L77.9701 94.7763C78.1787 94.3313 78.6138 94.0479 79.1058 94.0386C79.1144 94.0386 79.1229 94.0379 79.1315 94.0379C79.6128 94.0379 80.0471 94.3014 80.2693 94.73L82.4247 98.8848C82.9288 99.8582 83.8794 100.52 84.9674 100.656L89.6106 101.237C90.0991 101.297 90.5021 101.624 90.6637 102.089C90.8247 102.554 90.71 103.06 90.3654 103.41L87.0807 106.742C86.3188 107.515 85.9763 108.645 86.1821 109.709L87.0643 114.304C87.1106 114.548 87.0871 114.791 87.0017 115.011C86.9177 115.228 86.7731 115.421 86.5794 115.569C86.3509 115.742 86.0796 115.83 85.8062 115.83Z" fill="url(#paint14_linear_1464_7037)"/>
<path d="M71.3137 101.618L71.2542 101.26L72.6518 101.028L72.7113 101.387L71.3137 101.618Z" fill="url(#paint15_linear_1464_7037)"/>
<path d="M45.5662 125.366C44.7691 125.366 43.9978 124.803 43.8785 123.89L42.9491 116.785C42.8765 116.233 42.537 115.752 42.041 115.498L35.6611 112.236C34.4114 111.597 34.4373 109.803 35.7045 109.2L42.1733 106.12C42.6766 105.881 43.0301 105.409 43.118 104.859L44.2484 97.7833C44.3908 96.8927 45.1491 96.3556 45.9299 96.3556C46.3639 96.3556 46.8041 96.5222 47.1492 96.8859L52.0773 102.087C52.3999 102.428 52.8457 102.616 53.3062 102.616C53.3935 102.616 53.4807 102.609 53.5686 102.595L60.6476 101.485C60.7405 101.47 60.8317 101.463 60.9212 101.463C62.1648 101.463 63.0227 102.816 62.3967 103.966L58.9729 110.26C58.7072 110.75 58.6987 111.339 58.9509 111.835L62.1952 118.224C62.7795 119.376 61.9148 120.685 60.6977 120.685C60.5925 120.685 60.4849 120.675 60.3752 120.655L53.3315 119.344C53.2285 119.325 53.1249 119.315 53.0214 119.315C52.5778 119.315 52.1465 119.49 51.8262 119.81L46.7524 124.869C46.4106 125.211 45.9851 125.365 45.5662 125.366ZM40.811 108.582L38.6526 109.61C38.2085 109.822 37.9281 110.258 37.9208 110.75C37.9141 111.242 38.182 111.686 38.6194 111.91L42.7858 114.04C43.762 114.539 44.4302 115.486 44.5721 116.573L45.1795 121.213C45.2431 121.701 45.5724 122.102 46.0374 122.261C46.1748 122.307 46.3155 122.33 46.4551 122.33C46.7878 122.33 47.111 122.199 47.357 121.955L50.6699 118.651C50.9356 118.386 51.2413 118.17 51.5791 118.008L51.4215 117.679C51.0465 117.859 50.7076 118.1 50.4132 118.393L47.0997 121.697C46.9224 121.874 46.6949 121.968 46.4591 121.968C46.3583 121.968 46.2558 121.951 46.1545 121.916C45.8162 121.801 45.5865 121.521 45.5409 121.166L44.9329 116.526C44.7753 115.32 44.035 114.269 42.9519 113.716L38.7849 111.586C38.4669 111.423 38.2794 111.112 38.2845 110.755C38.2912 110.399 38.4854 110.092 38.8086 109.938L40.9675 108.91L42.2465 108.302L42.0906 107.973L40.811 108.582ZM54.7789 117.578L54.7125 117.936L58.232 118.591C58.312 118.606 58.3913 118.613 58.4701 118.613C58.8693 118.613 59.2476 118.428 59.493 118.099C59.6394 117.903 59.7244 117.678 59.7452 117.446C59.7666 117.212 59.7221 116.97 59.6101 116.749L57.4917 112.577C57.0003 111.611 57.0166 110.43 57.5351 109.478L59.7717 105.367C60.0059 104.936 59.976 104.417 59.6929 104.015C59.4486 103.669 59.0612 103.471 58.6486 103.471C58.581 103.471 58.5135 103.477 58.4454 103.487L53.8224 104.213C53.6502 104.24 53.4768 104.253 53.3057 104.253C52.3993 104.253 51.5228 103.882 50.8895 103.214L47.67 99.8167C47.4234 99.5554 47.0879 99.4153 46.7428 99.4153C46.615 99.4153 46.4866 99.4344 46.36 99.4733C45.8905 99.6185 45.5505 100.011 45.4728 100.496L44.7342 105.117C44.6655 105.548 44.5158 105.955 44.2878 106.328L44.598 106.518C44.8507 106.104 45.0173 105.653 45.0933 105.175L45.8319 100.553C45.8888 100.201 46.1258 99.9264 46.4681 99.8206C46.561 99.7919 46.655 99.7778 46.7473 99.7778C46.9933 99.7778 47.2269 99.878 47.4059 100.067L50.6249 103.464C51.328 104.205 52.3002 104.617 53.3062 104.617C53.4959 104.617 53.6879 104.602 53.8793 104.572L58.5022 103.847C58.5529 103.839 58.603 103.835 58.6531 103.835C58.9487 103.835 59.2189 103.974 59.3951 104.225C59.6011 104.517 59.6225 104.879 59.4514 105.193L57.2159 109.304C56.6406 110.36 56.6225 111.671 57.1669 112.742L59.2853 116.914C59.4474 117.233 59.4165 117.594 59.202 117.88C59.0241 118.118 58.7606 118.25 58.4752 118.25C58.4167 118.25 58.3576 118.244 58.2984 118.233L54.7789 117.578Z" fill="url(#paint16_linear_1464_7037)"/>
<path d="M46.4547 122.33C46.3153 122.33 46.1747 122.308 46.0369 122.261C45.5719 122.103 45.243 121.701 45.1794 121.214L44.5716 116.573C44.4299 115.486 43.7618 114.539 42.7857 114.041L38.6189 111.91C38.1814 111.686 37.9138 111.242 37.9205 110.75C37.9278 110.258 38.2079 109.821 38.6521 109.61L40.8108 108.582L40.9671 108.911L38.8084 109.938C38.4851 110.092 38.2911 110.399 38.2844 110.755C38.2793 111.113 38.4665 111.424 38.7848 111.586L42.9515 113.716C44.0346 114.27 44.7751 115.32 44.9326 116.527L45.5404 121.166C45.5865 121.521 45.816 121.801 46.1545 121.916C46.2557 121.951 46.358 121.968 46.4587 121.968C46.6948 121.968 46.922 121.875 47.0997 121.698L50.4129 118.394C50.7075 118.1 51.0466 117.86 51.4211 117.679L51.5791 118.008C51.2411 118.17 50.9352 118.386 50.6698 118.651L47.3567 121.955C47.111 122.2 46.7876 122.33 46.4547 122.33Z" fill="url(#paint17_linear_1464_7037)"/>
<path d="M58.4703 118.613C58.3915 118.613 58.3117 118.606 58.2318 118.591L54.7123 117.936L54.7787 117.578L58.2982 118.233C58.3578 118.244 58.4168 118.25 58.4753 118.25C58.7604 118.25 59.0241 118.118 59.2018 117.88C59.4166 117.594 59.4476 117.233 59.285 116.914L57.1668 112.742C56.6225 111.671 56.6405 110.361 57.2157 109.304L59.4515 105.194C59.6224 104.879 59.6011 104.517 59.3953 104.225C59.2187 103.974 58.9488 103.835 58.653 103.835C58.603 103.835 58.5529 103.839 58.5023 103.847L53.879 104.572C53.6878 104.602 53.496 104.617 53.306 104.617C52.3 104.617 51.3278 104.206 50.6249 103.463L47.4056 100.067C47.2268 99.8781 46.9929 99.778 46.7472 99.778C46.6549 99.778 46.561 99.792 46.4677 99.8207C46.1258 99.9264 45.8885 100.201 45.8317 100.553L45.0934 105.175C45.0169 105.653 44.8505 106.105 44.598 106.518L44.2876 106.328C44.5153 105.955 44.6655 105.548 44.7341 105.118L45.4724 100.496C45.55 100.011 45.8902 99.6188 46.3597 99.4732C46.4862 99.4344 46.615 99.4153 46.7427 99.4153C47.0879 99.4153 47.4231 99.5559 47.6699 99.8168L50.8892 103.214C51.5229 103.882 52.399 104.253 53.3054 104.253C53.4769 104.253 53.6501 104.24 53.8222 104.213L58.4455 103.488C58.5136 103.477 58.581 103.471 58.6485 103.471C59.0613 103.471 59.4487 103.669 59.6927 104.015C59.9761 104.417 60.0059 104.935 59.7715 105.367L57.5351 109.478C57.0167 110.43 57.0004 111.611 57.4918 112.577L59.6101 116.75C59.722 116.97 59.7664 117.211 59.745 117.446C59.7242 117.677 59.6393 117.903 59.4931 118.099C59.2474 118.427 58.8695 118.613 58.4703 118.613Z" fill="url(#paint18_linear_1464_7037)"/>
<path d="M40.9671 108.91L40.8108 108.582L42.0901 107.973L42.2465 108.301L40.9671 108.91Z" fill="url(#paint19_linear_1464_7037)"/>
<path d="M15.0753 134.716C14.278 134.716 13.5066 134.153 13.3872 133.241L12.4574 126.136C12.3851 125.584 12.0456 125.102 11.5494 124.849L5.16959 121.587C3.92024 120.948 3.94566 119.154 5.21261 118.551L11.6822 115.471C12.1854 115.231 12.5384 114.76 12.6264 114.209L13.7571 107.134C13.8994 106.243 14.6581 105.706 15.4382 105.706C15.8723 105.706 16.3129 105.872 16.6578 106.237L21.5861 111.438C21.9084 111.778 22.354 111.966 22.8149 111.966C22.9022 111.966 22.99 111.959 23.0776 111.946L30.1563 110.835C30.2494 110.82 30.341 110.813 30.4305 110.813C31.674 110.813 32.5315 112.166 31.9062 113.316L28.4821 119.611C28.2158 120.1 28.2074 120.689 28.4598 121.186L31.7038 127.575C32.2886 128.727 31.4237 130.036 30.2064 130.036C30.1015 130.036 29.994 130.026 29.8845 130.006L22.8404 128.695C22.7372 128.676 22.6335 128.666 22.5305 128.666C22.0864 128.666 21.6553 128.841 21.335 129.16L16.2613 134.22C15.9194 134.561 15.4937 134.716 15.0753 134.716ZM10.3196 117.933L8.16069 118.96C7.71692 119.172 7.43694 119.608 7.42941 120.1C7.42266 120.592 7.69026 121.037 8.12802 121.261L12.2948 123.391C13.2708 123.89 13.9385 124.837 14.0808 125.924L14.688 130.564C14.7521 131.051 15.0806 131.452 15.5459 131.611C15.6834 131.658 15.8242 131.681 15.9634 131.681C16.2963 131.681 16.6199 131.55 16.8655 131.305L20.179 128.001C20.4443 127.737 20.7499 127.52 21.0878 127.358L20.93 127.03C20.5555 127.21 20.2163 127.45 19.922 127.744L16.6085 131.048C16.4307 131.225 16.2039 131.318 15.9674 131.318C15.8669 131.318 15.7646 131.301 15.6636 131.267C15.325 131.152 15.0955 130.871 15.0491 130.517L14.4417 125.877C14.2839 124.671 13.5433 123.621 12.4604 123.067L8.29374 120.937C7.97519 120.774 7.78827 120.463 7.79317 120.106C7.79986 119.75 7.99391 119.443 8.31713 119.288L10.476 118.261L11.7553 117.652L11.5988 117.324L10.3196 117.933ZM24.2876 126.929L24.2209 127.286L27.7406 127.941C27.8204 127.957 27.9001 127.963 27.9791 127.963C28.3784 127.963 28.7561 127.778 29.0021 127.449C29.1484 127.254 29.233 127.028 29.254 126.796C29.2753 126.561 29.2308 126.321 29.1188 126.1L27.0006 121.927C26.5092 120.962 26.5256 119.781 27.044 118.829L29.2802 114.718C29.5148 114.286 29.4848 113.768 29.2016 113.366C28.9577 113.02 28.57 112.822 28.1572 112.822C28.0901 112.822 28.0223 112.827 27.9545 112.838L23.3311 113.564C23.1587 113.591 22.9861 113.604 22.8144 113.604C21.9079 113.604 21.0316 113.233 20.3978 112.564L17.1787 109.167C16.9316 108.906 16.5971 108.765 16.2513 108.765C16.124 108.765 15.9952 108.785 15.8687 108.824C15.3989 108.969 15.059 109.361 14.9814 109.847L14.243 114.468C14.1744 114.899 14.0241 115.306 13.7966 115.678L14.1067 115.868C14.3594 115.455 14.526 115.003 14.6025 114.526L15.3409 109.904C15.3971 109.551 15.6345 109.277 15.9764 109.171C16.0697 109.143 16.1636 109.128 16.2559 109.128C16.5017 109.128 16.7358 109.229 16.9148 109.417L20.134 112.814C20.8368 113.556 21.8086 113.967 22.8145 113.967C23.0049 113.967 23.1965 113.953 23.3876 113.923L28.011 113.198C28.0617 113.189 28.1121 113.185 28.1617 113.185C28.4575 113.185 28.7279 113.325 28.9044 113.575C29.1097 113.867 29.1311 114.229 28.9605 114.544L26.7245 118.655C26.1495 119.711 26.1316 121.022 26.6759 122.093L28.7941 126.265C28.9566 126.583 28.9252 126.944 28.7108 127.231C28.5327 127.469 28.2695 127.6 27.9839 127.6C27.9258 127.6 27.8667 127.595 27.8072 127.584L24.2876 126.929Z" fill="url(#paint20_linear_1464_7037)"/>
<path d="M15.9633 131.681C15.8241 131.681 15.6833 131.658 15.5458 131.611C15.0805 131.453 14.752 131.051 14.6879 130.564L14.0807 125.924C13.9384 124.837 13.2707 123.89 12.2947 123.391L8.12794 121.261C7.69018 121.037 7.42258 120.592 7.42932 120.1C7.43686 119.608 7.71683 119.172 8.16061 118.96L10.3195 117.933L10.4759 118.261L8.31705 119.288C7.99383 119.443 7.79977 119.75 7.79308 120.106C7.78819 120.463 7.9751 120.774 8.29365 120.937L12.4603 123.067C13.5432 123.621 14.2838 124.671 14.4416 125.877L15.049 130.517C15.0954 130.871 15.325 131.152 15.6635 131.267C15.7645 131.301 15.8668 131.318 15.9674 131.318C16.2038 131.318 16.4306 131.225 16.6084 131.048L19.9219 127.744C20.2162 127.451 20.5554 127.21 20.9299 127.03L21.0878 127.358C20.7498 127.52 20.4442 127.737 20.1789 128.002L16.8654 131.305C16.6199 131.55 16.2962 131.681 15.9633 131.681Z" fill="url(#paint21_linear_1464_7037)"/>
<path d="M27.9789 127.963C27.9 127.963 27.8202 127.956 27.7404 127.941L24.2207 127.286L24.2874 126.928L27.8071 127.584C27.8665 127.595 27.9257 127.6 27.9837 127.6C28.2693 127.6 28.5326 127.469 28.7106 127.231C28.925 126.944 28.9564 126.583 28.7939 126.264L26.6757 122.093C26.1314 121.021 26.1494 119.711 26.7243 118.655L28.9604 114.544C29.1309 114.229 29.1095 113.867 28.9042 113.575C28.7277 113.325 28.4573 113.185 28.1615 113.185C28.1119 113.185 28.0616 113.189 28.0108 113.198L23.3875 113.923C23.1963 113.953 23.0047 113.967 22.8143 113.967C21.8084 113.967 20.8366 113.556 20.1338 112.814L16.9146 109.417C16.7356 109.229 16.5015 109.128 16.2557 109.128C16.1634 109.128 16.0695 109.143 15.9762 109.171C15.6344 109.277 15.3969 109.551 15.3407 109.904L14.6023 114.526C14.5258 115.003 14.3592 115.455 14.1066 115.868L13.7964 115.678C14.0239 115.306 14.1742 114.898 14.2428 114.468L14.9812 109.847C15.0588 109.361 15.3987 108.969 15.8685 108.824C15.995 108.785 16.1239 108.765 16.2512 108.765C16.5969 108.765 16.9314 108.906 17.1785 109.167L20.3976 112.564C21.0314 113.233 21.9077 113.603 22.8142 113.603C22.9859 113.603 23.1585 113.591 23.3309 113.564L27.9543 112.838C28.0221 112.827 28.0899 112.822 28.157 112.822C28.5698 112.822 28.9575 113.02 29.2014 113.366C29.4846 113.768 29.5146 114.286 29.28 114.718L27.0438 118.828C26.5254 119.781 26.509 120.962 27.0004 121.927L29.1186 126.1C29.2306 126.321 29.2751 126.561 29.2538 126.796C29.2328 127.028 29.1482 127.254 29.0019 127.449C28.7559 127.778 28.3783 127.963 27.9789 127.963Z" fill="url(#paint22_linear_1464_7037)"/>
<path d="M10.4757 118.261L10.3193 117.933L11.5988 117.324L11.7552 117.652L10.4757 118.261Z" fill="url(#paint23_linear_1464_7037)"/>
<path d="M153.054 123.503L146.367 126.077C145.846 126.278 145.459 126.721 145.329 127.263L143.659 134.231C143.332 135.595 141.582 135.993 140.698 134.903L136.183 129.339C135.832 128.906 135.291 128.674 134.735 128.718L127.592 129.283C126.193 129.393 125.274 127.852 126.037 126.674L129.934 120.661C130.237 120.193 130.29 119.607 130.077 119.092L127.332 112.473C126.795 111.177 127.978 109.827 129.333 110.189L136.256 112.036C136.795 112.18 137.369 112.05 137.792 111.688L143.239 107.032C144.306 106.12 145.955 106.828 146.03 108.229L146.412 115.384C146.442 115.941 146.744 116.447 147.219 116.737L153.33 120.479C154.526 121.212 154.364 122.999 153.054 123.503Z" fill="url(#paint24_linear_1464_7037)"/>
<path d="M114.349 124.236C113.95 124.236 113.545 124.094 113.209 123.783L107.95 118.914C107.635 118.621 107.222 118.463 106.801 118.463C106.677 118.463 106.552 118.477 106.429 118.504L99.4381 120.075C99.3074 120.105 99.1794 120.119 99.0552 120.119C97.8698 120.119 96.9973 118.866 97.5301 117.714L100.536 111.209C100.769 110.703 100.739 110.115 100.455 109.636L96.8012 103.472C96.122 102.327 96.9678 100.915 98.2471 100.915C98.3161 100.915 98.3861 100.919 98.4579 100.928L105.572 101.776C105.639 101.784 105.707 101.788 105.773 101.788C106.256 101.788 106.721 101.581 107.044 101.213L111.776 95.8328C112.124 95.4389 112.585 95.2567 113.039 95.2567C113.797 95.2567 114.538 95.762 114.709 96.6227L116.1 103.652C116.209 104.198 116.579 104.656 117.091 104.877L123.669 107.715C124.958 108.271 125.05 110.063 123.825 110.748L117.57 114.243C117.083 114.515 116.762 115.009 116.711 115.563L116.044 122.698C115.956 123.638 115.168 124.236 114.349 124.236ZM110.117 118.193L109.869 118.46L112.497 120.892C112.739 121.117 113.048 121.235 113.365 121.235C113.52 121.235 113.675 121.207 113.826 121.149C114.054 121.062 114.246 120.917 114.388 120.732C114.531 120.545 114.622 120.317 114.645 120.071L115.081 115.412C115.18 114.333 115.824 113.343 116.771 112.814L120.856 110.531C121.285 110.291 121.537 109.837 121.511 109.346C121.486 108.855 121.19 108.429 120.739 108.234L116.442 106.38C115.435 105.946 114.707 105.044 114.494 103.969L113.585 99.3786C113.49 98.8967 113.135 98.5171 112.66 98.3895C112.548 98.3591 112.435 98.3445 112.323 98.3445C111.961 98.3445 111.613 98.4985 111.364 98.7808L108.274 102.295C107.985 102.623 107.64 102.887 107.25 103.08L107.41 103.406C107.845 103.192 108.227 102.899 108.547 102.535L111.637 99.0209C111.817 98.8169 112.061 98.7077 112.319 98.7077C112.4 98.7077 112.482 98.7184 112.566 98.741C112.911 98.8337 113.159 99.0985 113.229 99.4495L114.137 104.04C114.373 105.233 115.181 106.233 116.297 106.714L120.594 108.568C120.923 108.71 121.13 109.008 121.148 109.365C121.166 109.722 120.99 110.039 120.678 110.214L116.594 112.497C115.544 113.083 114.829 114.182 114.718 115.378L114.283 120.037C114.249 120.393 114.03 120.682 113.696 120.81C113.586 120.852 113.473 120.873 113.361 120.873C113.137 120.873 112.92 120.788 112.745 120.625L110.117 118.193ZM100.577 102.838C100.146 102.838 99.7455 103.053 99.5052 103.422C99.2365 103.834 99.2264 104.352 99.4767 104.775L101.863 108.801C102.423 109.744 102.482 110.901 102.022 111.896L100.059 116.144C99.8531 116.59 99.9166 117.105 100.226 117.488C100.473 117.795 100.837 117.965 101.22 117.965C101.314 117.965 101.409 117.954 101.504 117.933L106.07 116.907C106.31 116.853 106.555 116.826 106.8 116.826C106.927 116.826 107.055 116.834 107.182 116.848L107.223 116.487C107.083 116.47 106.941 116.463 106.8 116.463C106.529 116.463 106.257 116.492 105.99 116.553L101.425 117.578C101.354 117.594 101.283 117.602 101.214 117.602C100.942 117.602 100.688 117.481 100.508 117.259C100.284 116.981 100.24 116.621 100.39 116.297L102.352 112.048C102.862 110.945 102.796 109.662 102.176 108.615L99.7896 104.59C99.6074 104.282 99.6148 103.92 99.8099 103.62C99.9838 103.355 100.264 103.202 100.574 103.202C100.612 103.202 100.65 103.204 100.689 103.209L103.062 103.492L103.107 103.131L100.732 102.847C100.681 102.841 100.629 102.838 100.577 102.838ZM103.107 103.131L103.062 103.492L104.47 103.66L104.513 103.298L103.107 103.131Z" fill="url(#paint25_linear_1464_7037)"/>
<path d="M101.219 117.965C100.837 117.965 100.473 117.795 100.225 117.488C99.9167 117.106 99.8524 116.59 100.059 116.144L102.022 111.896C102.481 110.901 102.422 109.744 101.863 108.801L99.476 104.775C99.2255 104.352 99.2369 103.834 99.5044 103.422C99.7451 103.053 100.146 102.839 100.577 102.839C100.628 102.839 100.68 102.841 100.731 102.848L103.106 103.131L103.063 103.492L100.688 103.209C100.649 103.204 100.611 103.202 100.574 103.202C100.263 103.202 99.9842 103.355 99.8094 103.62C99.6142 103.92 99.6069 104.282 99.789 104.589L102.176 108.615C102.796 109.662 102.862 110.945 102.351 112.049L100.389 116.297C100.24 116.621 100.283 116.981 100.509 117.26C100.688 117.481 100.941 117.602 101.214 117.602C101.284 117.602 101.354 117.594 101.424 117.579L105.99 116.553C106.257 116.493 106.528 116.463 106.799 116.463C106.941 116.463 107.081 116.471 107.223 116.487L107.182 116.849C107.055 116.834 106.927 116.827 106.799 116.827C106.555 116.827 106.311 116.854 106.07 116.908L101.504 117.933C101.41 117.955 101.313 117.965 101.219 117.965Z" fill="url(#paint26_linear_1464_7037)"/>
<path d="M113.364 121.235C113.048 121.235 112.738 121.117 112.496 120.893L109.869 118.46L110.117 118.193L112.744 120.626C112.919 120.788 113.137 120.873 113.361 120.873C113.472 120.873 113.585 120.852 113.696 120.81C114.03 120.682 114.249 120.394 114.282 120.037L114.718 115.378C114.829 114.182 115.544 113.083 116.593 112.497L120.678 110.214C120.99 110.039 121.166 109.722 121.148 109.365C121.13 109.008 120.923 108.71 120.595 108.569L116.297 106.715C115.181 106.233 114.373 105.233 114.137 104.04L113.228 99.4495C113.158 99.0987 112.91 98.8338 112.565 98.741C112.483 98.7185 112.4 98.7079 112.319 98.7079C112.06 98.7079 111.817 98.817 111.638 99.0211L108.546 102.536C108.226 102.899 107.844 103.192 107.41 103.406L107.25 103.08C107.64 102.887 107.985 102.623 108.273 102.295L111.364 98.7809C111.612 98.4987 111.96 98.3446 112.323 98.3446C112.435 98.3446 112.547 98.3593 112.66 98.3896C113.135 98.5173 113.49 98.8968 113.584 99.3787L114.494 103.969C114.707 105.045 115.435 105.946 116.441 106.381L120.738 108.235C121.19 108.429 121.487 108.855 121.511 109.346C121.536 109.838 121.285 110.292 120.856 110.532L116.771 112.815C115.824 113.343 115.18 114.333 115.081 115.413L114.645 120.071C114.621 120.318 114.53 120.545 114.387 120.733C114.246 120.917 114.054 121.063 113.826 121.15C113.675 121.207 113.519 121.235 113.364 121.235Z" fill="url(#paint27_linear_1464_7037)"/>
<path d="M104.47 103.66L103.062 103.492L103.106 103.131L104.513 103.299L104.47 103.66Z" fill="url(#paint28_linear_1464_7037)"/>
<path d="M109.259 94.0005C108.444 94.0005 107.615 93.6929 106.958 93.0182L98.1476 83.9652L97.4037 83.2022C96.7897 82.571 95.9513 82.2225 95.0852 82.2225C94.9037 82.2225 94.7223 82.2378 94.5399 82.2693L90.2437 83.0027L81.0382 84.5735C80.8453 84.6069 80.6552 84.6232 80.4709 84.6232C79.0853 84.6232 77.9461 83.7408 77.4782 82.5672C77.2423 81.9742 77.1774 81.3077 77.3388 80.6421C77.4008 80.3852 77.4963 80.1274 77.63 79.8762L84.0128 67.7564C84.5093 66.8139 84.5103 65.688 84.0156 64.7446L77.651 52.6161C76.4965 50.415 78.1438 47.873 80.4938 47.873C80.6801 47.873 80.872 47.8892 81.0658 47.9227L94.5647 50.2479C94.7481 50.2794 94.9324 50.2947 95.1148 50.2947C95.979 50.2947 96.8155 49.949 97.4305 49.3197L103.403 43.2025L106.999 39.5184C107.656 38.8461 108.483 38.5396 109.297 38.5396C110.805 38.5396 112.269 39.5919 112.518 41.3165L114.477 54.8726C114.561 55.4522 114.798 55.9879 115.153 56.432C115.444 56.7958 115.816 57.0975 116.246 57.3114L117.056 57.7116L118.884 58.6159L125.948 62.109L128.524 63.3828C129.742 63.9854 130.343 65.1628 130.326 66.3326C130.309 67.4709 129.707 68.6024 128.519 69.1868L119.369 73.6941L116.232 75.2401C115.276 75.7099 114.613 76.6209 114.46 77.6751L113.303 85.5895L113.06 87.2549L112.48 91.2293C112.228 92.9507 110.766 94.0005 109.259 94.0005ZM101.612 82.0411L101.113 82.5262L105.886 87.4297C106.358 87.9138 106.987 88.1736 107.637 88.1736C107.891 88.1736 108.149 88.1335 108.4 88.0523C108.843 87.9081 109.225 87.6493 109.512 87.3113C109.804 86.9675 110.001 86.5425 110.07 86.0746L111.363 77.2235C111.661 75.1742 112.988 73.3484 114.849 72.4317L122.874 68.4793C123.717 68.0639 124.241 67.2216 124.243 66.282C124.243 65.3414 123.72 64.4982 122.877 64.0818L114.858 60.1161C112.98 59.1879 111.679 57.3945 111.38 55.3214L110.1 46.4664C109.965 45.5363 109.326 44.7771 108.432 44.4859C108.18 44.4038 107.921 44.3637 107.666 44.3637C107.019 44.3637 106.39 44.6224 105.919 45.1047L99.6688 51.5065C99.0873 52.1033 98.4035 52.5741 97.6377 52.9045L97.9127 53.5424C98.7626 53.1757 99.5208 52.6543 100.167 51.9925L106.417 45.5907C106.757 45.2412 107.197 45.0569 107.658 45.0569C107.843 45.0569 108.031 45.0875 108.217 45.1477C108.868 45.3596 109.314 45.8896 109.411 46.5667L110.693 55.4207C111.023 57.7201 112.466 59.7083 114.549 60.7396L122.569 64.7064C123.182 65.0081 123.548 65.5973 123.547 66.281C123.546 66.9638 123.179 67.553 122.566 67.8557L114.542 71.8081C112.479 72.8241 111.006 74.8495 110.674 77.1232L109.38 85.9734C109.283 86.6505 108.836 87.1795 108.185 87.3905C108 87.4507 107.812 87.4803 107.628 87.4803C107.167 87.4803 106.726 87.295 106.386 86.9446L101.612 82.0411ZM84.7948 51.7777C84.0194 51.7777 83.288 52.1434 82.8181 52.787C82.2652 53.5471 82.1927 54.5364 82.63 55.3691L86.7868 63.2902C87.7609 65.1466 87.7589 67.361 86.7821 69.2155L82.6138 77.1299C82.1755 77.9616 82.2461 78.9509 82.7981 79.712C83.266 80.3575 83.9984 80.7252 84.7757 80.7252C84.9142 80.7252 85.0555 80.7137 85.1959 80.6898L94.0137 79.1849C94.369 79.1238 94.7271 79.0932 95.0861 79.0932C95.4385 79.0932 95.7918 79.1228 96.1423 79.182L96.2569 78.4964C95.8682 78.4305 95.4767 78.398 95.0861 78.398C94.6879 78.398 94.2907 78.4314 93.8963 78.4992L85.0785 80.0032C84.9734 80.0214 84.8693 80.0309 84.7672 80.0309C84.2104 80.0309 83.6995 79.7712 83.3615 79.3042C82.9604 78.7504 82.9108 78.059 83.2297 77.4546L87.398 69.5392C88.4809 67.4833 88.4828 65.0263 87.4028 62.9665L83.246 55.0454C82.928 54.44 82.9795 53.7496 83.3806 53.1957C83.7215 52.7326 84.2314 52.4719 84.7882 52.4719C84.8903 52.4719 84.9954 52.4805 85.0995 52.4986L89.6039 53.275L89.7213 52.5894L85.2179 51.813C85.0756 51.7891 84.9352 51.7777 84.7948 51.7777ZM89.7213 52.5894L89.6039 53.275L92.2729 53.7343L92.3913 53.0496L89.7213 52.5894Z" fill="url(#paint29_linear_1464_7037)"/>
<path d="M84.7756 80.7258C83.9986 80.7258 83.2667 80.3578 82.7983 79.7121C82.2462 78.9509 82.176 77.9622 82.6134 77.1299L86.7822 69.2154C87.7583 67.361 87.76 65.1461 86.7872 63.29L82.6301 55.3688C82.1927 54.5366 82.2655 53.547 82.8183 52.7867C83.2884 52.1435 84.0195 51.7771 84.7948 51.7771C84.9345 51.7771 85.0759 51.7888 85.2172 51.8131L89.7215 52.5893L89.6044 53.2744L85.0993 52.499C84.9947 52.4806 84.8902 52.4714 84.7881 52.4714C84.2311 52.4714 83.7217 52.7323 83.3804 53.1957C82.9789 53.7495 82.9279 54.4395 83.2466 55.0451L87.4029 62.9663C88.4827 65.0257 88.481 67.4831 87.3978 69.54L83.229 77.4545C82.9103 78.0592 82.9597 78.7501 83.3612 79.3039C83.6999 79.7714 84.2102 80.0307 84.7664 80.0307C84.8693 80.0307 84.9738 80.0215 85.0784 80.004L93.8961 78.4992C94.2901 78.4314 94.6882 78.398 95.0855 78.398C95.477 78.398 95.8684 78.4306 96.2566 78.4958L96.142 79.1826C95.7915 79.1232 95.4385 79.0931 95.0855 79.0931C94.7275 79.0931 94.3695 79.124 94.0132 79.1851L85.1955 80.6899C85.055 80.7141 84.9145 80.7258 84.7756 80.7258Z" fill="url(#paint30_linear_1464_7037)"/>
<path d="M107.637 88.1736C106.989 88.1736 106.358 87.9139 105.888 87.4294L101.113 82.5258L101.612 82.0404L106.386 86.9449C106.727 87.2945 107.168 87.4799 107.629 87.4799C107.814 87.4799 108.001 87.4505 108.185 87.3909C108.837 87.1798 109.283 86.6504 109.382 85.9732L110.675 77.123C111.007 74.8502 112.479 72.8241 114.542 71.8083L122.567 67.8554C123.18 67.5526 123.546 66.9635 123.547 66.2808C123.548 65.5972 123.182 65.0081 122.57 64.7053L114.55 60.7394C112.467 59.7081 111.024 57.7196 110.693 55.4202L109.412 46.5663C109.314 45.8891 108.868 45.3588 108.218 45.1468C108.031 45.0862 107.844 45.0569 107.658 45.0569C107.198 45.0569 106.757 45.2413 106.418 45.59L100.168 51.992C99.5213 52.6536 98.7634 53.1757 97.9128 53.5418L97.6384 52.9041C98.4037 52.5729 99.0882 52.1021 99.67 51.5057L105.92 45.1046C106.39 44.6219 107.019 44.3632 107.667 44.3632C107.922 44.3632 108.181 44.4035 108.433 44.4852C109.327 44.777 109.965 45.5359 110.1 46.4663L111.38 55.3211C111.679 57.3939 112.98 59.1869 114.859 60.1164L122.878 64.0813C123.72 64.4979 124.244 65.3412 124.243 66.2817C124.242 67.2213 123.717 68.0637 122.875 68.4793L114.85 72.4323C112.99 73.3481 111.662 75.1741 111.364 77.223L110.07 86.0741C110.002 86.5421 109.806 86.9679 109.513 87.311C109.225 87.6487 108.844 87.9084 108.4 88.0525C108.148 88.1341 107.892 88.1736 107.637 88.1736Z" fill="url(#paint31_linear_1464_7037)"/>
<path d="M92.2736 53.7351L89.6042 53.2745L89.7215 52.5894L92.3916 53.0492L92.2736 53.7351Z" fill="url(#paint32_linear_1464_7037)"/>
<path d="M78.8727 69.7802C78.8727 69.7802 78.777 67.906 78.2918 67.0388C77.8066 66.1702 78.9355 65.9706 79.4918 66.7854C80.048 67.5995 80.4465 69.8595 80.4465 69.8595C80.4465 69.8595 79.4776 70.4344 78.8727 69.7802Z" fill="url(#paint33_linear_1464_7037)"/>
<path d="M82.5991 74.6094C82.3967 74.9387 82.037 75.1389 81.6499 75.1374C81.2636 75.1367 80.9061 74.9343 80.7044 74.6043C80.0607 73.5497 79.0856 71.8523 78.9061 70.9676C78.6347 69.6261 78.45 67.8308 80.2305 67.4911C82.0118 67.1515 84.3299 67.2627 84.3299 67.2627C84.3299 67.2627 84.9158 68.912 83.4556 68.9194L84.5658 69.3962C84.5658 69.3962 85.0025 70.731 83.664 70.4878L84.8312 71.2509C84.8312 71.2509 84.8305 72.4982 83.7723 72.1474C83.007 71.8938 83.2814 73.5052 82.5991 74.6094Z" fill="url(#paint34_linear_1464_7037)"/>
<path d="M125.702 59.215C122.192 57.5053 120.851 57.537 119.374 58.8279L121.864 60.7755C122.669 61.5077 122.517 62.2642 122.21 62.8994C121.831 63.6867 122.521 64.8022 123.665 65.1679C124.5 65.4356 125.304 65.2341 126.051 64.1866L126.709 62.8957C126.505 61.948 126.74 59.9752 125.702 59.215Z" fill="url(#paint35_linear_1464_7037)"/>
</g>
<defs>
<linearGradient id="paint0_linear_1464_7037" x1="357.566" y1="177.904" x2="126.52" y2="-71.4801" gradientUnits="userSpaceOnUse">
<stop stop-color="#DAE3FE"/>
<stop offset="1" stop-color="#E9EFFD"/>
</linearGradient>
<linearGradient id="paint1_linear_1464_7037" x1="294.279" y1="-23.4163" x2="86.4121" y2="138.162" gradientUnits="userSpaceOnUse">
<stop stop-color="#DAE3FE"/>
<stop offset="1" stop-color="#E9EFFD"/>
</linearGradient>
<linearGradient id="paint2_linear_1464_7037" x1="55.8553" y1="-14.4843" x2="125.269" y2="177.981" gradientUnits="userSpaceOnUse">
<stop stop-color="#DAE3FE"/>
<stop offset="1" stop-color="#E9EFFD"/>
</linearGradient>
<linearGradient id="paint3_linear_1464_7037" x1="230.72" y1="28.3038" x2="154.548" y2="-112.606" gradientUnits="userSpaceOnUse">
<stop stop-color="#53D8FF"/>
<stop offset="1" stop-color="#3840F7"/>
</linearGradient>
<linearGradient id="paint4_linear_1464_7037" x1="214.498" y1="-102.475" x2="86.6182" y2="45.8411" gradientUnits="userSpaceOnUse">
<stop stop-color="#09005D"/>
<stop offset="1" stop-color="#1A0F91"/>
</linearGradient>
<linearGradient id="paint5_linear_1464_7037" x1="162.807" y1="-66.8067" x2="196.796" y2="-98.0753" gradientUnits="userSpaceOnUse">
<stop stop-color="#FEBBBA"/>
<stop offset="1" stop-color="#FF928E"/>
</linearGradient>
<linearGradient id="paint6_linear_1464_7037" x1="214.365" y1="-107.319" x2="197.355" y2="-135.188" gradientUnits="userSpaceOnUse">
<stop stop-color="#FEBBBA"/>
<stop offset="1" stop-color="#FF928E"/>
</linearGradient>
<linearGradient id="paint7_linear_1464_7037" x1="198.518" y1="-92.2003" x2="182.129" y2="-119.048" gradientUnits="userSpaceOnUse">
<stop stop-color="#FEBBBA"/>
<stop offset="1" stop-color="#FF928E"/>
</linearGradient>
<linearGradient id="paint8_linear_1464_7037" x1="198.766" y1="-135.716" x2="235.809" y2="-135.716" gradientUnits="userSpaceOnUse">
<stop stop-color="#09005D"/>
<stop offset="1" stop-color="#1A0F91"/>
</linearGradient>
<linearGradient id="paint9_linear_1464_7037" x1="73.261" y1="-146.257" x2="134.494" y2="-51.4439" gradientUnits="userSpaceOnUse">
<stop stop-color="#09005D"/>
<stop offset="1" stop-color="#1A0F91"/>
</linearGradient>
<linearGradient id="paint10_linear_1464_7037" x1="463.559" y1="145.113" x2="75.6156" y2="33.2933" gradientUnits="userSpaceOnUse">
<stop stop-color="#4F52FF"/>
<stop offset="1" stop-color="#4042E2"/>
</linearGradient>
<linearGradient id="paint11_linear_1464_7037" x1="178.457" y1="177.372" x2="171.642" y2="498.437" gradientUnits="userSpaceOnUse">
<stop stop-color="#4F52FF"/>
<stop offset="1" stop-color="#4042E2"/>
</linearGradient>
<linearGradient id="paint12_linear_1464_7037" x1="97.0462" y1="65.8382" x2="148.172" y2="126.11" gradientUnits="userSpaceOnUse">
<stop stop-color="#FF928E"/>
<stop offset="1" stop-color="#FE7062"/>
</linearGradient>
<linearGradient id="paint13_linear_1464_7037" x1="81.8692" y1="81.0034" x2="126.655" y2="133.8" gradientUnits="userSpaceOnUse">
<stop stop-color="#FFD6D4"/>
<stop offset="1" stop-color="#FFC9C3"/>
</linearGradient>
<linearGradient id="paint14_linear_1464_7037" x1="93.932" y1="68.9489" x2="143.759" y2="127.688" gradientUnits="userSpaceOnUse">
<stop stop-color="#FFD6D4"/>
<stop offset="1" stop-color="#FFC9C3"/>
</linearGradient>
<linearGradient id="paint15_linear_1464_7037" x1="75.4091" y1="87.4632" x2="117.48" y2="137.071" gradientUnits="userSpaceOnUse">
<stop stop-color="#FFD6D4"/>
<stop offset="1" stop-color="#FFC9C3"/>
</linearGradient>
<linearGradient id="paint16_linear_1464_7037" x1="36.572" y1="102.178" x2="87.2682" y2="135.919" gradientUnits="userSpaceOnUse">
<stop stop-color="#FF928E"/>
<stop offset="1" stop-color="#FE7062"/>
</linearGradient>
<linearGradient id="paint17_linear_1464_7037" x1="36.5007" y1="102.276" x2="87.1395" y2="135.979" gradientUnits="userSpaceOnUse">
<stop stop-color="#FFD6D4"/>
<stop offset="1" stop-color="#FFC9C3"/>
</linearGradient>
<linearGradient id="paint18_linear_1464_7037" x1="36.5007" y1="102.276" x2="87.1388" y2="135.979" gradientUnits="userSpaceOnUse">
<stop stop-color="#FFD6D4"/>
<stop offset="1" stop-color="#FFC9C3"/>
</linearGradient>
<linearGradient id="paint19_linear_1464_7037" x1="36.5004" y1="102.275" x2="87.1476" y2="135.977" gradientUnits="userSpaceOnUse">
<stop stop-color="#FFD6D4"/>
<stop offset="1" stop-color="#FFC9C3"/>
</linearGradient>
<linearGradient id="paint20_linear_1464_7037" x1="6.00951" y1="111.627" x2="56.6478" y2="145.33" gradientUnits="userSpaceOnUse">
<stop stop-color="#FF928E"/>
<stop offset="1" stop-color="#FE7062"/>
</linearGradient>
<linearGradient id="paint21_linear_1464_7037" x1="6.00943" y1="111.627" x2="56.6483" y2="145.329" gradientUnits="userSpaceOnUse">
<stop stop-color="#FFD6D4"/>
<stop offset="1" stop-color="#FFC9C3"/>
</linearGradient>
<linearGradient id="paint22_linear_1464_7037" x1="6.00932" y1="111.627" x2="56.6474" y2="145.33" gradientUnits="userSpaceOnUse">
<stop stop-color="#FFD6D4"/>
<stop offset="1" stop-color="#FFC9C3"/>
</linearGradient>
<linearGradient id="paint23_linear_1464_7037" x1="6.00875" y1="111.628" x2="56.643" y2="145.339" gradientUnits="userSpaceOnUse">
<stop stop-color="#FFD6D4"/>
<stop offset="1" stop-color="#FFC9C3"/>
</linearGradient>
<linearGradient id="paint24_linear_1464_7037" x1="115.739" y1="476.438" x2="245.044" y2="175.727" gradientUnits="userSpaceOnUse">
<stop stop-color="#4F52FF"/>
<stop offset="1" stop-color="#4042E2"/>
</linearGradient>
<linearGradient id="paint25_linear_1464_7037" x1="184.426" y1="36.5235" x2="225.074" y2="127.408" gradientUnits="userSpaceOnUse">
<stop stop-color="#FF928E"/>
<stop offset="1" stop-color="#FE7062"/>
</linearGradient>
<linearGradient id="paint26_linear_1464_7037" x1="159.996" y1="54.1782" x2="195.911" y2="134.478" gradientUnits="userSpaceOnUse">
<stop stop-color="#FFD6D4"/>
<stop offset="1" stop-color="#FFC9C3"/>
</linearGradient>
<linearGradient id="paint27_linear_1464_7037" x1="179.977" y1="39.7386" x2="219.763" y2="128.696" gradientUnits="userSpaceOnUse">
<stop stop-color="#FFD6D4"/>
<stop offset="1" stop-color="#FFC9C3"/>
</linearGradient>
<linearGradient id="paint28_linear_1464_7037" x1="156.205" y1="56.9171" x2="191.386" y2="135.574" gradientUnits="userSpaceOnUse">
<stop stop-color="#FFD6D4"/>
<stop offset="1" stop-color="#FFC9C3"/>
</linearGradient>
<linearGradient id="paint29_linear_1464_7037" x1="228.84" y1="-86.5867" x2="168.366" y2="8.66081" gradientUnits="userSpaceOnUse">
<stop stop-color="#FF928E"/>
<stop offset="1" stop-color="#FE7062"/>
</linearGradient>
<linearGradient id="paint30_linear_1464_7037" x1="197.303" y1="-52.504" x2="144.331" y2="30.9256" gradientUnits="userSpaceOnUse">
<stop stop-color="#FFD6D4"/>
<stop offset="1" stop-color="#FFC9C3"/>
</linearGradient>
<linearGradient id="paint31_linear_1464_7037" x1="218.902" y1="-75.8468" x2="160.792" y2="15.6764" gradientUnits="userSpaceOnUse">
<stop stop-color="#FFD6D4"/>
<stop offset="1" stop-color="#FFC9C3"/>
</linearGradient>
<linearGradient id="paint32_linear_1464_7037" x1="195.991" y1="-51.0633" x2="143.342" y2="31.8728" gradientUnits="userSpaceOnUse">
<stop stop-color="#FFD6D4"/>
<stop offset="1" stop-color="#FFC9C3"/>
</linearGradient>
<linearGradient id="paint33_linear_1464_7037" x1="120.962" y1="17.3353" x2="136.053" y2="-6.54386" gradientUnits="userSpaceOnUse">
<stop stop-color="#FEBBBA"/>
<stop offset="1" stop-color="#FF928E"/>
</linearGradient>
<linearGradient id="paint34_linear_1464_7037" x1="123.291" y1="20.925" x2="138.261" y2="-2.7614" gradientUnits="userSpaceOnUse">
<stop stop-color="#FEBBBA"/>
<stop offset="1" stop-color="#FF928E"/>
</linearGradient>
<linearGradient id="paint35_linear_1464_7037" x1="218.945" y1="-20.4839" x2="232.28" y2="-39.1646" gradientUnits="userSpaceOnUse">
<stop stop-color="#FEBBBA"/>
<stop offset="1" stop-color="#FF928E"/>
</linearGradient>
</defs>
</svg>
