<svg width="164" height="164" viewBox="0 0 164 164" fill="none" xmlns="http://www.w3.org/2000/svg">
<mask id="mask0_1464_6855" style="mask-type:alpha" maskUnits="userSpaceOnUse" x="0" y="0" width="164" height="164">
<rect width="164" height="164" fill="#C4C4C4"/>
</mask>
<g mask="url(#mask0_1464_6855)">
<path d="M85.1428 163.262C75.3675 163.262 67.9002 161.9 64.9218 161.298C54.1206 159.112 33.2419 154.887 18.147 137.2C4.46198 121.165 0.254635 99.5994 2.89202 78.9024C3.31233 81.127 3.79953 83.3777 4.36059 85.6558C15.0891 129.211 50.108 152.454 50.108 152.454C50.108 152.454 55.901 134.649 45.4383 110.911C45.1782 110.321 44.9075 109.71 44.627 109.078C57.001 95.9372 53.5868 65.5593 42.7715 44.7055C38.9719 37.3795 36.9169 27.2558 35.8052 18.2957C44.5863 11.1311 56.4528 4.5705 71.7235 2.58104C75.1761 2.13159 78.7259 1.90396 82.3211 1.90396C100.648 1.90396 120.232 7.80261 135.09 20.205C172.395 51.3452 169.739 114.255 144.656 140.566C141.345 144.037 138.214 146.277 135.739 148.046C118.496 160.373 99.3749 163.262 85.1428 163.262ZM18.6491 47.7077C17.8205 45.4198 17.0267 43.1539 16.2794 40.9311C16.3791 40.7719 16.4794 40.6128 16.58 40.4549C17.3571 39.2343 18.9324 36.6815 21.3577 33.4424C20.0983 38.5003 19.213 43.2515 18.6491 47.7077Z" fill="url(#paint0_linear_1464_6855)"/>
<path d="M2.89201 78.9023C-2.91898 48.1437 4.14562 22.8375 7.81973 12.5737C7.98546 12.1105 8.36301 11.8931 8.73304 11.8931C9.18281 11.8931 9.62155 12.2143 9.65509 12.8064C10.0737 20.1915 12.6379 30.097 16.2794 40.9311C13.5025 45.3589 11.0817 50.1418 9.06547 55.1606C8.83321 53.452 8.64739 51.7335 8.50667 50.0096C8.43457 49.3781 8.42703 48.739 8.38148 48.1043L8.27092 46.1947L8.23651 44.2796L8.21968 43.3204C8.22001 43.0014 8.23148 42.6813 8.23683 42.3612C8.25475 41.7221 8.25409 41.0819 8.28741 40.4417L8.40201 38.5222C8.51672 37.2451 8.62127 35.9614 8.85889 34.6953C8.86129 34.6854 8.8555 34.6756 8.84589 34.6734C8.8448 34.6734 8.84359 34.6734 8.8425 34.6734C8.83431 34.6734 8.82655 34.6789 8.82426 34.6876C8.27332 37.2134 8.02151 39.7917 7.90691 42.3623C7.89085 42.6845 7.86867 43.0068 7.85753 43.328L7.84234 44.2927L7.81284 46.2231L7.85993 48.1502C7.88112 48.7926 7.87708 49.4371 7.93618 50.0762C8.06575 52.2273 8.26513 54.374 8.53672 56.5066C5.79952 63.6328 3.8725 71.208 2.89201 78.9023Z" fill="#C9D8FC"/>
<path d="M50.108 152.455C50.108 152.455 15.0891 129.211 4.36069 85.6566C3.79956 83.3781 3.31241 81.127 2.89209 78.9025C3.87262 71.2084 5.79966 63.6332 8.53688 56.5069C8.91185 59.4519 9.42415 62.3741 10.0793 65.2552C10.3128 66.5115 10.6728 67.7293 10.9876 68.961C11.3213 70.1861 11.6021 71.4315 12.0081 72.6311L13.148 76.2582C13.325 76.8681 13.5635 77.4523 13.7796 78.0457L14.4401 79.8223L15.1008 81.5979L15.4338 82.4848L15.8056 83.3525L17.2933 86.8242C17.5455 87.4002 17.78 87.9881 18.0468 88.5541L18.8447 90.2539L20.4404 93.6552C22.6067 98.1683 24.804 102.664 27.1074 107.096C28.2429 109.322 29.4124 111.526 30.5708 113.737L34.1132 120.326C36.4791 124.714 38.8503 129.096 41.0778 133.554C41.6499 134.662 42.1673 135.796 42.7034 136.923C42.9787 137.482 43.2156 138.06 43.4658 138.632C43.7103 139.206 43.9704 139.774 44.2021 140.355C44.6421 141.525 45.1246 142.681 45.4843 143.885C45.908 145.066 46.1845 146.296 46.4994 147.517L46.5017 147.525C46.5186 147.591 46.5739 147.632 46.635 147.632C46.6495 147.632 46.6635 147.63 46.678 147.625C46.752 147.602 46.7968 147.522 46.7823 147.444C46.2974 144.936 45.5564 142.501 44.6729 140.135C44.4535 139.543 44.2056 138.965 43.9734 138.379C43.7353 137.796 43.5094 137.206 43.2469 136.637C42.7354 135.49 42.2412 134.332 41.6941 133.206C39.5539 128.671 37.2154 124.261 34.9188 119.831L31.4699 113.189C30.3274 110.973 29.1721 108.763 28.0527 106.534C25.7905 102.087 23.5961 97.6032 21.4366 93.1002L19.8469 89.7062L19.0519 88.0092C18.7861 87.4432 18.5496 86.8672 18.2969 86.2966L16.8036 82.8642L16.4301 82.0066L16.0956 81.1298L15.4317 79.3742C13.6028 74.7185 12.1562 69.8926 10.9515 64.9982C10.143 61.7688 9.51686 58.4818 9.06564 55.161C11.0819 50.1422 13.5026 45.3594 16.2795 40.9313C17.0267 43.1549 17.8205 45.4206 18.6491 47.7083C12.5594 95.8404 43.8703 109.842 43.8703 109.842C44.1287 109.594 44.3813 109.34 44.627 109.079C44.9075 109.711 45.1782 110.321 45.4383 110.912C55.9009 134.65 50.108 152.455 50.108 152.455Z" fill="url(#paint1_linear_1464_6855)"/>
<path d="M8.53685 56.5061C8.26533 54.3729 8.06583 52.2274 7.93636 50.0752C7.8772 49.4369 7.8813 48.7919 7.86005 48.1497L7.81299 46.2233L7.84243 44.2921L7.85767 43.327C7.86882 43.006 7.89092 42.6839 7.90702 42.3619C8.02163 39.7914 8.27343 37.2134 8.82437 34.6877C8.82666 34.6791 8.83447 34.6724 8.84266 34.6724C8.84381 34.6724 8.84495 34.6724 8.846 34.6724C8.85562 34.6744 8.86143 34.6848 8.85905 34.6944C8.62145 35.9605 8.51694 37.2448 8.40214 38.5215L8.28753 40.4412C8.25428 41.0814 8.25495 41.7217 8.23694 42.361C8.2316 42.6811 8.22017 43.0012 8.21979 43.3204L8.23656 44.2788L8.27104 46.1947L8.38165 48.103C8.42719 48.7385 8.43472 49.3778 8.50684 50.0095C8.64755 51.7339 8.83333 53.4507 9.0656 55.1609C8.88592 55.6077 8.71015 56.0555 8.53685 56.5061Z" fill="#EAEFFD"/>
<path d="M46.635 147.632C46.5739 147.632 46.5187 147.59 46.5018 147.525L46.4995 147.517C46.1845 146.296 45.9081 145.066 45.4844 143.884C45.1247 142.681 44.6422 141.525 44.2021 140.354C43.9705 139.774 43.7103 139.206 43.4659 138.632C43.2156 138.06 42.9787 137.482 42.7034 136.922C42.1674 135.796 41.6499 134.662 41.0778 133.554C38.8503 129.096 36.4792 124.714 34.1133 120.326L30.5709 113.737C29.4124 111.526 28.2429 109.322 27.1074 107.096C24.8041 102.664 22.6067 98.1681 20.4405 93.655L18.8447 90.2542L18.0468 88.5539C17.78 87.9874 17.5455 87.3993 17.2933 86.8237L15.8056 83.3519L15.4337 82.4843L15.1007 81.5969L14.44 79.8213L13.7796 78.0456C13.5636 77.4518 13.325 76.8679 13.148 76.2576L12.0082 72.6302C11.6021 71.4311 11.3213 70.1864 10.9875 68.9599C10.6728 67.7284 10.3127 66.511 10.0793 65.2548C9.42419 62.3734 8.91184 59.4515 8.53687 56.5065C8.71013 56.0557 8.88587 55.6075 9.06559 55.1609C9.51682 58.4814 10.143 61.7689 10.9515 64.9976C12.1562 69.8919 13.6028 74.7177 15.4317 79.3738L16.0956 81.1296L16.4301 82.0063L16.8035 82.8639L18.2969 86.2961C18.5496 86.8667 18.7862 87.4432 19.0518 88.008L19.8468 89.7059L21.4366 93.0992C23.5961 97.6032 25.7905 102.087 28.0527 106.534C29.1721 108.763 30.3274 110.972 31.4699 113.189L34.9187 119.83C37.2155 124.26 39.5541 128.671 41.6942 133.205C42.2413 134.332 42.7354 135.49 43.247 136.636C43.5095 137.206 43.7354 137.796 43.9734 138.379C44.2057 138.965 44.4536 139.543 44.673 140.134C45.5566 142.5 46.2975 144.936 46.7823 147.444C46.7969 147.522 46.752 147.601 46.6781 147.625C46.6635 147.63 46.6496 147.632 46.635 147.632Z" fill="url(#paint2_linear_1464_6855)"/>
<path d="M21.3577 33.4434C23.7616 23.7906 27.5308 13.0186 33.047 1.0065C33.2018 0.670605 33.4911 0.516022 33.775 0.516022C34.1598 0.516022 34.5334 0.799614 34.5468 1.29823C34.6435 4.98265 34.9351 11.2834 35.8052 18.2965C34.3338 19.4972 32.9504 20.7141 31.6505 21.9298C31.678 20.6967 31.7135 19.4635 31.7586 18.2303C31.7949 17.3028 31.8339 16.3753 31.882 15.4478L31.9618 14.0566L32.0089 13.3627C32.0281 13.1337 32.0436 12.8943 32.0704 12.6827L32.0728 12.663C32.0791 12.6142 32.0469 12.5712 32.001 12.5654C31.9981 12.5654 31.9952 12.5654 31.9923 12.5654C31.9505 12.5654 31.9135 12.5979 31.9066 12.6432C31.8687 12.8931 31.8541 13.1174 31.8303 13.3522L31.7731 14.0484L31.6734 15.4408C31.6118 16.3695 31.5597 17.2982 31.5097 18.2268C31.4421 19.5588 31.3855 20.8908 31.338 22.2239C27.111 26.2186 23.8028 30.1785 21.3577 33.4434Z" fill="#A4C0FB"/>
<path d="M44.6272 109.078C38.258 94.7546 26.7355 70.0289 18.6492 47.7075C19.2131 43.2514 20.0984 38.5005 21.3578 33.443C23.8029 30.1781 27.1112 26.2181 31.3382 22.2234C31.3195 22.7478 31.3023 23.2734 31.2863 23.7989C31.1782 27.5146 31.161 31.2303 31.199 34.9428C31.234 38.6553 31.3597 42.3647 31.5573 46.0666L31.6291 47.4547L31.7184 48.8418C31.7815 49.7655 31.8287 50.6923 31.9066 51.6149L32.1224 54.3837L32.3777 57.1484C33.0953 64.5155 34.1779 71.8362 35.7505 79.0285C35.8 79.2539 35.8454 79.4793 35.8973 79.7036L36.0585 80.3734L36.3804 81.7141L36.7028 83.0549C36.8151 83.5004 36.9391 83.9417 37.0572 84.3861L37.4146 85.715C37.5374 86.1568 37.6445 86.6038 37.7825 87.0409L38.5746 89.6729C39.6933 93.1581 40.9586 96.588 42.4463 99.9039C42.4602 99.9353 42.4893 99.9528 42.5202 99.9528C42.533 99.9528 42.5464 99.9498 42.5592 99.9434C42.6005 99.9213 42.6192 99.8689 42.6005 99.8247V99.8242C41.1915 96.4763 39.9697 93.0417 38.9081 89.5478L38.1433 86.9152C38.0101 86.4787 37.9076 86.0317 37.7894 85.5894L37.4455 84.2608C37.3325 83.8174 37.2127 83.375 37.105 82.9306L36.7965 81.5899L36.488 80.2502L36.3338 79.5804C36.2838 79.3571 36.2407 79.1307 36.1941 78.9063L35.6383 76.2101C35.4579 75.3097 35.3019 74.4029 35.1325 73.5003C35.0504 73.0474 34.9631 72.5977 34.8857 72.1438L34.6645 70.782L34.4433 69.4191C34.3677 68.9663 34.2956 68.5113 34.2332 68.0552C33.6814 64.4144 33.2665 60.7461 32.887 57.0757C32.154 49.7265 31.7781 42.3288 31.6244 34.9207C31.5535 31.2155 31.5509 27.5062 31.6149 23.7958C31.6249 23.1733 31.6368 22.5509 31.6506 21.9295C32.9504 20.7131 34.3339 19.4966 35.8053 18.296C36.917 27.2555 38.9722 37.3788 42.7717 44.7049C53.5869 65.5592 57.0012 95.9373 44.6272 109.078Z" fill="url(#paint3_linear_1464_6855)"/>
<path d="M43.8702 109.842C43.8702 109.842 12.5592 95.8401 18.6489 47.7077C26.7352 70.0293 38.2577 94.7552 44.6268 109.079C44.3812 109.34 44.1286 109.594 43.8702 109.842Z" fill="url(#paint4_linear_1464_6855)"/>
<path d="M31.3384 22.2227C31.3857 20.8905 31.4423 19.5584 31.51 18.2262C31.5599 17.2968 31.6121 16.3684 31.6736 15.44L31.7732 14.048L31.8305 13.3515C31.8543 13.1175 31.869 12.8922 31.9069 12.6418C31.9136 12.5972 31.9507 12.5646 31.9925 12.5646C31.9954 12.5646 31.9983 12.5646 32.0011 12.5646C32.0472 12.57 32.0794 12.6136 32.0731 12.6625L32.0706 12.6821C32.0437 12.8933 32.0283 13.1327 32.0091 13.3613L31.962 14.0556L31.8823 15.4465C31.8341 16.3738 31.7952 17.3022 31.7588 18.2295C31.7136 19.4626 31.6782 20.6957 31.6507 21.9288C31.5461 22.0268 31.4418 22.1247 31.3384 22.2227Z" fill="#DAE6FD"/>
<path d="M42.5202 99.9529C42.4894 99.9529 42.4602 99.9355 42.4463 99.904C40.9586 96.5881 39.6933 93.1582 38.5746 89.673L37.7825 87.0411C37.6445 86.6042 37.5374 86.1568 37.4146 85.7156L37.0572 84.3857C36.9391 83.9414 36.8152 83.5002 36.7028 83.0559L36.3803 81.7146L36.0585 80.3745L35.8972 79.7034C35.8455 79.4796 35.8 79.2539 35.7505 79.0291C34.1779 71.8365 33.0953 64.515 32.3777 57.1482L32.1225 54.3843L31.9066 51.6143C31.8287 50.6917 31.7814 49.7659 31.7183 48.8422L31.6291 47.4546L31.5573 46.067C31.3596 42.364 31.2339 38.6558 31.1991 34.9425C31.161 31.2302 31.1781 27.5149 31.2862 23.7995C31.3023 23.2737 31.3195 22.749 31.3381 22.2232C31.4416 22.1253 31.546 22.0274 31.6505 21.9294C31.6367 22.5521 31.6248 23.1737 31.6148 23.7964C31.5509 27.5066 31.5534 31.2158 31.6244 34.9209C31.778 42.33 32.154 49.7267 32.887 57.076C33.2665 60.7471 33.6814 64.414 34.2332 68.0552C34.2955 68.5119 34.3677 68.9665 34.4433 69.419L34.6645 70.7819L34.8857 72.1437C34.963 72.5973 35.0503 73.0478 35.1324 73.5004C35.3019 74.4035 35.4578 75.3096 35.6383 76.2096L36.1941 78.9065C36.2406 79.1312 36.2837 79.357 36.3338 79.5807L36.4881 80.2508L36.7965 81.5899L37.1049 82.9311C37.2127 83.3754 37.3326 83.8177 37.4455 84.261L37.7895 85.5898C37.9076 86.0321 38.01 86.4785 38.1433 86.9153L38.9081 89.548C39.9697 93.0418 41.1915 96.4764 42.6005 99.8242V99.8248C42.6192 99.8691 42.6005 99.9214 42.5592 99.9436C42.5464 99.95 42.533 99.9529 42.5202 99.9529Z" fill="url(#paint5_linear_1464_6855)"/>
<path d="M140.794 96.2296C142.224 98.5188 143.722 101.789 143.359 105.06C142.695 111.031 133.536 113.685 125.509 110.368C119.787 108.003 122.224 100.244 124.094 95.9829C124.686 94.6326 123.707 93.1175 122.232 93.1175H101.558V69.8308C101.558 67.7983 103.711 66.49 105.513 67.4316C107.673 68.5583 110.513 69.7544 113.502 70.2264C119.804 71.2223 126.108 64.2552 125.444 57.62C124.78 50.986 118.478 46.0096 111.843 46.3416C109.548 46.4561 107.638 47.4151 106.122 48.6216C104.376 50.0109 101.792 48.6887 101.792 46.4573V26.1041C101.792 26.1041 139.989 26.1041 141.087 26.1041H158.981C160.8 26.1041 162.279 27.5709 162.293 29.3905C162.368 39.3016 162.585 68.3119 162.576 69.8342L162.433 93.1175H142.505C140.906 93.1175 139.949 94.8741 140.794 96.2296Z" fill="#91B3FA"/>
<path d="M119.661 156.812H101.558V137.302C101.558 135.35 99.5654 134.049 97.7672 134.808C95.8009 135.638 93.1302 136.427 89.8954 136.576C82.6491 136.908 77.1326 130.936 78.232 122.643C79.3315 114.349 86.3857 112.358 89.825 113.353C91.6216 113.873 94.7396 115.865 97.3107 117.651C99.1043 118.898 101.558 117.612 101.558 115.426V93.1172H122.231C123.706 93.1172 124.687 94.6323 124.093 95.9826C122.223 100.244 119.788 108.003 125.509 110.368C133.537 113.685 142.695 111.031 143.359 105.06C143.721 101.789 142.223 98.5185 140.794 96.2294C139.949 94.8739 140.907 93.1172 142.505 93.1172H162.433C162.433 93.1172 162.908 133.525 162.893 135.954L162.79 153.313C162.778 155.249 161.206 156.812 159.269 156.812H145.126C142.814 156.812 121.864 156.812 119.661 156.812Z" fill="url(#paint6_linear_1464_6855)"/>
<path d="M61.9561 156.915H46.7788C44.3866 156.915 42.4468 154.976 42.4468 152.583V138.229C42.4468 136.113 42.4893 116.459 42.4893 114.307V92.6202H62.5123C64.1623 92.6202 65.1309 90.7433 64.1545 89.4125C59.4682 83.0206 63.5575 73.9226 67.057 72.3837C71.2035 70.5584 79.6632 70.0608 82.1511 79.3506C83.4467 84.1879 82.2583 87.721 80.8211 89.9961C79.9652 91.352 80.9126 93.1178 82.5157 93.1178H101.558V115.427C101.558 117.612 99.1048 118.898 97.31 117.651C94.7392 115.866 91.6207 113.873 89.8244 113.354C86.3852 112.358 79.3315 114.349 78.2315 122.643C77.1322 130.936 82.6487 136.908 89.8949 136.576C93.1299 136.428 95.8001 135.638 97.7662 134.808C99.5656 134.049 101.558 135.35 101.558 137.302V156.813H83.8112C81.5354 156.813 64.3336 156.915 61.9561 156.915Z" fill="url(#paint7_linear_1464_6855)"/>
<path d="M63.9757 48.1327C63.9757 48.1327 49.71 63.3124 36.0684 64.1434C36.0684 64.1434 37.2091 71.8451 39.0047 73.0476C39.0047 73.0476 57.5692 62.7912 64.161 50.7161L63.9757 48.1327Z" fill="url(#paint8_linear_1464_6855)"/>
<path d="M83.9867 69.3179C85.2781 67.274 86.346 64.0987 85.1817 59.7514C82.9461 51.4039 75.3436 51.8508 71.6169 53.4905C68.4727 54.8739 64.7978 63.0494 69.0094 68.7933C69.8865 69.9894 69.0163 71.6751 67.5334 71.6751H49.5399L48.9806 13.5178C48.9695 12.3611 49.9095 11.4202 51.066 11.4312L100.574 11.8825C101.824 11.8934 102.832 12.9099 102.832 14.1596V30.193C102.832 32.2182 105.169 33.3628 106.758 32.1087C108.116 31.0386 109.819 30.1897 111.863 30.0878C117.826 29.7899 123.49 34.2621 124.086 40.224C124.682 46.1869 119.018 52.4467 113.354 51.5529C110.668 51.129 108.116 50.0534 106.176 49.0402C104.556 48.1946 102.621 49.3699 102.621 51.1969V72.123H85.5092C84.0677 72.123 83.2173 70.5359 83.9867 69.3179Z" fill="url(#paint9_linear_1464_6855)"/>
<path d="M29.9122 47.4724C29.9122 47.4724 27.3905 48.6989 26.9268 50.1081C26.5549 51.2384 23.7665 51.3844 23.4911 53.6075C23.3488 54.7562 22.4993 55.675 21.3558 55.8498C18.508 56.2869 14.1193 57.7652 13.4171 62.7097C12.8812 66.4845 14.805 67.9147 16.8242 68.4103C18.3071 68.774 19.2926 70.2173 18.9928 71.7139C18.7051 73.1503 19.1341 74.8104 21.6219 76.1225C27.1971 79.0651 32.7646 69.1534 32.7646 69.1534L33.906 51.8478L29.9122 47.4724Z" fill="url(#paint10_linear_1464_6855)"/>
<path d="M6.99612 155.984L6.63537 158.95C6.56693 159.512 6.12394 159.957 5.56082 160.021C4.61001 160.13 3.08432 160.241 1.59152 160.084C0.936207 160.014 0.510857 159.351 0.710436 158.723C1.07438 157.578 1.74011 155.859 2.70001 154.848H5.99007C6.59836 154.848 7.06963 155.38 6.99612 155.984Z" fill="url(#paint11_linear_1464_6855)"/>
<path d="M32.7645 121.241L33.3198 124.508C33.3198 124.508 31.4605 143.344 31.1296 150.878C31.0777 152.06 31.3833 153.227 32.0034 154.234L35.237 159.485L27.0189 154.635L26.8553 153.632L28.2006 151.783L26.4385 130.682C26.335 129.442 26.5907 128.199 27.1753 127.101L28.875 123.908L32.7645 121.241Z" fill="url(#paint12_linear_1464_6855)"/>
<path d="M35.7784 160.245H33.1558C32.6646 160.245 32.2018 160.02 31.9024 159.631C31.0849 158.569 29.391 156.496 28.581 156.442C27.4907 156.369 27.6302 160.245 27.6302 160.245H27.019L26.2448 155.429C26.05 154.217 26.6527 153.016 27.741 152.448C27.741 152.448 27.9902 154.292 29.3417 155.107C30.6932 155.923 34.8414 158.842 34.8414 158.842C34.8414 158.842 35.3495 158.77 35.9071 158.871C36.7347 159.02 36.6189 160.245 35.7784 160.245Z" fill="url(#paint13_linear_1464_6855)"/>
<path d="M21.5088 122.792C21.5088 122.792 10.6146 143.458 8.88286 148.176C7.15109 152.894 6.54444 156.83 6.52122 157.203C6.4849 157.785 5.7605 158.344 3.76367 158.344C2.73325 158.344 2.22851 157.931 1.98143 157.531C1.77056 157.19 1.75974 156.763 1.93738 156.404C2.56754 155.128 4.5674 151.053 5.30809 149.204C6.19237 146.997 8.09456 136.995 9.13773 133.518C10.181 130.04 11.3602 126.267 15.9031 122.792C15.9031 122.792 19.0217 119.738 21.5088 122.792Z" fill="url(#paint14_linear_1464_6855)"/>
<path d="M28.3909 88.9313C31.2011 77.023 24.082 70.2887 24.082 70.2887C28.574 65.977 36.7586 64.0143 36.7586 64.0143C36.7586 64.0143 44.5683 69.7239 43.6417 74.1933C43.0986 76.8128 38.1519 89.8817 38.1519 89.8817C38.1519 89.8817 33.5784 92.0469 28.3909 88.9313Z" fill="url(#paint15_linear_1464_6855)"/>
<path d="M22.1604 94.8266C23.304 91.3809 28.3911 88.9312 28.3911 88.9312C33.5786 92.0466 38.1523 89.8814 38.1523 89.8814C38.1523 89.8814 39.1782 93.8026 38.4697 97.4461C37.7624 101.09 33.3201 124.508 33.3201 124.508C26.3215 125.925 15.5574 123.081 15.5574 123.081C20.0154 115.166 21.0167 98.2718 22.1604 94.8266Z" fill="url(#paint16_linear_1464_6855)"/>
<path d="M31.6529 56.1452L29.3681 66.4085C29.1494 67.3116 29.9734 67.1644 30.8874 66.9916C32.3841 66.7096 34.313 66.1282 34.9578 64.9637C35.0237 64.8455 35.0563 64.7115 35.0749 64.5767L36.0568 57.4602C36.1342 56.8962 35.8292 56.3487 35.3083 56.1171L33.4137 55.2777C32.6844 54.9535 31.8405 55.3703 31.6529 56.1452Z" fill="url(#paint17_linear_1464_6855)"/>
<path d="M22.819 73.458C22.819 73.458 43.718 98.9777 59.3324 69.9203C59.3324 69.9203 59.6322 69.1777 59.4444 68.1059C59.3502 67.5643 59.7079 65.644 59.905 64.6626C59.9684 64.3473 59.7435 64.0483 59.4236 64.0181C59.1724 63.9942 58.9267 64.0993 58.7714 64.2971L55.9192 67.9298C55.7059 68.6484 56.049 69.4157 56.7267 69.7364C57.1587 69.942 57.2954 70.4906 57.0049 70.8708C45.13 86.4369 25.2691 69.3562 24.9057 69.5572C23.6161 70.2681 22.1263 71.0547 22.819 73.458Z" fill="url(#paint18_linear_1464_6855)"/>
<path d="M34.3333 46.374C34.3333 46.374 37.0397 47.5161 38.8795 51.4266C40.7193 55.3362 39.3451 57.1416 37.6195 57.3903C35.8937 57.6372 33.3124 57.6002 30.5826 55.0743C27.8526 52.5475 30.816 45.0193 34.3333 46.374Z" fill="url(#paint19_linear_1464_6855)"/>
<path d="M32.4177 52.9869C32.4177 52.9869 30.376 47.2661 35.4477 47.1984L36.6415 48.0331C36.6415 48.0331 38.5022 44.8615 35.4477 43.3475C32.3937 41.8327 28.8187 43.0838 27.5189 47.1984C26.2191 51.3139 25.9972 54.0682 28.1596 56.0374C30.3221 58.0067 31.2133 55.7736 31.2133 55.7736C31.2133 55.7736 30.0357 53.9318 30.5151 52.9471C30.9945 51.9616 32.1002 53.1513 32.1002 53.1513L32.4177 52.9869Z" fill="url(#paint20_linear_1464_6855)"/>
<path d="M31.8486 53.6241C31.8486 53.6241 30.8164 50.6771 29.4395 51.8504C28.0626 53.0246 30.5586 54.5724 31.5357 55.0742L31.8486 53.6241Z" fill="url(#paint21_linear_1464_6855)"/>
<path d="M136.122 156.098C136.122 156.098 136.569 158.492 136.799 160.864C136.889 161.791 136.182 162.603 135.251 162.651C132.092 162.813 125.332 163.133 122.904 163.048C122.54 163.035 122.297 162.664 122.429 162.324C122.54 162.038 122.756 161.806 123.032 161.676L134.153 156.436L136.122 156.098Z" fill="url(#paint22_linear_1464_6855)"/>
<path d="M136.456 154.686L136.143 157.558C136.143 157.558 134.195 158.487 132.848 157.474L133.629 154.27L136.456 154.686Z" fill="url(#paint23_linear_1464_6855)"/>
<path d="M135.685 100.761C135.84 101.509 136.831 138.134 133.072 154.587C133.011 154.855 133.149 155.13 133.405 155.232C134.008 155.472 135.189 155.815 136.601 155.85C137.037 155.86 137.426 155.572 137.546 155.152C138.629 151.332 143.809 132.199 144.336 113.963C144.923 93.5862 144.329 113.269 144.329 113.269L143.75 100.683L135.685 100.761Z" fill="url(#paint24_linear_1464_6855)"/>
<path d="M148.982 157.227C148.982 157.227 149.668 158.431 150.352 161.642C150.475 162.221 150.075 162.781 149.486 162.845C148.443 162.958 146.837 163.105 145.55 163.108C144.956 163.11 144.488 162.597 144.553 162.008C144.685 160.832 145.112 158.902 146.469 157.387L148.982 157.227Z" fill="url(#paint25_linear_1464_6855)"/>
<path d="M149.54 153.532L148.785 157.877C148.785 157.877 148.006 158.469 146.446 158.06L146.78 153.389L149.54 153.532Z" fill="url(#paint26_linear_1464_6855)"/>
<path d="M151.194 101.737C154.582 121.034 150.956 149.512 149.695 155.092C149.617 155.433 149.344 155.697 149 155.757C148.414 155.86 147.449 155.949 146.494 155.681C146.165 155.589 145.931 155.295 145.915 154.954C145.696 150.455 145.749 122.824 142.661 111.933C142.504 111.381 142.163 110.902 141.692 110.574L135.861 106.512L135.353 99.8608L151.194 101.737Z" fill="url(#paint27_linear_1464_6855)"/>
<path d="M130.439 65.3116C140.034 65.0612 150.65 67.6383 150.65 67.6383C153.67 84.3031 151.493 103.579 151.493 103.579C144.082 105.598 135.67 102.539 135.67 102.539C134.369 95.5735 128.42 75.9926 128.42 75.9926C123.725 75.4558 119.85 74.1394 116.651 72.3813C119.051 69.5462 120.16 65.9556 120.637 63.8356C124.041 64.8579 127.479 65.3882 130.439 65.3116Z" fill="url(#paint28_linear_1464_6855)"/>
<path d="M101.955 51.4466C102.888 50.299 104.086 50.826 104.086 50.826C105.556 56.7783 113.006 61.5442 120.637 63.8359C120.16 65.9558 119.05 69.5463 116.651 72.3821C103.957 65.4036 101.955 51.4466 101.955 51.4466Z" fill="url(#paint29_linear_1464_6855)"/>
<path d="M102.187 51.7329C102.092 52.0471 103.238 52.5143 103.9 51.2247C103.917 50.61 104.266 47.9735 103.893 47.4754C101.912 44.8271 98.0875 41.5203 98.0875 41.5203C97.4518 42.1587 97.9855 42.7753 97.9855 42.7753L99.8443 44.6741C99.4663 45.3735 99.0018 45.9654 98.7906 46.8078C98.6294 47.4471 98.7387 48.1265 99.0656 48.7039C99.3935 49.2822 99.8415 50.0345 100.264 50.6228C101.063 51.7356 102.187 51.7329 102.187 51.7329Z" fill="url(#paint30_linear_1464_6855)"/>
<path d="M100.661 45.911L102.351 47.3161L102.891 48.7266L101.412 50.3987C101.412 50.3987 100.882 47.5963 100.503 46.9918C100.123 46.3873 100.314 46.0921 100.661 45.911Z" fill="url(#paint31_linear_1464_6855)"/>
<path d="M147.057 76.9666L150.65 67.6389C150.65 67.6389 159.672 73.6437 161.22 81.3522C159.527 81.493 156.45 81.9627 153.447 83.5149C152.75 79.8749 147.057 76.9666 147.057 76.9666Z" fill="url(#paint32_linear_1464_6855)"/>
<path d="M139.306 85.7857C139.306 85.7857 149.425 91.378 152.775 86.4882C153.47 85.4732 153.63 84.4692 153.447 83.5152C156.449 81.9628 159.526 81.4931 161.22 81.3522C161.687 83.6764 161.475 86.1548 160.131 88.6703C154.287 99.6087 137.999 88.2797 137.999 88.2797L139.306 85.7857Z" fill="url(#paint33_linear_1464_6855)"/>
<path d="M140.086 57.4279L143.224 66.2291C143.276 66.3755 143.217 66.5374 143.082 66.6132C142.255 67.0814 139.268 68.4403 135.632 66.1844C135.253 65.9488 134.993 65.5616 134.932 65.1204L133.87 57.4871L140.086 57.4279Z" fill="url(#paint34_linear_1464_6855)"/>
<path d="M141.375 94.6233L135.862 75.3735C135.8 75.1548 135.614 74.9957 135.388 74.969C134.389 74.8529 131.495 74.5254 128.154 74.243C124.129 73.9021 119.456 73.6259 116.663 73.8611C116.265 73.895 116.026 74.3139 116.202 74.6722C117.79 77.885 124.324 90.9552 127.595 95.2373C127.704 95.3793 127.871 95.4619 128.05 95.4602L140.838 95.3415C141.211 95.338 141.477 94.9806 141.375 94.6233Z" fill="url(#paint35_linear_1464_6855)"/>
<path d="M140.043 89.9722C140.043 89.9722 140.811 86.8148 140.501 85.695C140.191 84.5741 139.591 83.1345 137.591 83.4543C135.591 83.7751 133.232 84.617 133.232 84.617C133.232 84.617 133.35 86.0761 134.871 85.605L133.927 86.3346C133.927 86.3346 134.062 87.5034 135.347 86.8792L134.47 87.8465C134.47 87.8465 135.022 88.8057 135.966 88.1906C136.911 87.575 137.364 90.3522 140.043 89.9722Z" fill="url(#paint36_linear_1464_6855)"/>
<path d="M128.522 79.9894C128.522 80.8831 127.797 81.6072 126.904 81.6072C126.01 81.6072 125.286 80.8831 125.286 79.9894C125.286 79.0957 126.01 78.3716 126.904 78.3716C127.797 78.3716 128.522 79.0957 128.522 79.9894Z" fill="#91B3FA"/>
<path d="M135.225 81.0601L134.103 77.2523C133.967 76.7902 133.594 76.4441 133.133 76.347C129.618 75.6142 119.99 75.4575 119.893 75.4565L119.901 74.9964C120.297 75.0024 129.668 75.1541 133.227 75.8968C133.855 76.0287 134.36 76.4977 134.544 77.1224L135.666 80.9292L135.225 81.0601Z" fill="#BDD0FB"/>
<path d="M133.56 47.5801C133.457 47.7025 129.762 57.6449 129.762 57.6449L135.483 59.634L140.385 50.7306C140.385 50.7306 135.291 45.5267 133.56 47.5801Z" fill="url(#paint37_linear_1464_6855)"/>
<path d="M138.015 51.2364C138.14 51.4755 138.148 51.7572 138.036 52.0035L135.856 56.821C135.822 56.8938 135.781 56.9613 135.729 57.0226C135.442 57.3594 134.441 58.3582 133.454 57.27C132.611 56.3429 131.824 55.5031 131.052 55.2079C130.6 55.0364 130.097 55.2744 129.929 55.7276C129.586 56.662 128.932 58.5599 128.587 60.3289C128.501 60.7727 128.774 61.2061 129.21 61.3257C130.36 61.6437 132.62 62.1967 134.576 62.2403C134.897 62.2465 135.195 62.0771 135.353 61.7975C136.05 60.568 138.017 57.1276 138.721 56.2431C139.375 55.4199 140.774 55.5395 141.409 55.6455C141.65 55.685 141.896 55.6236 142.09 55.475C142.671 55.026 143.651 53.9638 142.471 52.4941C142.178 52.1282 142.243 51.5888 142.603 51.2874C143.247 50.7479 143.904 49.8 143.021 48.4904C142.129 47.1631 140.811 47.187 139.936 47.3991C139.55 47.4916 139.128 47.3325 138.934 46.9833C138.849 46.8284 138.701 46.7058 138.448 46.684C137.972 46.6434 137.617 46.2537 137.655 45.7776C137.719 44.9607 137.481 43.9369 136.125 43.384C133.639 42.3685 131.832 44.7008 131.516 46.5291C131.2 48.3574 133.959 49.3053 135.627 49.323C136.853 49.3365 137.667 50.5775 138.015 51.2364Z" fill="url(#paint38_linear_1464_6855)"/>
<path d="M137.898 58.0144C137.898 58.0144 138.585 54.8519 139.929 54.8097C141.272 54.7676 142.473 55.9719 140.996 57.6524C139.16 59.7443 137.898 58.0144 137.898 58.0144Z" fill="url(#paint39_linear_1464_6855)"/>
</g>
<defs>
<linearGradient id="paint0_linear_1464_6855" x1="393.159" y1="232.096" x2="106.25" y2="-124.227" gradientUnits="userSpaceOnUse">
<stop stop-color="#DAE3FE"/>
<stop offset="1" stop-color="#E9EFFD"/>
</linearGradient>
<linearGradient id="paint1_linear_1464_6855" x1="304" y1="223.134" x2="78.1236" y2="-57.3901" gradientUnits="userSpaceOnUse">
<stop stop-color="#C2D3FC"/>
<stop offset="1" stop-color="#C5D6FB"/>
</linearGradient>
<linearGradient id="paint2_linear_1464_6855" x1="272.496" y1="219.967" x2="68.1855" y2="-33.7731" gradientUnits="userSpaceOnUse">
<stop stop-color="#E3EAFD"/>
<stop offset="1" stop-color="#E6EDFD"/>
</linearGradient>
<linearGradient id="paint3_linear_1464_6855" x1="354.115" y1="228.171" x2="93.9328" y2="-94.9585" gradientUnits="userSpaceOnUse">
<stop stop-color="#9DBBFB"/>
<stop offset="1" stop-color="#A0BDFB"/>
</linearGradient>
<linearGradient id="paint4_linear_1464_6855" x1="288.997" y1="221.626" x2="73.3913" y2="-46.1434" gradientUnits="userSpaceOnUse">
<stop stop-color="#99B8FA"/>
<stop offset="1" stop-color="#9AB9FA"/>
</linearGradient>
<linearGradient id="paint5_linear_1464_6855" x1="346.072" y1="227.363" x2="91.3968" y2="-88.929" gradientUnits="userSpaceOnUse">
<stop stop-color="#D4E1FD"/>
<stop offset="1" stop-color="#D7E3FD"/>
</linearGradient>
<linearGradient id="paint6_linear_1464_6855" x1="181.12" y1="159.17" x2="404.363" y2="-49.2722" gradientUnits="userSpaceOnUse">
<stop stop-color="#4F52FF"/>
<stop offset="1" stop-color="#4042E2"/>
</linearGradient>
<linearGradient id="paint7_linear_1464_6855" x1="138.716" y1="35.1895" x2="92.8905" y2="128.422" gradientUnits="userSpaceOnUse">
<stop stop-color="#FF928E"/>
<stop offset="1" stop-color="#FE7062"/>
</linearGradient>
<linearGradient id="paint8_linear_1464_6855" x1="93.9427" y1="-12.2347" x2="56.5106" y2="22.911" gradientUnits="userSpaceOnUse">
<stop stop-color="#FEBBBA"/>
<stop offset="1" stop-color="#FF928E"/>
</linearGradient>
<linearGradient id="paint9_linear_1464_6855" x1="110.308" y1="-6.08084" x2="289.222" y2="-261.346" gradientUnits="userSpaceOnUse">
<stop stop-color="#4F52FF"/>
<stop offset="1" stop-color="#4042E2"/>
</linearGradient>
<linearGradient id="paint10_linear_1464_6855" x1="64.6234" y1="-39.2176" x2="53.3885" y2="-11.0352" gradientUnits="userSpaceOnUse">
<stop stop-color="#09005D"/>
<stop offset="1" stop-color="#1A0F91"/>
</linearGradient>
<linearGradient id="paint11_linear_1464_6855" x1="7.00369" y1="157.505" x2="0.660847" y2="157.505" gradientUnits="userSpaceOnUse">
<stop stop-color="#09005D"/>
<stop offset="1" stop-color="#1A0F91"/>
</linearGradient>
<linearGradient id="paint12_linear_1464_6855" x1="33.8052" y1="182.517" x2="24.6775" y2="75.8372" gradientUnits="userSpaceOnUse">
<stop stop-color="#FEBBBA"/>
<stop offset="1" stop-color="#FF928E"/>
</linearGradient>
<linearGradient id="paint13_linear_1464_6855" x1="36.4716" y1="156.347" x2="26.2085" y2="156.347" gradientUnits="userSpaceOnUse">
<stop stop-color="#09005D"/>
<stop offset="1" stop-color="#1A0F91"/>
</linearGradient>
<linearGradient id="paint14_linear_1464_6855" x1="15.4442" y1="184.106" x2="6.31394" y2="77.396" gradientUnits="userSpaceOnUse">
<stop stop-color="#FEBBBA"/>
<stop offset="1" stop-color="#FF928E"/>
</linearGradient>
<linearGradient id="paint15_linear_1464_6855" x1="110.101" y1="-82.5072" x2="94.494" y2="-49.7321" gradientUnits="userSpaceOnUse">
<stop stop-color="#FF928E"/>
<stop offset="1" stop-color="#FE7062"/>
</linearGradient>
<linearGradient id="paint16_linear_1464_6855" x1="45.107" y1="56.2582" x2="11.5619" y2="172.735" gradientUnits="userSpaceOnUse">
<stop stop-color="#09005D"/>
<stop offset="1" stop-color="#1A0F91"/>
</linearGradient>
<linearGradient id="paint17_linear_1464_6855" x1="60.3874" y1="29.9652" x2="57.9511" y2="12.1416" gradientUnits="userSpaceOnUse">
<stop stop-color="#FEBBBA"/>
<stop offset="1" stop-color="#FF928E"/>
</linearGradient>
<linearGradient id="paint18_linear_1464_6855" x1="59.3896" y1="21.2013" x2="72.2816" y2="47.0027" gradientUnits="userSpaceOnUse">
<stop stop-color="#FEBBBA"/>
<stop offset="1" stop-color="#FF928E"/>
</linearGradient>
<linearGradient id="paint19_linear_1464_6855" x1="72.6784" y1="-5.16654" x2="50.0096" y2="-45.5093" gradientUnits="userSpaceOnUse">
<stop stop-color="#FEBBBA"/>
<stop offset="1" stop-color="#FF928E"/>
</linearGradient>
<linearGradient id="paint20_linear_1464_6855" x1="70.078" y1="-45.8818" x2="58.4689" y2="-16.7603" gradientUnits="userSpaceOnUse">
<stop stop-color="#09005D"/>
<stop offset="1" stop-color="#1A0F91"/>
</linearGradient>
<linearGradient id="paint21_linear_1464_6855" x1="64.3542" y1="4.72203" x2="42.5311" y2="-34.1159" gradientUnits="userSpaceOnUse">
<stop stop-color="#FEBBBA"/>
<stop offset="1" stop-color="#FF928E"/>
</linearGradient>
<linearGradient id="paint22_linear_1464_6855" x1="229.903" y1="126.381" x2="300.805" y2="202.047" gradientUnits="userSpaceOnUse">
<stop stop-color="#09005D"/>
<stop offset="1" stop-color="#1A0F91"/>
</linearGradient>
<linearGradient id="paint23_linear_1464_6855" x1="252.133" y1="131.961" x2="245.913" y2="132.02" gradientUnits="userSpaceOnUse">
<stop stop-color="#FEBBBA"/>
<stop offset="1" stop-color="#FF928E"/>
</linearGradient>
<linearGradient id="paint24_linear_1464_6855" x1="235.488" y1="32.9341" x2="298.869" y2="117.151" gradientUnits="userSpaceOnUse">
<stop stop-color="#09005D"/>
<stop offset="1" stop-color="#1A0F91"/>
</linearGradient>
<linearGradient id="paint25_linear_1464_6855" x1="268.134" y1="105.238" x2="344.948" y2="187.214" gradientUnits="userSpaceOnUse">
<stop stop-color="#09005D"/>
<stop offset="1" stop-color="#1A0F91"/>
</linearGradient>
<linearGradient id="paint26_linear_1464_6855" x1="298.761" y1="126.708" x2="292.958" y2="126.763" gradientUnits="userSpaceOnUse">
<stop stop-color="#FEBBBA"/>
<stop offset="1" stop-color="#FF928E"/>
</linearGradient>
<linearGradient id="paint27_linear_1464_6855" x1="259.362" y1="16.834" x2="325.718" y2="105.006" gradientUnits="userSpaceOnUse">
<stop stop-color="#09005D"/>
<stop offset="1" stop-color="#1A0F91"/>
</linearGradient>
<linearGradient id="paint28_linear_1464_6855" x1="302.14" y1="-132.862" x2="292.203" y2="-85.382" gradientUnits="userSpaceOnUse">
<stop stop-color="#FF928E"/>
<stop offset="1" stop-color="#FE7062"/>
</linearGradient>
<linearGradient id="paint29_linear_1464_6855" x1="200.543" y1="-8.63999" x2="171.86" y2="-8.3675" gradientUnits="userSpaceOnUse">
<stop stop-color="#FEBBBA"/>
<stop offset="1" stop-color="#FF928E"/>
</linearGradient>
<linearGradient id="paint30_linear_1464_6855" x1="180.77" y1="-15.79" x2="200.68" y2="28.3655" gradientUnits="userSpaceOnUse">
<stop stop-color="#FEBBBA"/>
<stop offset="1" stop-color="#FF928E"/>
</linearGradient>
<linearGradient id="paint31_linear_1464_6855" x1="168.376" y1="-23.9755" x2="160.37" y2="-36.0334" gradientUnits="userSpaceOnUse">
<stop stop-color="#FEBBBA"/>
<stop offset="1" stop-color="#FF928E"/>
</linearGradient>
<linearGradient id="paint32_linear_1464_6855" x1="353.088" y1="-141.896" x2="342.651" y2="-92.0273" gradientUnits="userSpaceOnUse">
<stop stop-color="#FF928E"/>
<stop offset="1" stop-color="#FE7062"/>
</linearGradient>
<linearGradient id="paint33_linear_1464_6855" x1="344.327" y1="-12.7581" x2="297.925" y2="-12.3173" gradientUnits="userSpaceOnUse">
<stop stop-color="#FEBBBA"/>
<stop offset="1" stop-color="#FF928E"/>
</linearGradient>
<linearGradient id="paint34_linear_1464_6855" x1="275.772" y1="-37.5512" x2="259.207" y2="-37.3938" gradientUnits="userSpaceOnUse">
<stop stop-color="#FEBBBA"/>
<stop offset="1" stop-color="#FF928E"/>
</linearGradient>
<linearGradient id="paint35_linear_1464_6855" x1="252.162" y1="-17.3971" x2="229.297" y2="77.8755" gradientUnits="userSpaceOnUse">
<stop stop-color="#09005D"/>
<stop offset="1" stop-color="#1A0F91"/>
</linearGradient>
<linearGradient id="paint36_linear_1464_6855" x1="266.389" y1="8.70086" x2="253.498" y2="8.70086" gradientUnits="userSpaceOnUse">
<stop stop-color="#FEBBBA"/>
<stop offset="1" stop-color="#FF928E"/>
</linearGradient>
<linearGradient id="paint37_linear_1464_6855" x1="256.88" y1="-56.909" x2="254.999" y2="-21.5768" gradientUnits="userSpaceOnUse">
<stop stop-color="#FEBBBA"/>
<stop offset="1" stop-color="#FF928E"/>
</linearGradient>
<linearGradient id="paint38_linear_1464_6855" x1="270.328" y1="-45.4847" x2="250.483" y2="-62.2145" gradientUnits="userSpaceOnUse">
<stop stop-color="#09005D"/>
<stop offset="1" stop-color="#1A0F91"/>
</linearGradient>
<linearGradient id="paint39_linear_1464_6855" x1="268.628" y1="-21.3033" x2="266.847" y2="-45.9469" gradientUnits="userSpaceOnUse">
<stop stop-color="#FEBBBA"/>
<stop offset="1" stop-color="#FF928E"/>
</linearGradient>
</defs>
</svg>
