<svg width="20" height="20" viewBox="0 0 20 20" fill="none" xmlns="http://www.w3.org/2000/svg">
<path d="M12.0703 5.88542C12.0703 6.45833 11.8685 6.94661 11.4648 7.35026C11.0612 7.75391 10.5729 7.95573 10 7.95573C9.42708 7.95573 8.9388 7.75391 8.53516 7.35026C8.13151 6.94661 7.92969 6.45833 7.92969 5.88542C7.92969 5.3125 8.13151 4.82422 8.53516 4.42057C8.9388 4.01693 9.42708 3.8151 10 3.8151C10.5729 3.8151 11.0612 4.01693 11.4648 4.42057C11.8685 4.82422 12.0703 5.3125 12.0703 5.88542ZM14.8568 10.612C14.77 10.4384 14.6484 10.2995 14.4922 10.1953C14.3359 10.0911 14.1298 10.0499 13.8737 10.0716C13.6176 10.0933 13.355 10.2127 13.0859 10.4297C12.9991 10.4991 12.8733 10.5859 12.7083 10.6901C12.5434 10.7943 12.1918 10.9332 11.6536 11.1068C11.1155 11.2804 10.5642 11.3672 10 11.3672C9.43576 11.3672 8.89757 11.2891 8.38542 11.1328C7.87326 10.9766 7.5 10.8203 7.26562 10.6641L6.91406 10.4297C6.64497 10.2127 6.38238 10.0933 6.1263 10.0716C5.87023 10.0499 5.66406 10.0911 5.50781 10.1953C5.35156 10.2995 5.23003 10.4384 5.14323 10.612C4.95226 11.0026 4.94358 11.326 5.11719 11.582C5.2908 11.8381 5.6684 12.1571 6.25 12.5391C6.97049 12.9991 7.95139 13.2899 9.19271 13.4115L8.52865 14.0885C7.29601 15.3212 6.46701 16.1458 6.04167 16.5625C5.85069 16.7535 5.75521 16.9813 5.75521 17.2461C5.75521 17.5109 5.85069 17.7387 6.04167 17.9297L6.15885 18.0469C6.34983 18.2378 6.57769 18.3333 6.84245 18.3333C7.1072 18.3333 7.33507 18.2378 7.52604 18.0469L10.013 15.5599C11.0026 16.5582 11.8316 17.3872 12.5 18.0469C12.691 18.2378 12.9188 18.3333 13.1836 18.3333C13.4483 18.3333 13.6762 18.2378 13.8672 18.0469L13.9844 17.9297C14.1753 17.7387 14.2708 17.5109 14.2708 17.2461C14.2708 16.9813 14.1753 16.7535 13.9844 16.5625L11.4974 14.0885L10.8203 13.4115C12.0443 13.2899 13.0208 12.9991 13.75 12.5391C14.3316 12.1571 14.7092 11.8381 14.8828 11.582C15.0564 11.326 15.0477 11.0026 14.8568 10.612ZM14.2188 5.88542C14.2188 4.72222 13.8064 3.7283 12.9818 2.90365C12.1571 2.07899 11.1632 1.66667 10 1.66667C8.83681 1.66667 7.84288 2.07899 7.01823 2.90365C6.19358 3.7283 5.78125 4.72222 5.78125 5.88542C5.78125 7.04861 6.19358 8.04253 7.01823 8.86719C7.84288 9.69184 8.83681 10.1042 10 10.1042C11.1632 10.1042 12.1571 9.69184 12.9818 8.86719C13.8064 8.04253 14.2188 7.04861 14.2188 5.88542ZM20 3.75V16.25C20 17.283 19.6332 18.1662 18.8997 18.8997C18.1662 19.6332 17.283 20 16.25 20H3.75C2.71701 20 1.83377 19.6332 1.10026 18.8997C0.366753 18.1662 0 17.283 0 16.25V3.75C0 2.71701 0.366753 1.83377 1.10026 1.10026C1.83377 0.366753 2.71701 0 3.75 0H16.25C17.283 0 18.1662 0.366753 18.8997 1.10026C19.6332 1.83377 20 2.71701 20 3.75Z" fill="#FEFEFE"/>
</svg>
